<?xml version="1.0" encoding="utf-8" standalone="no"?>
<!DOCTYPE svg PUBLIC "-//W3C//DTD SVG 1.1//EN"
  "http://www.w3.org/Graphics/SVG/1.1/DTD/svg11.dtd">
<!-- Created with matplotlib (https://matplotlib.org/) -->
<svg height="345.6pt" version="1.1" viewBox="0 0 460.8 345.6" width="460.8pt" xmlns="http://www.w3.org/2000/svg" xmlns:xlink="http://www.w3.org/1999/xlink">
 <defs>
  <style type="text/css">
*{stroke-linecap:butt;stroke-linejoin:round;}
  </style>
 </defs>
 <g id="figure_1">
  <g id="patch_1">
   <path d="M 0 345.6 
L 460.8 345.6 
L 460.8 0 
L 0 0 
z
" style="fill:#ffffff;"/>
  </g>
  <g id="axes_1">
   <g id="patch_2">
    <path d="M 57.6 162.432 
L 414.72 162.432 
L 414.72 41.472 
L 57.6 41.472 
z
" style="fill:#ffffff;"/>
   </g>
   <g id="matplotlib.axis_1">
    <g id="xtick_1">
     <g id="line2d_1">
      <defs>
       <path d="M 0 0 
L 0 3.5 
" id="m70a3300909" style="stroke:#000000;stroke-width:0.8;"/>
      </defs>
      <g>
       <use style="stroke:#000000;stroke-width:0.8;" x="73.832727" xlink:href="#m70a3300909" y="162.432"/>
      </g>
     </g>
     <g id="text_1">
      <!-- 0 -->
      <defs>
       <path d="M 31.78125 66.40625 
Q 24.171875 66.40625 20.328125 58.90625 
Q 16.5 51.421875 16.5 36.375 
Q 16.5 21.390625 20.328125 13.890625 
Q 24.171875 6.390625 31.78125 6.390625 
Q 39.453125 6.390625 43.28125 13.890625 
Q 47.125 21.390625 47.125 36.375 
Q 47.125 51.421875 43.28125 58.90625 
Q 39.453125 66.40625 31.78125 66.40625 
z
M 31.78125 74.21875 
Q 44.046875 74.21875 50.515625 64.515625 
Q 56.984375 54.828125 56.984375 36.375 
Q 56.984375 17.96875 50.515625 8.265625 
Q 44.046875 -1.421875 31.78125 -1.421875 
Q 19.53125 -1.421875 13.0625 8.265625 
Q 6.59375 17.96875 6.59375 36.375 
Q 6.59375 54.828125 13.0625 64.515625 
Q 19.53125 74.21875 31.78125 74.21875 
z
" id="DejaVuSans-48"/>
      </defs>
      <g transform="translate(70.651477 177.030437)scale(0.1 -0.1)">
       <use xlink:href="#DejaVuSans-48"/>
      </g>
     </g>
    </g>
    <g id="xtick_2">
     <g id="line2d_2">
      <g>
       <use style="stroke:#000000;stroke-width:0.8;" x="138.893758" xlink:href="#m70a3300909" y="162.432"/>
      </g>
     </g>
     <g id="text_2">
      <!-- 200 -->
      <defs>
       <path d="M 19.1875 8.296875 
L 53.609375 8.296875 
L 53.609375 0 
L 7.328125 0 
L 7.328125 8.296875 
Q 12.9375 14.109375 22.625 23.890625 
Q 32.328125 33.6875 34.8125 36.53125 
Q 39.546875 41.84375 41.421875 45.53125 
Q 43.3125 49.21875 43.3125 52.78125 
Q 43.3125 58.59375 39.234375 62.25 
Q 35.15625 65.921875 28.609375 65.921875 
Q 23.96875 65.921875 18.8125 64.3125 
Q 13.671875 62.703125 7.8125 59.421875 
L 7.8125 69.390625 
Q 13.765625 71.78125 18.9375 73 
Q 24.125 74.21875 28.421875 74.21875 
Q 39.75 74.21875 46.484375 68.546875 
Q 53.21875 62.890625 53.21875 53.421875 
Q 53.21875 48.921875 51.53125 44.890625 
Q 49.859375 40.875 45.40625 35.40625 
Q 44.1875 33.984375 37.640625 27.21875 
Q 31.109375 20.453125 19.1875 8.296875 
z
" id="DejaVuSans-50"/>
      </defs>
      <g transform="translate(129.350008 177.030437)scale(0.1 -0.1)">
       <use xlink:href="#DejaVuSans-50"/>
       <use x="63.623047" xlink:href="#DejaVuSans-48"/>
       <use x="127.246094" xlink:href="#DejaVuSans-48"/>
      </g>
     </g>
    </g>
    <g id="xtick_3">
     <g id="line2d_3">
      <g>
       <use style="stroke:#000000;stroke-width:0.8;" x="203.95479" xlink:href="#m70a3300909" y="162.432"/>
      </g>
     </g>
     <g id="text_3">
      <!-- 400 -->
      <defs>
       <path d="M 37.796875 64.3125 
L 12.890625 25.390625 
L 37.796875 25.390625 
z
M 35.203125 72.90625 
L 47.609375 72.90625 
L 47.609375 25.390625 
L 58.015625 25.390625 
L 58.015625 17.1875 
L 47.609375 17.1875 
L 47.609375 0 
L 37.796875 0 
L 37.796875 17.1875 
L 4.890625 17.1875 
L 4.890625 26.703125 
z
" id="DejaVuSans-52"/>
      </defs>
      <g transform="translate(194.41104 177.030437)scale(0.1 -0.1)">
       <use xlink:href="#DejaVuSans-52"/>
       <use x="63.623047" xlink:href="#DejaVuSans-48"/>
       <use x="127.246094" xlink:href="#DejaVuSans-48"/>
      </g>
     </g>
    </g>
    <g id="xtick_4">
     <g id="line2d_4">
      <g>
       <use style="stroke:#000000;stroke-width:0.8;" x="269.015821" xlink:href="#m70a3300909" y="162.432"/>
      </g>
     </g>
     <g id="text_4">
      <!-- 600 -->
      <defs>
       <path d="M 33.015625 40.375 
Q 26.375 40.375 22.484375 35.828125 
Q 18.609375 31.296875 18.609375 23.390625 
Q 18.609375 15.53125 22.484375 10.953125 
Q 26.375 6.390625 33.015625 6.390625 
Q 39.65625 6.390625 43.53125 10.953125 
Q 47.40625 15.53125 47.40625 23.390625 
Q 47.40625 31.296875 43.53125 35.828125 
Q 39.65625 40.375 33.015625 40.375 
z
M 52.59375 71.296875 
L 52.59375 62.3125 
Q 48.875 64.0625 45.09375 64.984375 
Q 41.3125 65.921875 37.59375 65.921875 
Q 27.828125 65.921875 22.671875 59.328125 
Q 17.53125 52.734375 16.796875 39.40625 
Q 19.671875 43.65625 24.015625 45.921875 
Q 28.375 48.1875 33.59375 48.1875 
Q 44.578125 48.1875 50.953125 41.515625 
Q 57.328125 34.859375 57.328125 23.390625 
Q 57.328125 12.15625 50.6875 5.359375 
Q 44.046875 -1.421875 33.015625 -1.421875 
Q 20.359375 -1.421875 13.671875 8.265625 
Q 6.984375 17.96875 6.984375 36.375 
Q 6.984375 53.65625 15.1875 63.9375 
Q 23.390625 74.21875 37.203125 74.21875 
Q 40.921875 74.21875 44.703125 73.484375 
Q 48.484375 72.75 52.59375 71.296875 
z
" id="DejaVuSans-54"/>
      </defs>
      <g transform="translate(259.472071 177.030437)scale(0.1 -0.1)">
       <use xlink:href="#DejaVuSans-54"/>
       <use x="63.623047" xlink:href="#DejaVuSans-48"/>
       <use x="127.246094" xlink:href="#DejaVuSans-48"/>
      </g>
     </g>
    </g>
    <g id="xtick_5">
     <g id="line2d_5">
      <g>
       <use style="stroke:#000000;stroke-width:0.8;" x="334.076852" xlink:href="#m70a3300909" y="162.432"/>
      </g>
     </g>
     <g id="text_5">
      <!-- 800 -->
      <defs>
       <path d="M 31.78125 34.625 
Q 24.75 34.625 20.71875 30.859375 
Q 16.703125 27.09375 16.703125 20.515625 
Q 16.703125 13.921875 20.71875 10.15625 
Q 24.75 6.390625 31.78125 6.390625 
Q 38.8125 6.390625 42.859375 10.171875 
Q 46.921875 13.96875 46.921875 20.515625 
Q 46.921875 27.09375 42.890625 30.859375 
Q 38.875 34.625 31.78125 34.625 
z
M 21.921875 38.8125 
Q 15.578125 40.375 12.03125 44.71875 
Q 8.5 49.078125 8.5 55.328125 
Q 8.5 64.0625 14.71875 69.140625 
Q 20.953125 74.21875 31.78125 74.21875 
Q 42.671875 74.21875 48.875 69.140625 
Q 55.078125 64.0625 55.078125 55.328125 
Q 55.078125 49.078125 51.53125 44.71875 
Q 48 40.375 41.703125 38.8125 
Q 48.828125 37.15625 52.796875 32.3125 
Q 56.78125 27.484375 56.78125 20.515625 
Q 56.78125 9.90625 50.3125 4.234375 
Q 43.84375 -1.421875 31.78125 -1.421875 
Q 19.734375 -1.421875 13.25 4.234375 
Q 6.78125 9.90625 6.78125 20.515625 
Q 6.78125 27.484375 10.78125 32.3125 
Q 14.796875 37.15625 21.921875 38.8125 
z
M 18.3125 54.390625 
Q 18.3125 48.734375 21.84375 45.5625 
Q 25.390625 42.390625 31.78125 42.390625 
Q 38.140625 42.390625 41.71875 45.5625 
Q 45.3125 48.734375 45.3125 54.390625 
Q 45.3125 60.0625 41.71875 63.234375 
Q 38.140625 66.40625 31.78125 66.40625 
Q 25.390625 66.40625 21.84375 63.234375 
Q 18.3125 60.0625 18.3125 54.390625 
z
" id="DejaVuSans-56"/>
      </defs>
      <g transform="translate(324.533102 177.030437)scale(0.1 -0.1)">
       <use xlink:href="#DejaVuSans-56"/>
       <use x="63.623047" xlink:href="#DejaVuSans-48"/>
       <use x="127.246094" xlink:href="#DejaVuSans-48"/>
      </g>
     </g>
    </g>
    <g id="xtick_6">
     <g id="line2d_6">
      <g>
       <use style="stroke:#000000;stroke-width:0.8;" x="399.137883" xlink:href="#m70a3300909" y="162.432"/>
      </g>
     </g>
     <g id="text_6">
      <!-- 1000 -->
      <defs>
       <path d="M 12.40625 8.296875 
L 28.515625 8.296875 
L 28.515625 63.921875 
L 10.984375 60.40625 
L 10.984375 69.390625 
L 28.421875 72.90625 
L 38.28125 72.90625 
L 38.28125 8.296875 
L 54.390625 8.296875 
L 54.390625 0 
L 12.40625 0 
z
" id="DejaVuSans-49"/>
      </defs>
      <g transform="translate(386.412883 177.030437)scale(0.1 -0.1)">
       <use xlink:href="#DejaVuSans-49"/>
       <use x="63.623047" xlink:href="#DejaVuSans-48"/>
       <use x="127.246094" xlink:href="#DejaVuSans-48"/>
       <use x="190.869141" xlink:href="#DejaVuSans-48"/>
      </g>
     </g>
    </g>
   </g>
   <g id="matplotlib.axis_2">
    <g id="ytick_1">
     <g id="line2d_7">
      <defs>
       <path d="M 0 0 
L -3.5 0 
" id="mc7cece82f7" style="stroke:#000000;stroke-width:0.8;"/>
      </defs>
      <g>
       <use style="stroke:#000000;stroke-width:0.8;" x="57.6" xlink:href="#mc7cece82f7" y="143.578319"/>
      </g>
     </g>
     <g id="text_7">
      <!-- −40 -->
      <defs>
       <path d="M 10.59375 35.5 
L 73.1875 35.5 
L 73.1875 27.203125 
L 10.59375 27.203125 
z
" id="DejaVuSans-8722"/>
      </defs>
      <g transform="translate(29.495313 147.377538)scale(0.1 -0.1)">
       <use xlink:href="#DejaVuSans-8722"/>
       <use x="83.789062" xlink:href="#DejaVuSans-52"/>
       <use x="147.412109" xlink:href="#DejaVuSans-48"/>
      </g>
     </g>
    </g>
    <g id="ytick_2">
     <g id="line2d_8">
      <g>
       <use style="stroke:#000000;stroke-width:0.8;" x="57.6" xlink:href="#mc7cece82f7" y="121.486508"/>
      </g>
     </g>
     <g id="text_8">
      <!-- −20 -->
      <g transform="translate(29.495313 125.285726)scale(0.1 -0.1)">
       <use xlink:href="#DejaVuSans-8722"/>
       <use x="83.789062" xlink:href="#DejaVuSans-50"/>
       <use x="147.412109" xlink:href="#DejaVuSans-48"/>
      </g>
     </g>
    </g>
    <g id="ytick_3">
     <g id="line2d_9">
      <g>
       <use style="stroke:#000000;stroke-width:0.8;" x="57.6" xlink:href="#mc7cece82f7" y="99.394696"/>
      </g>
     </g>
     <g id="text_9">
      <!-- 0 -->
      <g transform="translate(44.2375 103.193915)scale(0.1 -0.1)">
       <use xlink:href="#DejaVuSans-48"/>
      </g>
     </g>
    </g>
    <g id="ytick_4">
     <g id="line2d_10">
      <g>
       <use style="stroke:#000000;stroke-width:0.8;" x="57.6" xlink:href="#mc7cece82f7" y="77.302884"/>
      </g>
     </g>
     <g id="text_10">
      <!-- 20 -->
      <g transform="translate(37.875 81.102103)scale(0.1 -0.1)">
       <use xlink:href="#DejaVuSans-50"/>
       <use x="63.623047" xlink:href="#DejaVuSans-48"/>
      </g>
     </g>
    </g>
    <g id="ytick_5">
     <g id="line2d_11">
      <g>
       <use style="stroke:#000000;stroke-width:0.8;" x="57.6" xlink:href="#mc7cece82f7" y="55.211073"/>
      </g>
     </g>
     <g id="text_11">
      <!-- 40 -->
      <g transform="translate(37.875 59.010291)scale(0.1 -0.1)">
       <use xlink:href="#DejaVuSans-52"/>
       <use x="63.623047" xlink:href="#DejaVuSans-48"/>
      </g>
     </g>
    </g>
    <g id="text_12">
     <!-- Pitch Diff -->
     <defs>
      <path d="M 19.671875 64.796875 
L 19.671875 37.40625 
L 32.078125 37.40625 
Q 38.96875 37.40625 42.71875 40.96875 
Q 46.484375 44.53125 46.484375 51.125 
Q 46.484375 57.671875 42.71875 61.234375 
Q 38.96875 64.796875 32.078125 64.796875 
z
M 9.8125 72.90625 
L 32.078125 72.90625 
Q 44.34375 72.90625 50.609375 67.359375 
Q 56.890625 61.8125 56.890625 51.125 
Q 56.890625 40.328125 50.609375 34.8125 
Q 44.34375 29.296875 32.078125 29.296875 
L 19.671875 29.296875 
L 19.671875 0 
L 9.8125 0 
z
" id="DejaVuSans-80"/>
      <path d="M 9.421875 54.6875 
L 18.40625 54.6875 
L 18.40625 0 
L 9.421875 0 
z
M 9.421875 75.984375 
L 18.40625 75.984375 
L 18.40625 64.59375 
L 9.421875 64.59375 
z
" id="DejaVuSans-105"/>
      <path d="M 18.3125 70.21875 
L 18.3125 54.6875 
L 36.8125 54.6875 
L 36.8125 47.703125 
L 18.3125 47.703125 
L 18.3125 18.015625 
Q 18.3125 11.328125 20.140625 9.421875 
Q 21.96875 7.515625 27.59375 7.515625 
L 36.8125 7.515625 
L 36.8125 0 
L 27.59375 0 
Q 17.1875 0 13.234375 3.875 
Q 9.28125 7.765625 9.28125 18.015625 
L 9.28125 47.703125 
L 2.6875 47.703125 
L 2.6875 54.6875 
L 9.28125 54.6875 
L 9.28125 70.21875 
z
" id="DejaVuSans-116"/>
      <path d="M 48.78125 52.59375 
L 48.78125 44.1875 
Q 44.96875 46.296875 41.140625 47.34375 
Q 37.3125 48.390625 33.40625 48.390625 
Q 24.65625 48.390625 19.8125 42.84375 
Q 14.984375 37.3125 14.984375 27.296875 
Q 14.984375 17.28125 19.8125 11.734375 
Q 24.65625 6.203125 33.40625 6.203125 
Q 37.3125 6.203125 41.140625 7.25 
Q 44.96875 8.296875 48.78125 10.40625 
L 48.78125 2.09375 
Q 45.015625 0.34375 40.984375 -0.53125 
Q 36.96875 -1.421875 32.421875 -1.421875 
Q 20.0625 -1.421875 12.78125 6.34375 
Q 5.515625 14.109375 5.515625 27.296875 
Q 5.515625 40.671875 12.859375 48.328125 
Q 20.21875 56 33.015625 56 
Q 37.15625 56 41.109375 55.140625 
Q 45.0625 54.296875 48.78125 52.59375 
z
" id="DejaVuSans-99"/>
      <path d="M 54.890625 33.015625 
L 54.890625 0 
L 45.90625 0 
L 45.90625 32.71875 
Q 45.90625 40.484375 42.875 44.328125 
Q 39.84375 48.1875 33.796875 48.1875 
Q 26.515625 48.1875 22.3125 43.546875 
Q 18.109375 38.921875 18.109375 30.90625 
L 18.109375 0 
L 9.078125 0 
L 9.078125 75.984375 
L 18.109375 75.984375 
L 18.109375 46.1875 
Q 21.34375 51.125 25.703125 53.5625 
Q 30.078125 56 35.796875 56 
Q 45.21875 56 50.046875 50.171875 
Q 54.890625 44.34375 54.890625 33.015625 
z
" id="DejaVuSans-104"/>
      <path id="DejaVuSans-32"/>
      <path d="M 19.671875 64.796875 
L 19.671875 8.109375 
L 31.59375 8.109375 
Q 46.6875 8.109375 53.6875 14.9375 
Q 60.6875 21.78125 60.6875 36.53125 
Q 60.6875 51.171875 53.6875 57.984375 
Q 46.6875 64.796875 31.59375 64.796875 
z
M 9.8125 72.90625 
L 30.078125 72.90625 
Q 51.265625 72.90625 61.171875 64.09375 
Q 71.09375 55.28125 71.09375 36.53125 
Q 71.09375 17.671875 61.125 8.828125 
Q 51.171875 0 30.078125 0 
L 9.8125 0 
z
" id="DejaVuSans-68"/>
      <path d="M 37.109375 75.984375 
L 37.109375 68.5 
L 28.515625 68.5 
Q 23.6875 68.5 21.796875 66.546875 
Q 19.921875 64.59375 19.921875 59.515625 
L 19.921875 54.6875 
L 34.71875 54.6875 
L 34.71875 47.703125 
L 19.921875 47.703125 
L 19.921875 0 
L 10.890625 0 
L 10.890625 47.703125 
L 2.296875 47.703125 
L 2.296875 54.6875 
L 10.890625 54.6875 
L 10.890625 58.5 
Q 10.890625 67.625 15.140625 71.796875 
Q 19.390625 75.984375 28.609375 75.984375 
z
" id="DejaVuSans-102"/>
     </defs>
     <g transform="translate(23.415625 124.580906)rotate(-90)scale(0.1 -0.1)">
      <use xlink:href="#DejaVuSans-80"/>
      <use x="60.271484" xlink:href="#DejaVuSans-105"/>
      <use x="88.054688" xlink:href="#DejaVuSans-116"/>
      <use x="127.263672" xlink:href="#DejaVuSans-99"/>
      <use x="182.244141" xlink:href="#DejaVuSans-104"/>
      <use x="245.623047" xlink:href="#DejaVuSans-32"/>
      <use x="277.410156" xlink:href="#DejaVuSans-68"/>
      <use x="354.412109" xlink:href="#DejaVuSans-105"/>
      <use x="382.195312" xlink:href="#DejaVuSans-102"/>
      <use x="417.400391" xlink:href="#DejaVuSans-102"/>
     </g>
    </g>
   </g>
   <g id="line2d_12">
    <path clip-path="url(#p234768e53a)" d="M 73.832727 99.394696 
L 91.724511 99.394696 
L 92.049816 99.156607 
L 93.351037 99.24126 
L 93.676342 99.138314 
L 94.001647 94.858882 
L 94.326952 99.394696 
L 102.459581 99.394696 
L 102.784886 96.480432 
L 103.110191 99.380589 
L 104.736717 99.415174 
L 105.062022 102.289126 
L 105.387327 99.394696 
L 109.616294 99.394696 
L 109.9416 94.192741 
L 110.266905 99.197344 
L 110.917515 99.026749 
L 111.24282 98.805351 
L 111.568125 98.837532 
L 111.89343 98.62861 
L 112.218736 98.978247 
L 113.194651 99.272111 
L 116.122398 99.392429 
L 116.447703 99.629993 
L 116.773008 99.553666 
L 117.098313 99.739456 
L 117.423618 99.586325 
L 117.748923 99.580276 
L 118.074228 99.696464 
L 118.399534 99.592987 
L 118.724839 103.322951 
L 119.050144 100.112769 
L 119.375449 99.902444 
L 119.700754 99.002615 
L 120.026059 99.336991 
L 121.32728 99.353883 
L 121.652585 98.710552 
L 121.97789 99.586488 
L 122.303195 99.392685 
L 122.628501 99.387278 
L 122.953806 97.893233 
L 123.279111 100.240942 
L 123.604416 99.519858 
L 123.929721 99.354904 
L 124.255026 100.155753 
L 124.580332 99.979265 
L 124.905637 99.361754 
L 125.556247 100.330229 
L 125.881552 99.369572 
L 126.206857 99.565507 
L 126.532163 100.450413 
L 126.857468 99.691197 
L 127.182773 91.187842 
L 127.508078 99.019239 
L 128.483993 99.990953 
L 130.110519 101.455299 
L 130.435824 98.307426 
L 130.76113 97.757942 
L 131.086435 102.419295 
L 131.41174 99.394696 
L 132.387655 99.394696 
L 132.71296 99.247568 
L 133.038266 98.280428 
L 134.014181 99.29164 
L 134.990097 99.310609 
L 135.315402 99.8632 
L 135.966012 98.273338 
L 136.291317 99.063262 
L 136.616622 99.228341 
L 136.941927 99.108103 
L 137.267233 99.432751 
L 137.917843 100.78346 
L 138.243148 100.43673 
L 138.568453 100.606907 
L 138.893758 99.410438 
L 141.4962 99.394696 
L 143.448031 99.394696 
L 143.773336 99.540026 
L 144.098641 104.064877 
L 144.423946 106.659996 
L 144.749251 99.747419 
L 145.074556 99.682293 
L 145.399862 98.54836 
L 145.725167 95.113106 
L 146.050472 94.410854 
L 146.701082 99.394696 
L 157.110847 99.394696 
L 157.436152 99.918392 
L 157.761457 100.700244 
L 158.412068 100.07593 
L 158.737373 99.45855 
L 159.387983 98.668024 
L 159.713288 99.07559 
L 160.038594 98.50634 
L 160.363899 98.5714 
L 160.689204 98.896618 
L 161.014509 99.394696 
L 162.641035 99.394696 
L 162.96634 100.245842 
L 163.291645 100.337741 
L 163.61695 99.734579 
L 163.942255 99.378224 
L 164.592866 99.37322 
L 164.918171 100.116656 
L 165.568781 99.374842 
L 166.219392 99.376152 
L 166.544697 95.820884 
L 166.870002 99.38441 
L 168.171222 99.416555 
L 168.496528 100.030504 
L 168.821833 100.125406 
L 169.147138 99.502253 
L 169.472443 99.420156 
L 169.797748 99.621898 
L 170.123053 100.179466 
L 170.448359 98.697313 
L 170.773664 97.745438 
L 171.098969 97.448167 
L 171.424274 97.982825 
L 171.749579 98.750511 
L 172.400189 99.243309 
L 172.725495 100.903533 
L 173.0508 100.471429 
L 173.376105 100.285084 
L 174.026715 101.009921 
L 174.35202 94.365643 
L 174.677326 98.621971 
L 175.978546 100.086342 
L 176.303851 100.085566 
L 176.629156 100.845976 
L 176.954462 100.638177 
L 177.279767 101.488602 
L 177.605072 99.605184 
L 177.930377 96.339334 
L 178.255682 98.102826 
L 178.580987 96.93318 
L 178.906293 96.400543 
L 179.231598 98.539913 
L 179.556903 102.26189 
L 179.882208 100.686872 
L 180.207513 101.525197 
L 180.532818 91.307038 
L 180.858124 105.082116 
L 181.834039 92.542503 
L 182.159344 93.031234 
L 182.484649 124.519954 
L 182.809954 100.779124 
L 183.13526 99.447735 
L 183.460565 96.917729 
L 183.78587 97.718164 
L 184.43648 101.87617 
L 184.761785 100.516657 
L 185.087091 102.08552 
L 185.412396 100.188603 
L 185.737701 100.644977 
L 186.063006 99.670978 
L 186.388311 99.472155 
L 186.713616 94.22123 
L 187.038921 95.331121 
L 187.689532 102.126933 
L 188.014837 104.08779 
L 188.340142 92.693097 
L 188.665447 99.364052 
L 189.641363 99.453453 
L 189.966668 100.783785 
L 190.291973 95.343007 
L 190.617278 99.390528 
L 193.87033 99.317362 
L 194.195635 99.890241 
L 194.52094 100.001109 
L 194.846245 99.366149 
L 195.17155 99.999682 
L 195.496856 100.078647 
L 195.822161 99.394696 
L 196.798076 99.394696 
L 197.123381 104.231252 
L 197.448686 96.687525 
L 197.773992 94.334029 
L 198.099297 100.723605 
L 198.424602 101.746216 
L 198.749907 100.144138 
L 199.075212 95.862984 
L 199.400517 99.068132 
L 199.725823 100.890878 
L 200.051128 96.91943 
L 200.376433 102.268064 
L 201.027043 97.702912 
L 201.352348 98.065959 
L 201.677653 100.507988 
L 202.328264 96.997339 
L 202.653569 98.436265 
L 202.978874 101.66178 
L 203.629484 99.240324 
L 203.95479 117.582223 
L 204.280095 102.524541 
L 204.6054 103.584112 
L 204.930705 96.994856 
L 205.25601 103.958657 
L 205.581315 100.985243 
L 205.906621 99.394696 
L 207.533146 99.394696 
L 207.858451 99.180138 
L 208.183757 99.216333 
L 208.509062 99.520997 
L 208.834367 100.034883 
L 209.159672 99.335847 
L 209.484977 46.970182 
L 209.810282 99.37385 
L 210.135588 99.384913 
L 210.460893 101.107345 
L 211.111503 99.854655 
L 211.436808 101.839667 
L 211.762113 100.046058 
L 212.412724 98.938916 
L 212.738029 97.221402 
L 213.063334 98.593889 
L 213.388639 96.006572 
L 213.713944 98.679061 
L 214.039249 122.618443 
L 214.364555 100.164651 
L 214.68986 100.008087 
L 215.015165 100.084076 
L 215.34047 100.608433 
L 215.665775 100.27561 
L 216.316385 100.413225 
L 216.641691 98.61572 
L 216.966996 98.7415 
L 217.292301 98.606264 
L 217.617606 98.950581 
L 218.268216 99.174743 
L 218.593522 99.230018 
L 218.918827 98.86408 
L 219.244132 99.569257 
L 219.569437 99.062803 
L 219.894742 99.341249 
L 225.750235 99.32241 
L 226.07554 100.826447 
L 226.400845 98.966501 
L 226.72615 101.278894 
L 227.051456 98.592129 
L 227.376761 96.927364 
L 227.702066 97.120507 
L 228.027371 99.025585 
L 228.352676 99.293693 
L 228.677981 100.461355 
L 229.003287 96.231898 
L 229.328592 99.053931 
L 229.653897 99.347659 
L 229.979202 101.916952 
L 230.304507 105.813961 
L 230.629812 103.948229 
L 230.955118 99.22465 
L 232.256338 99.303705 
L 232.581643 98.812403 
L 232.906948 97.190631 
L 233.232254 97.918117 
L 233.557559 97.373477 
L 233.882864 99.400579 
L 242.015493 99.405407 
L 251.774647 99.355097 
L 252.099953 100.559058 
L 252.425258 100.016739 
L 252.750563 99.728903 
L 253.075868 98.735949 
L 253.401173 100.369115 
L 253.726478 99.394696 
L 255.027699 99.394696 
L 255.353004 93.350882 
L 255.678309 98.846381 
L 256.003615 98.830076 
L 256.32892 104.149281 
L 256.654225 96.480217 
L 256.97953 102.064881 
L 257.304835 100.018475 
L 257.63014 99.670173 
L 257.955445 99.62394 
L 258.280751 100.53062 
L 258.606056 99.367948 
L 258.931361 99.531488 
L 259.256666 102.234321 
L 259.581971 100.858008 
L 259.907276 101.436701 
L 260.232582 99.94559 
L 260.557887 99.655008 
L 261.208497 99.822496 
L 261.533802 100.015576 
L 261.859107 99.891592 
L 262.184412 99.600089 
L 262.509718 99.796214 
L 262.835023 97.813405 
L 263.160328 98.464203 
L 263.485633 98.019363 
L 263.810938 94.385208 
L 264.136243 98.961938 
L 264.461549 96.665374 
L 264.786854 100.909568 
L 265.437464 97.393289 
L 266.088074 97.919525 
L 266.413379 97.603907 
L 266.738685 98.508254 
L 267.389295 98.877812 
L 267.7146 99.356182 
L 268.039905 99.597708 
L 268.36521 100.212084 
L 268.690516 107.441749 
L 269.015821 98.682263 
L 269.341126 98.733201 
L 269.666431 99.313433 
L 269.991736 100.471334 
L 270.317041 100.794219 
L 270.642347 101.551195 
L 270.967652 99.986443 
L 271.292957 99.577704 
L 271.618262 99.460322 
L 272.268872 99.506731 
L 272.594177 99.454127 
L 272.919483 96.969808 
L 273.244788 98.897519 
L 273.570093 99.253532 
L 273.895398 101.80467 
L 274.220703 99.487637 
L 274.546008 100.96186 
L 274.871314 99.315133 
L 275.196619 98.276661 
L 275.521924 98.706638 
L 275.847229 97.875687 
L 276.172534 98.957748 
L 276.497839 99.394696 
L 276.823144 99.394696 
L 277.473755 96.716947 
L 277.79906 98.980186 
L 278.124365 98.965682 
L 278.44967 98.764182 
L 279.100281 98.748688 
L 279.425586 105.983232 
L 279.750891 98.196408 
L 280.076196 97.797487 
L 280.401501 98.044487 
L 280.726806 98.740161 
L 281.052111 98.163582 
L 281.377417 98.400993 
L 281.702722 98.936805 
L 282.028027 98.999708 
L 282.353332 101.54368 
L 282.678637 100.822869 
L 283.003942 100.44389 
L 283.329248 101.281775 
L 283.654553 101.021189 
L 283.979858 99.394696 
L 284.305163 99.394696 
L 284.630468 98.303784 
L 284.955773 99.394954 
L 298.943895 99.394448 
L 299.2692 102.436807 
L 299.594505 98.365569 
L 299.919811 98.64541 
L 300.245116 99.401166 
L 300.570421 99.404569 
L 300.895726 99.057668 
L 301.221031 98.078112 
L 301.546336 98.583771 
L 301.871641 99.339636 
L 302.522252 99.339082 
L 302.847557 101.743985 
L 303.172862 99.394696 
L 303.498167 99.16244 
L 303.823472 99.397162 
L 304.474083 99.390477 
L 304.799388 99.50945 
L 305.124693 98.448844 
L 305.775303 98.423509 
L 306.100608 98.155293 
L 306.425914 99.319799 
L 308.052439 99.257006 
L 308.377745 104.191973 
L 308.70305 99.394696 
L 314.558543 99.394696 
L 314.883848 98.935805 
L 315.209153 98.179288 
L 315.534458 98.832151 
L 315.859763 98.713923 
L 316.185068 102.312314 
L 316.510373 99.394696 
L 316.835679 99.394696 
L 317.160984 95.785179 
L 317.486289 99.323663 
L 318.78751 99.293166 
L 319.43812 99.34069 
L 319.763425 100.378156 
L 320.08873 100.746152 
L 320.414035 99.334788 
L 321.389951 99.321607 
L 321.715256 100.24546 
L 322.040561 100.002959 
L 322.365866 99.161377 
L 322.691171 97.834985 
L 323.016477 98.41481 
L 323.341782 103.413974 
L 323.667087 99.441639 
L 323.992392 101.419199 
L 324.317697 101.261356 
L 324.643002 99.395922 
L 324.968308 99.503969 
L 325.618918 99.427454 
L 326.594833 99.213725 
L 327.570749 99.18706 
L 328.546664 99.207727 
L 328.871969 94.780486 
L 329.197275 100.639102 
L 329.52258 99.436906 
L 330.498495 99.394696 
L 330.8238 99.394696 
L 331.149105 101.779763 
L 331.474411 99.296441 
L 331.799716 98.189609 
L 332.125021 97.778627 
L 332.450326 99.929041 
L 332.775631 99.394696 
L 333.426242 99.394696 
L 333.751547 99.839542 
L 334.076852 100.575634 
L 334.402157 99.473852 
L 334.727462 99.343189 
L 335.052767 99.51794 
L 335.378073 99.941997 
L 335.703378 99.338262 
L 336.353988 99.346628 
L 336.679293 101.447268 
L 337.329903 97.441083 
L 337.655209 97.365212 
L 337.980514 99.344484 
L 338.305819 99.413086 
L 338.631124 101.097584 
L 338.956429 99.752016 
L 339.281734 100.006686 
L 339.60704 99.582828 
L 339.932345 100.089153 
L 340.25765 99.621507 
L 340.90826 99.94663 
L 341.233565 99.359196 
L 343.836007 99.382942 
L 344.161312 98.92255 
L 344.486617 93.415087 
L 344.811922 99.400996 
L 345.137227 98.960323 
L 345.462532 99.368353 
L 345.787837 97.057373 
L 346.113143 96.422804 
L 346.763753 97.235939 
L 347.089058 97.620384 
L 347.414363 96.705964 
L 347.739668 97.889363 
L 348.064974 95.627951 
L 348.390279 98.925601 
L 348.715584 100.237102 
L 349.040889 98.721384 
L 349.366194 89.805718 
L 349.691499 90.831055 
L 350.016805 95.068945 
L 350.34211 96.511026 
L 350.667415 98.886473 
L 350.99272 100.370298 
L 351.64333 102.165494 
L 351.968635 105.098222 
L 352.293941 106.642734 
L 352.944551 92.036981 
L 353.269856 96.109154 
L 353.595161 96.619083 
L 353.920466 98.508086 
L 354.245772 99.101841 
L 354.571077 100.494252 
L 354.896382 100.858633 
L 355.221687 102.613425 
L 355.546992 102.356301 
L 355.872297 104.624504 
L 356.197602 103.903437 
L 356.522908 103.476809 
L 356.848213 94.09674 
L 357.173518 94.777016 
L 357.498823 97.234628 
L 357.824128 98.364252 
L 358.149433 133.471896 
L 358.474739 99.394696 
L 361.07718 99.303654 
L 361.402485 98.25753 
L 362.053095 99.37698 
L 364.330231 99.363441 
L 364.655537 103.377049 
L 364.980842 98.73386 
L 365.306147 98.902851 
L 365.631452 98.801858 
L 367.583283 99.739469 
L 367.908588 99.675263 
L 368.559198 101.730201 
L 368.884504 99.445292 
L 369.209809 99.305386 
L 369.535114 98.879969 
L 370.511029 99.4524 
L 373.438776 99.44975 
L 374.739996 99.460096 
L 375.065302 98.783942 
L 375.715912 98.420246 
L 376.691827 99.086054 
L 377.017132 99.307023 
L 377.342438 99.973849 
L 377.667743 98.679126 
L 377.993048 98.589534 
L 378.318353 98.991124 
L 379.944879 99.608506 
L 380.270184 99.905679 
L 380.920794 99.926571 
L 381.246099 100.331215 
L 381.571405 91.12686 
L 381.89671 100.465411 
L 382.222015 101.902063 
L 382.54732 97.4662 
L 383.848541 99.396134 
L 384.499151 99.362545 
L 384.824456 99.957941 
L 385.149761 100.263999 
L 385.475066 100.072736 
L 385.800372 100.728341 
L 386.125677 95.453577 
L 386.450982 106.500727 
L 386.776287 100.629633 
L 387.426897 97.795389 
L 387.752203 98.535354 
L 388.077508 98.217377 
L 388.402813 98.882277 
L 389.053423 99.641869 
L 389.378728 100.82722 
L 389.704034 100.434236 
L 390.029339 100.232156 
L 390.679949 100.689705 
L 391.005254 100.332168 
L 391.330559 99.40932 
L 393.607695 99.394127 
L 394.258306 99.40361 
L 394.583611 98.384799 
L 394.908916 98.777508 
L 395.234221 99.367363 
L 396.860747 99.394696 
L 398.487273 99.394696 
L 398.487273 99.394696 
" style="fill:none;stroke:#ff0000;stroke-dasharray:5.55,2.4;stroke-dashoffset:0;stroke-width:1.5;"/>
   </g>
   <g id="line2d_13">
    <path clip-path="url(#p234768e53a)" d="M 73.832727 99.394696 
L 82.615966 99.394696 
L 82.941272 129.419477 
L 83.266577 99.394696 
L 85.218408 99.394696 
L 85.543713 68.968247 
L 85.869018 92.064231 
L 86.194323 99.394696 
L 86.519628 99.394696 
L 86.844934 99.796365 
L 87.170239 101.202208 
L 87.820849 100.298452 
L 88.146154 102.105964 
L 88.796764 98.993026 
L 89.77268 100.298452 
L 90.097985 99.394696 
L 90.42329 99.394696 
L 90.748595 97.874122 
L 91.073901 98.29358 
L 91.399206 98.489994 
L 91.724511 101.07523 
L 92.049816 100.803478 
L 92.375121 98.615881 
L 93.025731 101.806453 
L 93.351037 99.394696 
L 94.977562 99.394696 
L 95.302868 99.193861 
L 95.628173 98.792192 
L 95.953478 97.888436 
L 96.278783 99.093444 
L 96.604088 99.394696 
L 98.230614 99.394696 
L 98.555919 97.933994 
L 98.881224 99.036839 
L 99.206529 97.81859 
L 99.531835 99.062135 
L 99.85714 99.004855 
L 100.182445 104.400585 
L 100.50775 98.219086 
L 100.833055 97.901741 
L 101.15836 99.001936 
L 101.483666 96.789897 
L 102.134276 104.748968 
L 102.459581 103.229885 
L 102.784886 102.970711 
L 103.110191 99.659111 
L 103.435496 99.647486 
L 103.760802 100.309716 
L 104.086107 99.399119 
L 104.736717 99.395152 
L 105.062022 100.49945 
L 105.387327 102.106065 
L 105.712633 99.595551 
L 106.037938 99.394704 
L 106.363243 99.394696 
L 106.688548 94.675083 
L 107.013853 93.168822 
L 107.339158 94.172995 
L 107.664463 98.089271 
L 107.989769 99.394696 
L 108.315074 99.394696 
L 108.640379 110.239766 
L 108.965684 99.394696 
L 109.616294 99.294279 
L 109.9416 98.993027 
L 110.266905 99.394696 
L 110.59221 99.193861 
L 111.24282 98.189688 
L 112.218736 97.988854 
L 112.544041 99.695948 
L 112.869346 100.599704 
L 113.194651 102.808882 
L 113.519956 97.933996 
L 113.845261 99.036838 
L 114.495872 99.466342 
L 114.821177 100.110819 
L 115.146482 101.659759 
L 115.471787 101.329253 
L 115.797092 101.610882 
L 116.122398 98.779936 
L 116.447703 98.891588 
L 116.773008 99.15496 
L 117.098313 97.860759 
L 117.423618 99.092854 
L 117.748923 99.205508 
L 118.074228 99.751127 
L 118.399534 99.637604 
L 118.724839 100.112948 
L 119.050144 99.139004 
L 119.375449 100.944767 
L 119.700754 98.956012 
L 120.026059 98.768746 
L 120.351365 99.171907 
L 121.001975 100.839075 
L 121.32728 99.52393 
L 121.652585 99.472238 
L 121.97789 98.187853 
L 122.303195 98.656547 
L 122.953806 98.166242 
L 123.279111 99.124356 
L 123.604416 99.4137 
L 123.929721 100.301344 
L 124.255026 99.462546 
L 124.580332 99.412546 
L 124.905637 98.835179 
L 125.230942 98.503364 
L 125.556247 98.591815 
L 125.881552 98.245987 
L 126.206857 99.105091 
L 126.532163 99.615394 
L 126.857468 98.784494 
L 127.182773 96.617049 
L 127.508078 98.295472 
L 127.833383 99.2959 
L 128.158688 99.394939 
L 128.483993 98.630869 
L 128.809299 98.503364 
L 129.134604 98.025455 
L 129.459909 98.792325 
L 129.785214 99.117136 
L 130.110519 99.071036 
L 130.435824 98.503364 
L 130.76113 98.591814 
L 131.41174 97.881408 
L 132.06235 101.632847 
L 132.387655 101.828125 
L 132.71296 98.888417 
L 133.363571 97.824621 
L 133.688876 98.721345 
L 134.014181 100.872409 
L 134.339486 98.034412 
L 134.664791 98.994671 
L 134.990097 102.025216 
L 135.315402 99.211781 
L 135.640707 98.850875 
L 135.966012 100.566759 
L 136.291317 100.146141 
L 136.616622 99.965263 
L 136.941927 108.06115 
L 137.267233 102.110553 
L 137.592538 102.207191 
L 137.917843 100.499415 
L 138.243148 100.19807 
L 138.568453 100.800546 
L 138.893758 98.17326 
L 139.219064 98.596738 
L 139.544369 96.374581 
L 139.869674 99.726859 
L 140.194979 98.937241 
L 140.520284 98.958909 
L 140.845589 99.435788 
L 141.170895 97.838057 
L 141.4962 99.380811 
L 141.821505 98.004106 
L 142.14681 99.296966 
L 142.472115 99.89727 
L 143.122725 98.792213 
L 143.448031 99.394696 
L 143.773336 98.630832 
L 144.098641 97.19148 
L 144.423946 98.582421 
L 144.749251 97.57959 
L 145.074556 98.92352 
L 145.399862 97.155646 
L 145.725167 99.073347 
L 146.050472 96.836923 
L 146.701082 104.984514 
L 147.026387 101.386792 
L 147.351692 101.906105 
L 147.676998 99.424513 
L 148.978218 99.394752 
L 149.303523 101.001381 
L 149.628829 99.896782 
L 149.954134 100.700121 
L 150.279439 98.630832 
L 150.604744 98.597323 
L 150.930049 97.973665 
L 151.255354 98.792324 
L 151.58066 99.236228 
L 151.905965 97.571338 
L 152.23127 98.915014 
L 152.556575 97.702444 
L 153.207185 100.155621 
L 153.53249 97.794071 
L 153.857796 98.882136 
L 154.183101 100.987045 
L 154.508406 97.750101 
L 154.833711 99.217208 
L 155.159016 98.280241 
L 155.484321 98.157455 
L 155.809627 100.853148 
L 156.134932 100.59451 
L 156.785542 99.615207 
L 157.436152 99.42338 
L 157.761457 98.796671 
L 158.086763 98.643701 
L 158.737373 99.780278 
L 159.387983 99.062135 
L 159.713288 100.17992 
L 160.038594 98.073423 
L 160.363899 98.999388 
L 160.689204 101.462981 
L 161.014509 100.982975 
L 161.665119 99.405797 
L 161.990424 96.789897 
L 162.31573 98.829969 
L 162.641035 99.193416 
L 162.96634 97.492818 
L 163.291645 98.82997 
L 163.61695 99.474182 
L 163.942255 100.399002 
L 164.267561 99.864924 
L 164.918171 99.490103 
L 166.219392 99.396433 
L 167.845917 99.394711 
L 168.171222 98.785409 
L 168.496528 98.643701 
L 168.821833 99.036838 
L 169.147138 98.491149 
L 169.797748 98.991154 
L 170.123053 98.518374 
L 170.448359 98.388043 
L 170.773664 98.915015 
L 171.098969 98.086735 
L 171.424274 98.417583 
L 171.749579 98.911541 
L 172.074884 97.75977 
L 172.400189 104.133319 
L 172.725495 106.254075 
L 173.0508 100.62421 
L 173.376105 99.935446 
L 173.70141 99.537111 
L 174.026715 99.459097 
L 174.35202 99.215176 
L 174.677326 99.799879 
L 175.002631 99.396804 
L 175.653241 101.001519 
L 175.978546 102.964083 
L 176.303851 99.538176 
L 176.629156 99.40834 
L 178.255682 99.294297 
L 178.580987 99.69595 
L 178.906293 94.172995 
L 179.231598 96.080925 
L 179.556903 98.691775 
L 179.882208 99.394696 
L 180.207513 99.394696 
L 180.532818 99.695948 
L 181.834039 99.394696 
L 182.484649 99.394696 
L 182.809954 98.034412 
L 183.13526 99.036839 
L 183.460565 98.389652 
L 183.78587 99.193994 
L 184.111175 97.900264 
L 184.43648 98.539864 
L 184.761785 97.417237 
L 185.087091 103.640837 
L 185.412396 98.462692 
L 185.737701 109.838388 
L 186.063006 102.324152 
L 186.388311 102.825796 
L 186.713616 99.830875 
L 187.038921 100.400754 
L 187.364227 99.689502 
L 187.689532 99.572671 
L 188.340142 97.389945 
L 188.665447 98.592414 
L 189.641363 98.293581 
L 189.966668 98.495528 
L 190.291973 92.478676 
L 190.617278 99.796365 
L 190.942583 100.800539 
L 191.267889 99.695948 
L 191.593194 99.394696 
L 191.918499 99.796365 
L 192.243804 99.495113 
L 192.569109 99.59553 
L 192.894414 99.394696 
L 193.219719 98.792192 
L 193.545025 99.394696 
L 193.87033 99.394696 
L 194.195635 99.695948 
L 194.52094 99.394696 
L 194.846245 99.394696 
L 195.17155 98.273676 
L 195.496856 98.860518 
L 195.822161 98.428203 
L 196.147466 98.49553 
L 196.472771 99.158147 
L 196.798076 97.571337 
L 197.123381 99.015432 
L 197.448686 98.505783 
L 197.773992 99.122057 
L 198.099297 97.75977 
L 198.424602 98.26948 
L 198.749907 99.295077 
L 199.075212 98.151004 
L 199.725823 99.141249 
L 200.051128 97.651147 
L 200.376433 99.935446 
L 200.701738 99.567508 
L 201.352348 99.215176 
L 201.677653 101.004887 
L 202.002959 109.940623 
L 202.328264 101.001928 
L 202.653569 99.896928 
L 202.978874 99.896814 
L 203.304179 99.394715 
L 203.629484 99.394696 
L 203.95479 104.616396 
L 204.280095 99.394696 
L 204.6054 99.394696 
L 204.930705 99.193861 
L 205.25601 96.98468 
L 205.581315 100.398869 
L 205.906621 99.394696 
L 207.207841 99.394696 
L 207.533146 99.093444 
L 207.858451 99.193861 
L 208.183757 100.499286 
L 208.509062 101.202207 
L 208.834367 97.486766 
L 209.159672 89.754633 
L 209.810282 97.888436 
L 210.135588 99.093444 
L 210.460893 99.394696 
L 211.111503 99.394696 
L 211.436808 103.00972 
L 211.762113 109.436428 
L 212.087418 108.833923 
L 212.412724 97.988853 
L 212.738029 97.788019 
L 213.063334 93.670907 
L 213.713944 96.683428 
L 214.039249 99.394696 
L 215.015165 99.495113 
L 215.34047 105.319317 
L 215.665775 107.5285 
L 215.99108 98.276814 
L 216.316385 98.756964 
L 216.641691 102.619205 
L 216.966996 111.275055 
L 217.292301 102.584398 
L 217.617606 99.498319 
L 217.942911 98.92552 
L 218.268216 98.873241 
L 218.593522 99.511339 
L 218.918827 97.379818 
L 219.244132 98.25127 
L 219.569437 97.167318 
L 219.894742 98.371802 
L 220.220047 99.1256 
L 220.545353 96.789897 
L 220.870658 98.709438 
L 221.195963 99.214422 
L 221.846573 96.978233 
L 222.171878 98.066412 
L 222.497183 97.406752 
L 222.822489 99.098811 
L 223.147794 99.396106 
L 223.473099 99.395068 
L 223.798404 98.892708 
L 224.449014 92.967995 
L 225.099625 98.892609 
L 225.42493 99.394696 
L 225.750235 99.394696 
L 226.400845 99.093444 
L 226.72615 98.49094 
L 227.051456 99.394696 
L 227.376761 101.704294 
L 228.027371 99.394696 
L 228.677981 99.394696 
L 229.328592 98.892609 
L 229.653897 99.294279 
L 229.979202 99.193861 
L 230.304507 99.394696 
L 230.629812 99.394696 
L 230.955118 98.034412 
L 231.280423 99.036838 
L 231.605728 97.617756 
L 231.931033 98.689903 
L 232.256338 97.009635 
L 232.581643 98.915015 
L 232.906948 97.50161 
L 233.232254 99.822273 
L 233.557559 99.388162 
L 233.882864 102.468797 
L 234.208169 98.251422 
L 234.533474 99.556694 
L 234.858779 98.801308 
L 235.184085 97.68789 
L 235.50939 98.006206 
L 235.834695 97.649684 
L 236.16 97.969736 
L 236.485305 98.955108 
L 236.81061 105.982639 
L 237.135915 99.858865 
L 237.461221 99.68487 
L 237.786526 99.716664 
L 238.111831 100.057307 
L 238.437136 99.496427 
L 238.762441 98.283901 
L 239.087746 99.76271 
L 239.413052 99.306745 
L 239.738357 99.872933 
L 240.063662 98.185977 
L 240.388967 99.452665 
L 240.714272 99.403836 
L 241.039577 99.095956 
L 241.364882 99.495732 
L 241.690188 100.901053 
L 242.015493 105.118512 
L 242.340798 99.3947 
L 242.666103 99.495114 
L 242.991408 100.097617 
L 243.316713 101.804712 
L 243.642019 99.394696 
L 243.967324 98.273676 
L 244.292629 98.860518 
L 244.617934 98.591813 
L 244.943239 100.323938 
L 245.268544 99.763368 
L 246.24446 99.406667 
L 247.870986 99.394702 
L 248.196291 99.896783 
L 248.521596 102.808885 
L 248.846901 99.695948 
L 249.172206 98.630832 
L 249.822817 99.787431 
L 250.148122 97.860758 
L 250.473427 98.991155 
L 250.798732 99.149928 
L 251.124037 101.992442 
L 251.449342 100.751695 
L 251.774647 97.901741 
L 252.099953 99.001936 
L 252.425258 96.789897 
L 252.750563 98.709436 
L 253.075868 97.267734 
L 253.726478 99.928936 
L 254.051784 97.994905 
L 254.377089 103.228216 
L 254.702394 98.673576 
L 255.027699 98.572636 
L 255.353004 99.193416 
L 255.678309 96.789897 
L 256.003615 98.709437 
L 256.32892 99.848634 
L 256.654225 99.514445 
L 256.97953 99.834761 
L 257.304835 99.510466 
L 257.955445 99.406656 
L 258.606056 99.395868 
L 258.931361 100.700492 
L 259.256666 101.50354 
L 259.581971 104.214766 
L 260.232582 98.691776 
L 260.557887 99.394696 
L 261.208497 99.394696 
L 261.533802 100.599703 
L 261.859107 99.695948 
L 262.184412 101.80471 
L 262.509718 99.394696 
L 265.437464 99.394696 
L 265.762769 98.273678 
L 266.088074 98.860517 
L 266.413379 98.692232 
L 266.738685 98.367078 
L 267.06399 99.32519 
L 267.389295 100.985526 
L 267.7146 100.120023 
L 268.039905 97.602028 
L 268.690516 99.222489 
L 269.015821 97.191566 
L 269.341126 98.779276 
L 269.666431 97.476122 
L 269.991736 98.431298 
L 270.317041 98.935625 
L 270.642347 97.877882 
L 270.967652 98.068645 
L 271.292957 98.792175 
L 271.618262 97.006056 
L 271.943567 99.743265 
L 272.268872 99.689505 
L 272.594177 99.458611 
L 273.570093 99.396433 
L 273.895398 100.901784 
L 274.220703 99.997418 
L 274.546008 102.206438 
L 274.871314 101.503475 
L 275.196619 103.009722 
L 275.521924 102.306798 
L 275.847229 99.796365 
L 276.172534 95.076751 
L 276.497839 96.181341 
L 276.823144 95.378003 
L 277.473755 97.988853 
L 277.79906 97.788019 
L 278.124365 98.993026 
L 278.44967 99.394696 
L 279.100281 99.394696 
L 279.425586 99.59553 
L 279.750891 100.097617 
L 280.076196 99.394696 
L 283.003942 99.394696 
L 283.329248 103.210554 
L 283.654553 99.394696 
L 283.979858 99.394696 
L 284.305163 98.377231 
L 284.630468 99.861555 
L 284.955773 103.248235 
L 285.281079 99.198452 
L 285.606384 99.158147 
L 285.931689 97.571337 
L 286.256994 98.915015 
L 286.582299 97.50161 
L 286.907604 98.519553 
L 287.558215 99.602475 
L 287.88352 99.825531 
L 288.208825 99.462622 
L 288.859435 99.399397 
L 289.18474 100.199271 
L 289.510046 99.997525 
L 289.835351 99.394781 
L 290.160656 99.394718 
L 290.485961 98.034412 
L 290.811266 99.036838 
L 291.136571 98.0884 
L 291.461876 98.792325 
L 292.112487 98.173187 
L 292.437792 99.374599 
L 292.763097 97.768649 
L 293.088402 99.210088 
L 293.413707 97.982319 
L 294.389623 100.345768 
L 294.714928 100.593261 
L 295.040233 100.376008 
L 295.365538 99.920201 
L 295.690844 100.201181 
L 296.016149 99.395621 
L 296.341454 99.394859 
L 296.666759 102.005572 
L 296.992064 101.804718 
L 297.317369 99.495115 
L 297.642674 99.294279 
L 297.96798 97.773705 
L 298.293285 99.154959 
L 298.61859 97.860759 
L 298.943895 98.931539 
L 299.2692 97.664325 
L 299.594505 98.846489 
L 299.919811 98.290165 
L 300.245116 101.0176 
L 300.570421 97.323317 
L 300.895726 99.211523 
L 301.221031 99.795682 
L 301.546336 100.007461 
L 301.871641 99.524108 
L 302.522252 99.199112 
L 303.172862 102.708614 
L 303.498167 99.394739 
L 303.823472 98.273683 
L 304.148778 98.797574 
L 304.474083 97.75014 
L 304.799388 99.059604 
L 305.124693 97.511721 
L 305.449998 99.360577 
L 305.775303 102.749558 
L 306.100608 100.383164 
L 306.751219 99.408338 
L 307.401829 99.696655 
L 307.727134 101.704422 
L 308.052439 98.273685 
L 308.377745 98.797573 
L 308.70305 98.019425 
L 309.028355 99.433626 
L 309.35366 101.508741 
L 310.00427 99.570957 
L 310.329576 100.613428 
L 310.654881 99.39654 
L 310.980186 99.395238 
L 311.305491 98.785492 
L 311.630796 98.549623 
L 311.956101 99.957088 
L 312.281406 100.454561 
L 312.606712 99.568111 
L 312.932017 99.420741 
L 313.257322 107.956604 
L 313.582627 99.394696 
L 314.233237 99.394696 
L 314.558543 96.884263 
L 314.883848 99.394696 
L 315.209153 99.394696 
L 315.534458 99.796365 
L 316.185068 101.905129 
L 316.510373 99.59553 
L 316.835679 99.394696 
L 317.160984 98.691775 
L 317.486289 99.394696 
L 317.811594 99.394696 
L 318.136899 97.587186 
L 318.462204 98.290106 
L 318.78751 99.394696 
L 319.43812 99.394696 
L 319.763425 98.630832 
L 320.08873 98.637987 
L 320.414035 99.14426 
L 320.73934 98.247342 
L 321.064646 98.675552 
L 321.389951 98.559875 
L 321.715256 98.789713 
L 322.040561 99.316683 
L 322.365866 101.317468 
L 322.691171 98.416431 
L 323.016477 97.359748 
L 323.341782 98.225674 
L 323.667087 97.974525 
L 323.992392 98.051353 
L 324.317697 99.53813 
L 324.643002 99.670206 
L 324.968308 100.002363 
L 325.293613 99.692612 
L 325.944223 99.910451 
L 326.269528 100.000796 
L 326.594833 99.496059 
L 326.920138 101.804961 
L 327.245444 100.90102 
L 327.570749 99.495131 
L 328.221359 99.394696 
L 329.197275 99.394696 
L 329.52258 99.9972 
L 329.847885 99.9972 
L 330.498495 99.394696 
L 330.8238 99.394696 
L 331.149105 99.59553 
L 331.474411 99.495113 
L 331.799716 99.796365 
L 332.125021 99.394696 
L 332.775631 99.394696 
L 333.100936 99.093444 
L 333.426242 98.490939 
L 333.751547 98.785406 
L 334.076852 98.37603 
L 334.402157 98.575269 
L 334.727462 99.371251 
L 335.052767 101.018915 
L 335.378073 101.788213 
L 335.703378 101.770273 
L 336.028683 98.283972 
L 336.353988 96.829149 
L 336.679293 99.394696 
L 345.462532 99.294279 
L 345.787837 98.792191 
L 346.113143 99.394696 
L 347.414363 99.394696 
L 347.739668 99.193861 
L 348.064974 96.98468 
L 348.390279 95.880089 
L 348.715584 98.591357 
L 349.040889 99.394696 
L 349.366194 99.394696 
L 349.691499 101.704294 
L 350.016805 101.403043 
L 350.34211 103.110137 
L 350.99272 98.034412 
L 351.318025 99.036838 
L 351.64333 98.755176 
L 351.968635 99.672504 
L 352.293941 99.37274 
L 352.619246 102.262865 
L 352.944551 101.205147 
L 353.269856 97.501611 
L 353.595161 98.519553 
L 353.920466 98.33949 
L 354.245772 98.754274 
L 354.571077 98.935625 
L 354.896382 96.22517 
L 355.221687 99.125597 
L 355.546992 106.356424 
L 355.872297 99.394696 
L 356.848213 99.294279 
L 357.173518 98.792193 
L 357.498823 99.093444 
L 357.824128 99.093444 
L 358.149433 99.394696 
L 358.800044 99.394696 
L 359.125349 100.700121 
L 359.450654 99.394696 
L 359.775959 99.695948 
L 360.101264 99.294279 
L 360.751875 99.193861 
L 361.07718 99.394696 
L 362.703706 99.394696 
L 363.029011 99.59553 
L 363.354316 99.394696 
L 364.330231 99.394696 
L 364.655537 100.900955 
L 364.980842 99.294279 
L 365.306147 98.993027 
L 365.631452 99.193861 
L 365.956757 99.193861 
L 366.282062 99.394696 
L 366.607367 100.298451 
L 366.932673 98.993029 
L 367.257978 95.679255 
L 367.583283 97.085098 
L 367.908588 85.035018 
L 368.233893 96.080924 
L 368.559198 99.093444 
L 368.884504 99.394696 
L 369.860419 99.394696 
L 370.185724 99.796365 
L 370.511029 102.306799 
L 370.836334 103.913476 
L 371.16164 99.294279 
L 371.486945 98.390522 
L 371.81225 100.599704 
L 372.137555 100.700121 
L 372.46286 99.394696 
L 372.788165 109.235593 
L 373.113471 99.093444 
L 373.438776 99.394696 
L 380.270184 99.394696 
L 380.595489 83.528759 
L 380.920794 90.859223 
L 381.246099 150.306281 
L 381.571405 156.933818 
L 381.89671 107.428083 
L 382.222015 96.783842 
L 382.54732 97.587179 
L 382.872625 99.193855 
L 383.19793 96.783842 
L 383.523236 90.557971 
L 383.848541 88.44921 
L 384.173846 90.758808 
L 384.499151 89.654213 
L 385.149761 77.10205 
L 385.475066 83.528758 
L 385.800372 93.269239 
L 386.125677 93.670909 
L 386.450982 97.185515 
L 387.101592 98.792193 
L 387.426897 99.495113 
L 388.077508 112.147696 
L 388.402813 101.704295 
L 388.728118 101.302625 
L 389.053423 100.499286 
L 389.378728 99.394696 
L 389.704034 99.495114 
L 390.029339 99.193861 
L 390.354644 98.691775 
L 390.679949 99.394696 
L 391.330559 99.294279 
L 391.655864 99.193861 
L 391.98117 98.591358 
L 392.306475 98.892609 
L 392.63178 98.792192 
L 392.957085 99.294279 
L 393.28239 99.394696 
L 394.258306 99.193861 
L 394.583611 98.273677 
L 394.908916 98.654988 
L 395.234221 97.634151 
L 395.559526 98.341441 
L 395.884831 98.43092 
L 396.535442 101.127699 
L 396.860747 112.005796 
L 397.186052 99.093444 
L 397.511357 99.294279 
L 397.836662 99.093444 
L 398.161968 99.093444 
L 398.487273 98.591357 
L 398.487273 98.591357 
" style="fill:none;stroke:#008000;stroke-linecap:square;stroke-width:1.5;"/>
   </g>
   <g id="patch_3">
    <path d="M 57.6 162.432 
L 57.6 41.472 
" style="fill:none;stroke:#000000;stroke-linecap:square;stroke-linejoin:miter;stroke-width:0.8;"/>
   </g>
   <g id="patch_4">
    <path d="M 414.72 162.432 
L 414.72 41.472 
" style="fill:none;stroke:#000000;stroke-linecap:square;stroke-linejoin:miter;stroke-width:0.8;"/>
   </g>
   <g id="patch_5">
    <path d="M 57.6 162.432 
L 414.72 162.432 
" style="fill:none;stroke:#000000;stroke-linecap:square;stroke-linejoin:miter;stroke-width:0.8;"/>
   </g>
   <g id="patch_6">
    <path d="M 57.6 41.472 
L 414.72 41.472 
" style="fill:none;stroke:#000000;stroke-linecap:square;stroke-linejoin:miter;stroke-width:0.8;"/>
   </g>
   <g id="text_13">
    <!-- Pitch-Yaw Diff Comparison -->
    <defs>
     <path d="M 4.890625 31.390625 
L 31.203125 31.390625 
L 31.203125 23.390625 
L 4.890625 23.390625 
z
" id="DejaVuSans-45"/>
     <path d="M -0.203125 72.90625 
L 10.40625 72.90625 
L 30.609375 42.921875 
L 50.6875 72.90625 
L 61.28125 72.90625 
L 35.5 34.71875 
L 35.5 0 
L 25.59375 0 
L 25.59375 34.71875 
z
" id="DejaVuSans-89"/>
     <path d="M 34.28125 27.484375 
Q 23.390625 27.484375 19.1875 25 
Q 14.984375 22.515625 14.984375 16.5 
Q 14.984375 11.71875 18.140625 8.90625 
Q 21.296875 6.109375 26.703125 6.109375 
Q 34.1875 6.109375 38.703125 11.40625 
Q 43.21875 16.703125 43.21875 25.484375 
L 43.21875 27.484375 
z
M 52.203125 31.203125 
L 52.203125 0 
L 43.21875 0 
L 43.21875 8.296875 
Q 40.140625 3.328125 35.546875 0.953125 
Q 30.953125 -1.421875 24.3125 -1.421875 
Q 15.921875 -1.421875 10.953125 3.296875 
Q 6 8.015625 6 15.921875 
Q 6 25.140625 12.171875 29.828125 
Q 18.359375 34.515625 30.609375 34.515625 
L 43.21875 34.515625 
L 43.21875 35.40625 
Q 43.21875 41.609375 39.140625 45 
Q 35.0625 48.390625 27.6875 48.390625 
Q 23 48.390625 18.546875 47.265625 
Q 14.109375 46.140625 10.015625 43.890625 
L 10.015625 52.203125 
Q 14.9375 54.109375 19.578125 55.046875 
Q 24.21875 56 28.609375 56 
Q 40.484375 56 46.34375 49.84375 
Q 52.203125 43.703125 52.203125 31.203125 
z
" id="DejaVuSans-97"/>
     <path d="M 4.203125 54.6875 
L 13.1875 54.6875 
L 24.421875 12.015625 
L 35.59375 54.6875 
L 46.1875 54.6875 
L 57.421875 12.015625 
L 68.609375 54.6875 
L 77.59375 54.6875 
L 63.28125 0 
L 52.6875 0 
L 40.921875 44.828125 
L 29.109375 0 
L 18.5 0 
z
" id="DejaVuSans-119"/>
     <path d="M 64.40625 67.28125 
L 64.40625 56.890625 
Q 59.421875 61.53125 53.78125 63.8125 
Q 48.140625 66.109375 41.796875 66.109375 
Q 29.296875 66.109375 22.65625 58.46875 
Q 16.015625 50.828125 16.015625 36.375 
Q 16.015625 21.96875 22.65625 14.328125 
Q 29.296875 6.6875 41.796875 6.6875 
Q 48.140625 6.6875 53.78125 8.984375 
Q 59.421875 11.28125 64.40625 15.921875 
L 64.40625 5.609375 
Q 59.234375 2.09375 53.4375 0.328125 
Q 47.65625 -1.421875 41.21875 -1.421875 
Q 24.65625 -1.421875 15.125 8.703125 
Q 5.609375 18.84375 5.609375 36.375 
Q 5.609375 53.953125 15.125 64.078125 
Q 24.65625 74.21875 41.21875 74.21875 
Q 47.75 74.21875 53.53125 72.484375 
Q 59.328125 70.75 64.40625 67.28125 
z
" id="DejaVuSans-67"/>
     <path d="M 30.609375 48.390625 
Q 23.390625 48.390625 19.1875 42.75 
Q 14.984375 37.109375 14.984375 27.296875 
Q 14.984375 17.484375 19.15625 11.84375 
Q 23.34375 6.203125 30.609375 6.203125 
Q 37.796875 6.203125 41.984375 11.859375 
Q 46.1875 17.53125 46.1875 27.296875 
Q 46.1875 37.015625 41.984375 42.703125 
Q 37.796875 48.390625 30.609375 48.390625 
z
M 30.609375 56 
Q 42.328125 56 49.015625 48.375 
Q 55.71875 40.765625 55.71875 27.296875 
Q 55.71875 13.875 49.015625 6.21875 
Q 42.328125 -1.421875 30.609375 -1.421875 
Q 18.84375 -1.421875 12.171875 6.21875 
Q 5.515625 13.875 5.515625 27.296875 
Q 5.515625 40.765625 12.171875 48.375 
Q 18.84375 56 30.609375 56 
z
" id="DejaVuSans-111"/>
     <path d="M 52 44.1875 
Q 55.375 50.25 60.0625 53.125 
Q 64.75 56 71.09375 56 
Q 79.640625 56 84.28125 50.015625 
Q 88.921875 44.046875 88.921875 33.015625 
L 88.921875 0 
L 79.890625 0 
L 79.890625 32.71875 
Q 79.890625 40.578125 77.09375 44.375 
Q 74.3125 48.1875 68.609375 48.1875 
Q 61.625 48.1875 57.5625 43.546875 
Q 53.515625 38.921875 53.515625 30.90625 
L 53.515625 0 
L 44.484375 0 
L 44.484375 32.71875 
Q 44.484375 40.625 41.703125 44.40625 
Q 38.921875 48.1875 33.109375 48.1875 
Q 26.21875 48.1875 22.15625 43.53125 
Q 18.109375 38.875 18.109375 30.90625 
L 18.109375 0 
L 9.078125 0 
L 9.078125 54.6875 
L 18.109375 54.6875 
L 18.109375 46.1875 
Q 21.1875 51.21875 25.484375 53.609375 
Q 29.78125 56 35.6875 56 
Q 41.65625 56 45.828125 52.96875 
Q 50 49.953125 52 44.1875 
z
" id="DejaVuSans-109"/>
     <path d="M 18.109375 8.203125 
L 18.109375 -20.796875 
L 9.078125 -20.796875 
L 9.078125 54.6875 
L 18.109375 54.6875 
L 18.109375 46.390625 
Q 20.953125 51.265625 25.265625 53.625 
Q 29.59375 56 35.59375 56 
Q 45.5625 56 51.78125 48.09375 
Q 58.015625 40.1875 58.015625 27.296875 
Q 58.015625 14.40625 51.78125 6.484375 
Q 45.5625 -1.421875 35.59375 -1.421875 
Q 29.59375 -1.421875 25.265625 0.953125 
Q 20.953125 3.328125 18.109375 8.203125 
z
M 48.6875 27.296875 
Q 48.6875 37.203125 44.609375 42.84375 
Q 40.53125 48.484375 33.40625 48.484375 
Q 26.265625 48.484375 22.1875 42.84375 
Q 18.109375 37.203125 18.109375 27.296875 
Q 18.109375 17.390625 22.1875 11.75 
Q 26.265625 6.109375 33.40625 6.109375 
Q 40.53125 6.109375 44.609375 11.75 
Q 48.6875 17.390625 48.6875 27.296875 
z
" id="DejaVuSans-112"/>
     <path d="M 41.109375 46.296875 
Q 39.59375 47.171875 37.8125 47.578125 
Q 36.03125 48 33.890625 48 
Q 26.265625 48 22.1875 43.046875 
Q 18.109375 38.09375 18.109375 28.8125 
L 18.109375 0 
L 9.078125 0 
L 9.078125 54.6875 
L 18.109375 54.6875 
L 18.109375 46.1875 
Q 20.953125 51.171875 25.484375 53.578125 
Q 30.03125 56 36.53125 56 
Q 37.453125 56 38.578125 55.875 
Q 39.703125 55.765625 41.0625 55.515625 
z
" id="DejaVuSans-114"/>
     <path d="M 44.28125 53.078125 
L 44.28125 44.578125 
Q 40.484375 46.53125 36.375 47.5 
Q 32.28125 48.484375 27.875 48.484375 
Q 21.1875 48.484375 17.84375 46.4375 
Q 14.5 44.390625 14.5 40.28125 
Q 14.5 37.15625 16.890625 35.375 
Q 19.28125 33.59375 26.515625 31.984375 
L 29.59375 31.296875 
Q 39.15625 29.25 43.1875 25.515625 
Q 47.21875 21.78125 47.21875 15.09375 
Q 47.21875 7.46875 41.1875 3.015625 
Q 35.15625 -1.421875 24.609375 -1.421875 
Q 20.21875 -1.421875 15.453125 -0.5625 
Q 10.6875 0.296875 5.421875 2 
L 5.421875 11.28125 
Q 10.40625 8.6875 15.234375 7.390625 
Q 20.0625 6.109375 24.8125 6.109375 
Q 31.15625 6.109375 34.5625 8.28125 
Q 37.984375 10.453125 37.984375 14.40625 
Q 37.984375 18.0625 35.515625 20.015625 
Q 33.0625 21.96875 24.703125 23.78125 
L 21.578125 24.515625 
Q 13.234375 26.265625 9.515625 29.90625 
Q 5.8125 33.546875 5.8125 39.890625 
Q 5.8125 47.609375 11.28125 51.796875 
Q 16.75 56 26.8125 56 
Q 31.78125 56 36.171875 55.265625 
Q 40.578125 54.546875 44.28125 53.078125 
z
" id="DejaVuSans-115"/>
     <path d="M 54.890625 33.015625 
L 54.890625 0 
L 45.90625 0 
L 45.90625 32.71875 
Q 45.90625 40.484375 42.875 44.328125 
Q 39.84375 48.1875 33.796875 48.1875 
Q 26.515625 48.1875 22.3125 43.546875 
Q 18.109375 38.921875 18.109375 30.90625 
L 18.109375 0 
L 9.078125 0 
L 9.078125 54.6875 
L 18.109375 54.6875 
L 18.109375 46.1875 
Q 21.34375 51.125 25.703125 53.5625 
Q 30.078125 56 35.796875 56 
Q 45.21875 56 50.046875 50.171875 
Q 54.890625 44.34375 54.890625 33.015625 
z
" id="DejaVuSans-110"/>
    </defs>
    <g transform="translate(156.78375 35.472)scale(0.12 -0.12)">
     <use xlink:href="#DejaVuSans-80"/>
     <use x="60.271484" xlink:href="#DejaVuSans-105"/>
     <use x="88.054688" xlink:href="#DejaVuSans-116"/>
     <use x="127.263672" xlink:href="#DejaVuSans-99"/>
     <use x="182.244141" xlink:href="#DejaVuSans-104"/>
     <use x="245.623047" xlink:href="#DejaVuSans-45"/>
     <use x="281.535156" xlink:href="#DejaVuSans-89"/>
     <use x="342.416016" xlink:href="#DejaVuSans-97"/>
     <use x="403.695312" xlink:href="#DejaVuSans-119"/>
     <use x="485.482422" xlink:href="#DejaVuSans-32"/>
     <use x="517.269531" xlink:href="#DejaVuSans-68"/>
     <use x="594.271484" xlink:href="#DejaVuSans-105"/>
     <use x="622.054688" xlink:href="#DejaVuSans-102"/>
     <use x="657.259766" xlink:href="#DejaVuSans-102"/>
     <use x="692.464844" xlink:href="#DejaVuSans-32"/>
     <use x="724.251953" xlink:href="#DejaVuSans-67"/>
     <use x="794.076172" xlink:href="#DejaVuSans-111"/>
     <use x="855.257812" xlink:href="#DejaVuSans-109"/>
     <use x="952.669922" xlink:href="#DejaVuSans-112"/>
     <use x="1016.146484" xlink:href="#DejaVuSans-97"/>
     <use x="1077.425781" xlink:href="#DejaVuSans-114"/>
     <use x="1118.539062" xlink:href="#DejaVuSans-105"/>
     <use x="1146.322266" xlink:href="#DejaVuSans-115"/>
     <use x="1198.421875" xlink:href="#DejaVuSans-111"/>
     <use x="1259.603516" xlink:href="#DejaVuSans-110"/>
    </g>
   </g>
  </g>
  <g id="axes_2">
   <g id="patch_7">
    <path d="M 57.6 307.584 
L 414.72 307.584 
L 414.72 186.624 
L 57.6 186.624 
z
" style="fill:#ffffff;"/>
   </g>
   <g id="matplotlib.axis_3">
    <g id="xtick_7">
     <g id="line2d_14">
      <g>
       <use style="stroke:#000000;stroke-width:0.8;" x="73.832727" xlink:href="#m70a3300909" y="307.584"/>
      </g>
     </g>
     <g id="text_14">
      <!-- 0 -->
      <g transform="translate(70.651477 322.182437)scale(0.1 -0.1)">
       <use xlink:href="#DejaVuSans-48"/>
      </g>
     </g>
    </g>
    <g id="xtick_8">
     <g id="line2d_15">
      <g>
       <use style="stroke:#000000;stroke-width:0.8;" x="138.893758" xlink:href="#m70a3300909" y="307.584"/>
      </g>
     </g>
     <g id="text_15">
      <!-- 200 -->
      <g transform="translate(129.350008 322.182437)scale(0.1 -0.1)">
       <use xlink:href="#DejaVuSans-50"/>
       <use x="63.623047" xlink:href="#DejaVuSans-48"/>
       <use x="127.246094" xlink:href="#DejaVuSans-48"/>
      </g>
     </g>
    </g>
    <g id="xtick_9">
     <g id="line2d_16">
      <g>
       <use style="stroke:#000000;stroke-width:0.8;" x="203.95479" xlink:href="#m70a3300909" y="307.584"/>
      </g>
     </g>
     <g id="text_16">
      <!-- 400 -->
      <g transform="translate(194.41104 322.182437)scale(0.1 -0.1)">
       <use xlink:href="#DejaVuSans-52"/>
       <use x="63.623047" xlink:href="#DejaVuSans-48"/>
       <use x="127.246094" xlink:href="#DejaVuSans-48"/>
      </g>
     </g>
    </g>
    <g id="xtick_10">
     <g id="line2d_17">
      <g>
       <use style="stroke:#000000;stroke-width:0.8;" x="269.015821" xlink:href="#m70a3300909" y="307.584"/>
      </g>
     </g>
     <g id="text_17">
      <!-- 600 -->
      <g transform="translate(259.472071 322.182437)scale(0.1 -0.1)">
       <use xlink:href="#DejaVuSans-54"/>
       <use x="63.623047" xlink:href="#DejaVuSans-48"/>
       <use x="127.246094" xlink:href="#DejaVuSans-48"/>
      </g>
     </g>
    </g>
    <g id="xtick_11">
     <g id="line2d_18">
      <g>
       <use style="stroke:#000000;stroke-width:0.8;" x="334.076852" xlink:href="#m70a3300909" y="307.584"/>
      </g>
     </g>
     <g id="text_18">
      <!-- 800 -->
      <g transform="translate(324.533102 322.182437)scale(0.1 -0.1)">
       <use xlink:href="#DejaVuSans-56"/>
       <use x="63.623047" xlink:href="#DejaVuSans-48"/>
       <use x="127.246094" xlink:href="#DejaVuSans-48"/>
      </g>
     </g>
    </g>
    <g id="xtick_12">
     <g id="line2d_19">
      <g>
       <use style="stroke:#000000;stroke-width:0.8;" x="399.137883" xlink:href="#m70a3300909" y="307.584"/>
      </g>
     </g>
     <g id="text_19">
      <!-- 1000 -->
      <g transform="translate(386.412883 322.182437)scale(0.1 -0.1)">
       <use xlink:href="#DejaVuSans-49"/>
       <use x="63.623047" xlink:href="#DejaVuSans-48"/>
       <use x="127.246094" xlink:href="#DejaVuSans-48"/>
       <use x="190.869141" xlink:href="#DejaVuSans-48"/>
      </g>
     </g>
    </g>
    <g id="text_20">
     <!-- Time -->
     <defs>
      <path d="M -0.296875 72.90625 
L 61.375 72.90625 
L 61.375 64.59375 
L 35.5 64.59375 
L 35.5 0 
L 25.59375 0 
L 25.59375 64.59375 
L -0.296875 64.59375 
z
" id="DejaVuSans-84"/>
      <path d="M 56.203125 29.59375 
L 56.203125 25.203125 
L 14.890625 25.203125 
Q 15.484375 15.921875 20.484375 11.0625 
Q 25.484375 6.203125 34.421875 6.203125 
Q 39.59375 6.203125 44.453125 7.46875 
Q 49.3125 8.734375 54.109375 11.28125 
L 54.109375 2.78125 
Q 49.265625 0.734375 44.1875 -0.34375 
Q 39.109375 -1.421875 33.890625 -1.421875 
Q 20.796875 -1.421875 13.15625 6.1875 
Q 5.515625 13.8125 5.515625 26.8125 
Q 5.515625 40.234375 12.765625 48.109375 
Q 20.015625 56 32.328125 56 
Q 43.359375 56 49.78125 48.890625 
Q 56.203125 41.796875 56.203125 29.59375 
z
M 47.21875 32.234375 
Q 47.125 39.59375 43.09375 43.984375 
Q 39.0625 48.390625 32.421875 48.390625 
Q 24.90625 48.390625 20.390625 44.140625 
Q 15.875 39.890625 15.1875 32.171875 
z
" id="DejaVuSans-101"/>
     </defs>
     <g transform="translate(223.7725 335.860562)scale(0.1 -0.1)">
      <use xlink:href="#DejaVuSans-84"/>
      <use x="61.037109" xlink:href="#DejaVuSans-105"/>
      <use x="88.820312" xlink:href="#DejaVuSans-109"/>
      <use x="186.232422" xlink:href="#DejaVuSans-101"/>
     </g>
    </g>
   </g>
   <g id="matplotlib.axis_4">
    <g id="ytick_6">
     <g id="line2d_20">
      <g>
       <use style="stroke:#000000;stroke-width:0.8;" x="57.6" xlink:href="#mc7cece82f7" y="277.666968"/>
      </g>
     </g>
     <g id="text_21">
      <!-- −200 -->
      <g transform="translate(23.132812 281.466187)scale(0.1 -0.1)">
       <use xlink:href="#DejaVuSans-8722"/>
       <use x="83.789062" xlink:href="#DejaVuSans-50"/>
       <use x="147.412109" xlink:href="#DejaVuSans-48"/>
       <use x="211.035156" xlink:href="#DejaVuSans-48"/>
      </g>
     </g>
    </g>
    <g id="ytick_7">
     <g id="line2d_21">
      <g>
       <use style="stroke:#000000;stroke-width:0.8;" x="57.6" xlink:href="#mc7cece82f7" y="247.070553"/>
      </g>
     </g>
     <g id="text_22">
      <!-- 0 -->
      <g transform="translate(44.2375 250.869772)scale(0.1 -0.1)">
       <use xlink:href="#DejaVuSans-48"/>
      </g>
     </g>
    </g>
    <g id="ytick_8">
     <g id="line2d_22">
      <g>
       <use style="stroke:#000000;stroke-width:0.8;" x="57.6" xlink:href="#mc7cece82f7" y="216.474138"/>
      </g>
     </g>
     <g id="text_23">
      <!-- 200 -->
      <g transform="translate(31.5125 220.273356)scale(0.1 -0.1)">
       <use xlink:href="#DejaVuSans-50"/>
       <use x="63.623047" xlink:href="#DejaVuSans-48"/>
       <use x="127.246094" xlink:href="#DejaVuSans-48"/>
      </g>
     </g>
    </g>
    <g id="text_24">
     <!-- Yaw Diff -->
     <g transform="translate(17.053125 267.649312)rotate(-90)scale(0.1 -0.1)">
      <use xlink:href="#DejaVuSans-89"/>
      <use x="60.880859" xlink:href="#DejaVuSans-97"/>
      <use x="122.160156" xlink:href="#DejaVuSans-119"/>
      <use x="203.947266" xlink:href="#DejaVuSans-32"/>
      <use x="235.734375" xlink:href="#DejaVuSans-68"/>
      <use x="312.736328" xlink:href="#DejaVuSans-105"/>
      <use x="340.519531" xlink:href="#DejaVuSans-102"/>
      <use x="375.724609" xlink:href="#DejaVuSans-102"/>
     </g>
    </g>
   </g>
   <g id="line2d_23">
    <path clip-path="url(#peb50f6f69c)" d="M 73.832727 247.070553 
L 93.676342 247.071529 
L 94.001647 272.176997 
L 94.326952 247.028442 
L 99.531835 247.070545 
L 102.459581 247.069807 
L 102.784886 245.104565 
L 103.110191 247.494732 
L 105.062022 247.619991 
L 105.387327 246.936806 
L 106.037938 246.730823 
L 106.363243 246.21961 
L 106.688548 246.317331 
L 107.013853 248.175891 
L 107.664463 247.48342 
L 108.315074 247.195437 
L 108.640379 247.289733 
L 108.965684 247.554524 
L 109.290989 247.666555 
L 109.616294 247.539986 
L 109.9416 255.904742 
L 110.266905 247.868106 
L 110.59221 247.349248 
L 110.917515 192.266281 
L 111.24282 247.265261 
L 111.89343 247.176706 
L 113.194651 247.087429 
L 118.399534 247.070693 
L 118.724839 256.54893 
L 119.050144 247.129884 
L 121.32728 247.069377 
L 121.652585 247.379762 
L 121.97789 246.986988 
L 122.628501 247.113038 
L 122.953806 250.222444 
L 123.279111 247.153791 
L 125.556247 247.074476 
L 126.857468 247.158864 
L 127.182773 242.347558 
L 127.508078 247.041983 
L 130.76113 247.089633 
L 131.086435 247.861583 
L 131.41174 247.073338 
L 136.291317 247.041598 
L 139.544369 247.044804 
L 143.448031 247.05257 
L 148.652913 247.070459 
L 156.460237 247.167626 
L 156.785542 247.266863 
L 157.436152 247.221198 
L 157.761457 247.300725 
L 158.737373 247.181668 
L 160.038594 247.151034 
L 161.665119 247.08551 
L 166.219392 247.070517 
L 166.544697 261.326754 
L 166.870002 247.08472 
L 168.821833 247.146643 
L 169.472443 247.062586 
L 170.773664 247.120369 
L 174.026715 247.113609 
L 174.35202 246.9464 
L 175.327936 246.993481 
L 175.653241 246.932434 
L 176.954462 247.136806 
L 179.231598 247.043394 
L 179.556903 246.760211 
L 179.882208 247.019519 
L 180.207513 247.005223 
L 180.532818 246.336477 
L 180.858124 247.077654 
L 181.183429 247.261224 
L 181.508734 247.247422 
L 182.159344 247.516414 
L 182.484649 272.962513 
L 182.809954 247.146398 
L 183.13526 247.085544 
L 183.460565 200.626692 
L 183.78587 247.441645 
L 184.111175 247.400849 
L 185.087091 246.757569 
L 186.063006 246.406858 
L 186.388311 246.234031 
L 186.713616 245.688927 
L 187.038921 245.75705 
L 187.364227 300.257378 
L 187.689532 245.869421 
L 188.014837 245.962237 
L 188.340142 245.925933 
L 188.665447 246.614546 
L 188.990752 246.729808 
L 189.316058 247.311313 
L 189.966668 246.702415 
L 190.291973 225.870767 
L 190.617278 247.120531 
L 191.593194 247.197932 
L 195.17155 247.071001 
L 196.798076 247.239819 
L 197.123381 247.757941 
L 197.773992 246.279998 
L 198.099297 246.927156 
L 198.424602 246.87553 
L 199.400517 247.098272 
L 200.376433 247.078232 
L 201.027043 247.065983 
L 201.677653 246.956862 
L 203.629484 247.046902 
L 203.95479 219.881292 
L 204.280095 247.385937 
L 204.6054 247.399849 
L 204.930705 247.287686 
L 205.25601 247.5515 
L 205.581315 246.936788 
L 205.906621 247.070553 
L 207.858451 247.075973 
L 208.509062 246.077608 
L 208.834367 246.284681 
L 209.159672 301.151196 
L 209.484977 222.901964 
L 209.810282 247.045352 
L 212.738029 247.07805 
L 213.063334 247.004274 
L 213.713944 244.507028 
L 214.039249 221.094088 
L 214.364555 246.989871 
L 215.99108 247.017473 
L 216.966996 247.028833 
L 217.292301 302.085818 
L 217.617606 247.030366 
L 218.593522 247.022383 
L 218.918827 193.186913 
L 219.244132 247.175277 
L 219.569437 247.588625 
L 219.894742 247.180564 
L 223.473099 247.073118 
L 226.07554 247.070832 
L 226.400845 259.169182 
L 226.72615 235.252745 
L 227.051456 246.493046 
L 227.702066 246.438888 
L 228.027371 301.473847 
L 228.352676 246.370166 
L 228.677981 246.493165 
L 229.003287 246.261245 
L 229.653897 246.232983 
L 229.979202 246.526681 
L 230.304507 246.390929 
L 230.629812 246.680693 
L 232.581643 247.052347 
L 233.232254 247.065316 
L 233.557559 214.693144 
L 233.882864 247.047597 
L 239.413052 247.071372 
L 242.991408 246.970754 
L 243.967324 246.927493 
L 246.24446 247.180358 
L 251.124037 247.073186 
L 251.774647 247.073393 
L 252.099953 271.929495 
L 252.425258 247.114643 
L 253.075868 247.125771 
L 253.401173 246.989859 
L 255.027699 247.034086 
L 255.353004 256.759881 
L 255.678309 247.173911 
L 256.003615 247.182016 
L 256.32892 236.965607 
L 256.654225 257.35455 
L 256.97953 247.221116 
L 258.280751 246.994787 
L 259.256666 247.01943 
L 259.907276 247.057111 
L 260.232582 204.422602 
L 260.557887 247.841763 
L 261.208497 247.696859 
L 261.533802 247.89004 
L 261.859107 247.614902 
L 262.184412 247.566985 
L 262.509718 247.326685 
L 263.810938 247.169224 
L 264.136243 247.125252 
L 264.461549 284.575228 
L 264.786854 247.183847 
L 265.112159 247.255593 
L 266.088074 247.222494 
L 266.413379 247.315614 
L 267.06399 247.255013 
L 267.389295 247.355838 
L 268.039905 247.274211 
L 268.36521 247.403987 
L 268.690516 233.119167 
L 269.015821 247.05077 
L 270.967652 247.186384 
L 271.943567 247.212841 
L 272.594177 247.127917 
L 272.919483 258.955769 
L 273.244788 247.256742 
L 273.570093 247.163656 
L 273.895398 235.009489 
L 274.220703 247.037105 
L 275.847229 246.944688 
L 279.100281 247.030886 
L 279.425586 217.918485 
L 279.750891 247.300556 
L 282.028027 247.319365 
L 282.353332 248.526862 
L 282.678637 247.296904 
L 283.003942 247.215781 
L 283.654553 247.309151 
L 283.979858 247.220444 
L 284.305163 247.281271 
L 284.630468 259.335798 
L 284.955773 247.04932 
L 298.943895 246.982031 
L 299.2692 245.309219 
L 299.594505 247.025737 
L 301.871641 247.067758 
L 302.522252 247.073343 
L 302.847557 224.530013 
L 303.498167 270.023468 
L 303.823472 247.157486 
L 304.799388 247.088452 
L 306.100608 247.146522 
L 308.052439 247.058084 
L 308.377745 223.604508 
L 308.70305 247.125823 
L 314.233237 247.070464 
L 314.558543 249.159474 
L 314.883848 246.958754 
L 315.859763 246.958663 
L 316.185068 249.448979 
L 316.510373 247.08839 
L 316.835679 247.057403 
L 317.160984 243.765427 
L 317.486289 246.808739 
L 317.811594 246.896004 
L 318.136899 246.802456 
L 318.462204 246.913879 
L 319.112815 246.948885 
L 321.064646 247.051876 
L 323.016477 247.06794 
L 323.341782 252.724305 
L 323.667087 246.941963 
L 324.317697 246.869526 
L 324.643002 246.785816 
L 324.968308 247.183191 
L 327.245444 247.23895 
L 327.896054 246.861967 
L 328.546664 246.785066 
L 328.871969 295.035429 
L 329.197275 247.02013 
L 330.498495 247.066526 
L 330.8238 247.10659 
L 331.149105 196.886522 
L 331.474411 247.043007 
L 331.799716 247.1184 
L 332.125021 297.009392 
L 332.450326 246.943574 
L 333.426242 246.868105 
L 335.052767 247.226365 
L 336.353988 247.091111 
L 336.679293 196.211701 
L 337.004598 246.490732 
L 337.329903 246.330877 
L 337.655209 246.603364 
L 337.980514 246.559477 
L 338.305819 246.784041 
L 338.631124 299.354665 
L 338.956429 247.030542 
L 342.534786 247.070612 
L 344.161312 246.979459 
L 344.486617 226.946012 
L 344.811922 247.143379 
L 345.462532 247.100335 
L 345.787837 214.953647 
L 346.113143 301.764701 
L 346.438448 246.782165 
L 347.739668 246.592714 
L 348.064974 246.34207 
L 348.390279 246.45696 
L 348.715584 246.380093 
L 349.040889 246.010653 
L 349.366194 246.112153 
L 350.016805 246.634409 
L 350.34211 246.579921 
L 350.667415 246.779731 
L 350.99272 246.775631 
L 351.64333 246.946431 
L 352.619246 247.070596 
L 353.595161 247.163933 
L 354.571077 247.039292 
L 357.498823 247.098769 
L 357.824128 247.037702 
L 358.149433 231.846129 
L 358.474739 247.099465 
L 362.703706 247.070882 
L 364.330231 247.070573 
L 364.655537 268.749725 
L 364.980842 247.070523 
L 368.233893 246.838193 
L 368.559198 248.476071 
L 368.884504 247.085223 
L 374.089386 247.070583 
L 377.017132 247.11806 
L 377.342438 247.930164 
L 377.667743 247.175351 
L 377.993048 192.122182 
L 378.318353 247.133931 
L 381.246099 247.05127 
L 381.571405 249.540147 
L 381.89671 246.910596 
L 382.222015 246.395854 
L 382.54732 246.862639 
L 383.523236 246.956339 
L 383.848541 254.976588 
L 384.499151 238.833887 
L 384.824456 247.001022 
L 385.800372 247.004125 
L 386.125677 255.260081 
L 386.450982 238.760079 
L 386.776287 247.035603 
L 388.402813 246.964337 
L 388.728118 302.043096 
L 389.053423 246.960396 
L 392.957085 247.046484 
L 394.583611 246.903399 
L 394.908916 246.996029 
L 395.559526 247.01569 
L 398.487273 247.068654 
L 398.487273 247.068654 
" style="fill:none;stroke:#ff0000;stroke-dasharray:5.55,2.4;stroke-dashoffset:0;stroke-width:1.5;"/>
   </g>
   <g id="line2d_24">
    <path clip-path="url(#peb50f6f69c)" d="M 73.832727 247.070553 
L 82.615966 247.070553 
L 82.941272 244.094356 
L 83.266577 247.070553 
L 85.543713 247.070553 
L 85.869018 246.861942 
L 86.194323 247.070553 
L 86.844934 247.028832 
L 87.170239 246.834124 
L 88.146154 247.223535 
L 88.471459 248.767264 
L 89.12207 247.223535 
L 89.77268 247.487775 
L 90.097985 247.070553 
L 92.700426 247.001016 
L 93.025731 227.892159 
L 93.351037 247.070553 
L 95.302868 247.070553 
L 95.628173 246.945387 
L 95.953478 247.515587 
L 96.604088 247.418236 
L 96.929393 247.098369 
L 98.230614 247.167908 
L 99.206529 247.070553 
L 99.85714 247.056645 
L 100.182445 246.82022 
L 100.50775 247.070553 
L 106.363243 247.070553 
L 107.013853 248.030164 
L 107.339158 247.334798 
L 107.989769 247.070553 
L 108.315074 247.070553 
L 108.640379 280.712697 
L 108.965684 247.070553 
L 110.266905 247.070553 
L 111.24282 246.987108 
L 111.89343 246.722866 
L 112.218736 246.110938 
L 112.544041 246.625514 
L 113.194651 246.055305 
L 113.519956 247.070553 
L 113.845261 247.070553 
L 114.170567 247.25135 
L 114.495872 247.779833 
L 115.146482 250.185824 
L 115.471787 196.558653 
L 115.797092 251.29842 
L 116.122398 247.738113 
L 116.447703 247.070553 
L 116.773008 247.098369 
L 117.098313 247.459964 
L 117.423618 247.112277 
L 118.399534 247.070553 
L 119.050144 247.195724 
L 119.375449 247.446052 
L 119.700754 247.223535 
L 120.026059 247.362609 
L 120.351365 247.098369 
L 120.67667 247.209627 
L 121.001975 247.543402 
L 121.32728 247.237443 
L 121.652585 248.085796 
L 121.97789 247.279167 
L 122.303195 247.098369 
L 122.953806 247.29307 
L 123.279111 247.126184 
L 123.604416 247.084461 
L 123.929721 247.432149 
L 124.255026 248.795075 
L 124.580332 248.600374 
L 125.230942 247.070553 
L 126.532163 247.070553 
L 126.857468 247.209627 
L 127.182773 247.946726 
L 127.833383 247.070553 
L 128.809299 247.056645 
L 129.459909 247.056645 
L 129.785214 246.98711 
L 130.435824 247.070553 
L 131.086435 247.070553 
L 131.41174 246.834128 
L 131.737045 246.861939 
L 132.06235 246.208287 
L 132.387655 246.848036 
L 132.71296 247.084461 
L 133.688876 246.945387 
L 134.014181 245.818881 
L 134.339486 247.056645 
L 134.664791 247.070553 
L 134.990097 245.735438 
L 135.315402 247.098369 
L 135.966012 247.181816 
L 136.291317 247.070553 
L 136.616622 247.084461 
L 136.941927 249.337473 
L 137.267233 250.241455 
L 137.592538 247.626852 
L 137.917843 247.404333 
L 138.243148 248.002353 
L 138.568453 248.155335 
L 138.893758 247.001016 
L 139.219064 247.070553 
L 139.544369 245.346029 
L 139.869674 239.671782 
L 140.194979 245.624179 
L 140.520284 247.223535 
L 140.845589 247.126184 
L 141.170895 247.473872 
L 141.4962 247.084461 
L 141.821505 247.863274 
L 142.14681 247.459964 
L 142.472115 246.764593 
L 143.122725 247.279167 
L 143.448031 247.070553 
L 143.773336 247.098369 
L 144.098641 247.571223 
L 144.749251 247.042737 
L 145.399862 246.861939 
L 145.725167 247.070553 
L 146.050472 247.070553 
L 146.375777 246.722865 
L 146.701082 245.401658 
L 147.026387 246.38909 
L 147.351692 245.38775 
L 147.676998 247.001013 
L 148.327608 247.070553 
L 148.978218 247.070553 
L 149.303523 246.667234 
L 149.628829 245.582456 
L 149.954134 245.151325 
L 150.279439 247.070553 
L 155.484321 247.028829 
L 155.809627 246.166568 
L 156.134932 245.888415 
L 156.460237 246.7924 
L 156.785542 246.973198 
L 158.737373 247.154 
L 159.387983 247.070553 
L 160.038594 247.154 
L 160.363899 247.084461 
L 161.014509 247.418236 
L 161.339814 247.140092 
L 162.31573 247.070553 
L 164.592866 247.070553 
L 172.400189 247.014921 
L 172.725495 246.848036 
L 173.0508 247.028829 
L 174.35202 247.084461 
L 175.327936 247.084461 
L 175.653241 246.65333 
L 175.978546 299.807643 
L 176.303851 246.736774 
L 176.954462 247.070553 
L 178.255682 247.14009 
L 178.580987 247.320887 
L 178.906293 194.250015 
L 179.231598 250.978552 
L 179.556903 247.752021 
L 179.882208 247.070553 
L 180.207513 247.070553 
L 180.532818 246.931479 
L 180.858124 246.667238 
L 181.183429 247.070553 
L 184.761785 247.070553 
L 185.087091 246.250011 
L 185.412396 247.001013 
L 185.737701 245.791065 
L 186.063006 246.375177 
L 186.388311 246.472532 
L 186.713616 247.070553 
L 187.689532 247.154 
L 188.014837 247.515596 
L 188.340142 247.543407 
L 188.665447 247.153996 
L 189.316058 247.070553 
L 189.966668 247.070553 
L 190.291973 249.977208 
L 190.617278 246.444717 
L 190.942583 245.373842 
L 191.267889 245.735438 
L 191.593194 301.170581 
L 191.918499 192.414228 
L 192.243804 247.793744 
L 192.569109 252.271944 
L 192.894414 253.39845 
L 193.219719 250.895102 
L 193.545025 247.237443 
L 193.87033 247.126184 
L 194.195635 247.376517 
L 194.52094 247.084461 
L 197.123381 247.070553 
L 199.725823 247.070553 
L 200.051128 246.750681 
L 200.376433 247.070553 
L 201.352348 247.056645 
L 201.677653 246.959294 
L 202.002959 245.957957 
L 202.328264 246.875847 
L 202.653569 246.542067 
L 202.978874 246.569888 
L 203.304179 246.973198 
L 203.629484 247.070553 
L 203.95479 242.620179 
L 204.280095 247.070553 
L 204.930705 247.084461 
L 205.25601 248.057985 
L 205.581315 247.988445 
L 205.906621 247.084461 
L 207.207841 247.001013 
L 207.533146 246.903663 
L 207.858451 246.180476 
L 208.183757 245.777157 
L 208.509062 242.88441 
L 208.834367 242.787059 
L 209.159672 297.16523 
L 209.484977 245.44338 
L 209.810282 246.736774 
L 210.135588 247.02883 
L 211.111503 247.070553 
L 211.436808 246.569884 
L 211.762113 244.581117 
L 212.087418 241.771811 
L 212.412724 246.347365 
L 212.738029 246.806311 
L 213.063334 246.611607 
L 213.713944 246.764588 
L 214.039249 247.070553 
L 215.015165 247.112275 
L 215.34047 248.141427 
L 215.665775 248.725541 
L 215.99108 247.084461 
L 216.641691 247.070553 
L 216.966996 247.543406 
L 217.292301 247.098368 
L 218.918827 247.070553 
L 221.195963 247.070553 
L 221.846573 247.334795 
L 222.497183 247.02883 
L 223.798404 247.223535 
L 224.123709 248.822893 
L 224.449014 250.992457 
L 224.77432 251.061994 
L 225.099625 248.044075 
L 225.42493 247.070553 
L 226.400845 246.973201 
L 226.72615 246.31955 
L 227.051456 246.834126 
L 227.702066 246.834126 
L 228.027371 247.070553 
L 229.003287 246.987108 
L 229.328592 246.945386 
L 229.653897 247.042738 
L 229.979202 246.695051 
L 230.304507 247.070553 
L 231.605728 246.973201 
L 231.931033 245.930141 
L 232.581643 247.070553 
L 232.906948 247.070553 
L 233.557559 247.320887 
L 233.882864 247.404332 
L 234.533474 247.08446 
L 236.485305 247.08446 
L 236.81061 247.265257 
L 237.135915 247.098368 
L 238.762441 247.070553 
L 239.087746 246.778496 
L 239.413052 247.070553 
L 240.063662 247.181812 
L 240.714272 247.070553 
L 241.039577 247.126183 
L 242.015493 246.917571 
L 242.340798 247.070553 
L 244.617934 247.070553 
L 244.943239 244.275154 
L 245.268544 246.987109 
L 245.919155 247.070553 
L 246.89507 247.070553 
L 247.220375 246.555976 
L 247.54568 245.777159 
L 247.870986 247.070553 
L 248.196291 247.014923 
L 248.521596 246.681144 
L 248.846901 246.9732 
L 249.172206 247.070553 
L 249.822817 246.569884 
L 250.148122 247.070553 
L 250.473427 247.056645 
L 250.798732 246.375181 
L 251.124037 244.163893 
L 251.449342 243.704946 
L 251.774647 247.070553 
L 252.750563 247.070553 
L 253.075868 246.959293 
L 253.401173 247.042738 
L 253.726478 246.917571 
L 254.051784 246.653329 
L 254.377089 244.219523 
L 255.027699 246.820218 
L 255.353004 247.070553 
L 258.606056 247.070553 
L 258.931361 247.710297 
L 259.581971 246.110937 
L 259.907276 246.750681 
L 260.232582 245.665901 
L 260.557887 247.070553 
L 260.883192 246.722867 
L 261.208497 246.722865 
L 261.533802 244.316871 
L 261.859107 246.681144 
L 262.184412 245.485101 
L 262.509718 247.070553 
L 270.967652 247.112277 
L 271.292957 247.64076 
L 271.618262 247.863279 
L 271.943567 247.070553 
L 273.570093 247.070553 
L 273.895398 247.765926 
L 274.220703 247.195719 
L 274.546008 246.389085 
L 274.871314 246.555975 
L 275.196619 243.760574 
L 275.521924 238.406204 
L 276.172534 242.230758 
L 276.497839 299.376514 
L 276.823144 244.692377 
L 277.14845 245.693714 
L 277.473755 246.26392 
L 277.79906 245.791066 
L 278.124365 246.681144 
L 278.44967 247.001016 
L 279.425586 247.306979 
L 279.750891 248.572558 
L 280.076196 248.989782 
L 280.401501 247.571222 
L 280.726806 247.098368 
L 282.353332 247.070553 
L 284.630468 247.02883 
L 284.955773 246.917571 
L 285.281079 247.056645 
L 288.208825 247.098368 
L 288.859435 247.098368 
L 289.510046 247.181813 
L 290.160656 247.070553 
L 302.847557 246.987108 
L 303.172862 246.903663 
L 303.498167 247.070553 
L 307.401829 247.084461 
L 307.727134 247.223535 
L 308.052439 247.070553 
L 309.028355 247.056645 
L 309.35366 246.931478 
L 310.00427 247.070553 
L 312.281406 247.042738 
L 312.932017 247.070553 
L 313.257322 237.849903 
L 313.582627 247.070553 
L 314.233237 247.070553 
L 314.558543 240.826105 
L 314.883848 247.070553 
L 315.534458 247.001015 
L 315.859763 246.681144 
L 316.185068 244.845359 
L 316.510373 244.122172 
L 316.835679 244.052633 
L 317.160984 246.667236 
L 317.486289 247.070553 
L 317.811594 247.070553 
L 318.462204 248.530841 
L 318.78751 247.070553 
L 321.715256 247.014924 
L 322.040561 246.959292 
L 322.365866 246.375182 
L 322.691171 247.070553 
L 325.293613 247.028832 
L 325.618918 246.87585 
L 326.269528 246.931479 
L 326.594833 247.056645 
L 326.920138 246.820218 
L 327.896054 247.070553 
L 332.775631 247.084461 
L 333.100936 247.404335 
L 333.426242 247.557313 
L 333.751547 247.084461 
L 334.727462 247.084461 
L 335.703378 247.209627 
L 336.028683 247.167903 
L 336.353988 227.975609 
L 336.679293 247.070553 
L 337.004598 247.070553 
L 337.655209 247.251351 
L 337.980514 247.070553 
L 344.811922 247.070553 
L 345.462532 247.446052 
L 345.787837 247.446056 
L 346.113143 247.070553 
L 347.739668 247.098369 
L 348.064974 248.224875 
L 348.390279 249.921581 
L 348.715584 247.891095 
L 349.040889 247.070553 
L 349.366194 247.126184 
L 349.691499 248.141425 
L 350.016805 248.210967 
L 350.34211 247.905 
L 350.667415 247.223535 
L 350.99272 247.070553 
L 351.64333 247.070553 
L 351.968635 246.945387 
L 352.293941 247.056645 
L 352.619246 246.708957 
L 352.944551 246.792405 
L 353.269856 247.070553 
L 355.221687 247.070553 
L 355.546992 238.920779 
L 355.872297 247.070553 
L 356.848213 247.112277 
L 357.173518 247.376517 
L 357.498823 247.112277 
L 358.800044 247.070553 
L 359.125349 246.389085 
L 359.775959 247.738113 
L 360.101264 247.22354 
L 360.42657 247.390425 
L 361.402485 247.070553 
L 362.3784 247.070553 
L 362.703706 247.334793 
L 363.029011 248.252686 
L 363.354316 247.140092 
L 364.004926 247.070553 
L 364.330231 247.070553 
L 364.655537 255.206416 
L 364.980842 247.126182 
L 365.306147 247.237443 
L 366.282062 247.070553 
L 366.607367 251.395775 
L 366.932673 235.902875 
L 367.257978 247.362609 
L 367.583283 246.569883 
L 367.908588 235.068412 
L 368.233893 298.806311 
L 368.559198 246.667237 
L 368.884504 247.070553 
L 369.860419 247.070553 
L 370.185724 247.279165 
L 370.511029 195.446057 
L 370.836334 251.284516 
L 371.486945 243.885745 
L 371.81225 298.792403 
L 372.137555 245.902326 
L 372.788165 248.252687 
L 373.113471 247.070553 
L 380.270184 247.070553 
L 380.595489 192.956622 
L 380.920794 252.32757 
L 381.246099 252.689166 
L 381.571405 246.097029 
L 381.89671 245.38775 
L 382.222015 246.82022 
L 382.54732 246.848031 
L 382.872625 247.056645 
L 383.19793 246.402998 
L 383.523236 245.123505 
L 383.848541 244.400318 
L 384.173846 245.12351 
L 384.499151 300.51693 
L 384.824456 244.51158 
L 385.149761 242.689702 
L 385.475066 238.739984 
L 385.800372 243.454612 
L 386.125677 242.647981 
L 386.776287 246.277827 
L 387.101592 246.375182 
L 387.426897 246.87585 
L 388.077508 245.679806 
L 388.402813 247.001016 
L 389.704034 247.293072 
L 390.029339 248.405668 
L 390.354644 248.72554 
L 390.679949 247.112277 
L 391.655864 246.973202 
L 391.98117 246.639422 
L 392.306475 246.987108 
L 392.63178 246.597699 
L 392.957085 247.014924 
L 393.28239 247.070553 
L 393.933001 246.82022 
L 394.258306 247.028832 
L 395.234221 247.070553 
L 396.535442 247.098369 
L 396.860747 261.367427 
L 397.186052 247.098369 
L 398.487273 247.042738 
L 398.487273 247.042738 
" style="fill:none;stroke:#008000;stroke-linecap:square;stroke-width:1.5;"/>
   </g>
   <g id="patch_8">
    <path d="M 57.6 307.584 
L 57.6 186.624 
" style="fill:none;stroke:#000000;stroke-linecap:square;stroke-linejoin:miter;stroke-width:0.8;"/>
   </g>
   <g id="patch_9">
    <path d="M 414.72 307.584 
L 414.72 186.624 
" style="fill:none;stroke:#000000;stroke-linecap:square;stroke-linejoin:miter;stroke-width:0.8;"/>
   </g>
   <g id="patch_10">
    <path d="M 57.6 307.584 
L 414.72 307.584 
" style="fill:none;stroke:#000000;stroke-linecap:square;stroke-linejoin:miter;stroke-width:0.8;"/>
   </g>
   <g id="patch_11">
    <path d="M 57.6 186.624 
L 414.72 186.624 
" style="fill:none;stroke:#000000;stroke-linecap:square;stroke-linejoin:miter;stroke-width:0.8;"/>
   </g>
   <g id="legend_1">
    <g id="patch_12">
     <path d="M 64.6 223.98025 
L 141.415625 223.98025 
Q 143.415625 223.98025 143.415625 221.98025 
L 143.415625 193.624 
Q 143.415625 191.624 141.415625 191.624 
L 64.6 191.624 
Q 62.6 191.624 62.6 193.624 
L 62.6 221.98025 
Q 62.6 223.98025 64.6 223.98025 
z
" style="fill:#ffffff;opacity:0.8;stroke:#cccccc;stroke-linejoin:miter;"/>
    </g>
    <g id="line2d_25">
     <path d="M 66.6 199.722437 
L 86.6 199.722437 
" style="fill:none;stroke:#ff0000;stroke-dasharray:5.55,2.4;stroke-dashoffset:0;stroke-width:1.5;"/>
    </g>
    <g id="line2d_26"/>
    <g id="text_25">
     <!-- Cheat -->
     <g transform="translate(94.6 203.222437)scale(0.1 -0.1)">
      <use xlink:href="#DejaVuSans-67"/>
      <use x="69.824219" xlink:href="#DejaVuSans-104"/>
      <use x="133.203125" xlink:href="#DejaVuSans-101"/>
      <use x="194.726562" xlink:href="#DejaVuSans-97"/>
      <use x="256.005859" xlink:href="#DejaVuSans-116"/>
     </g>
    </g>
    <g id="line2d_27">
     <path d="M 66.6 214.400562 
L 86.6 214.400562 
" style="fill:none;stroke:#008000;stroke-linecap:square;stroke-width:1.5;"/>
    </g>
    <g id="line2d_28"/>
    <g id="text_26">
     <!-- No cheat -->
     <defs>
      <path d="M 9.8125 72.90625 
L 23.09375 72.90625 
L 55.421875 11.921875 
L 55.421875 72.90625 
L 64.984375 72.90625 
L 64.984375 0 
L 51.703125 0 
L 19.390625 60.984375 
L 19.390625 0 
L 9.8125 0 
z
" id="DejaVuSans-78"/>
     </defs>
     <g transform="translate(94.6 217.900562)scale(0.1 -0.1)">
      <use xlink:href="#DejaVuSans-78"/>
      <use x="74.804688" xlink:href="#DejaVuSans-111"/>
      <use x="135.986328" xlink:href="#DejaVuSans-32"/>
      <use x="167.773438" xlink:href="#DejaVuSans-99"/>
      <use x="222.753906" xlink:href="#DejaVuSans-104"/>
      <use x="286.132812" xlink:href="#DejaVuSans-101"/>
      <use x="347.65625" xlink:href="#DejaVuSans-97"/>
      <use x="408.935547" xlink:href="#DejaVuSans-116"/>
     </g>
    </g>
   </g>
  </g>
 </g>
 <defs>
  <clipPath id="p234768e53a">
   <rect height="120.96" width="357.12" x="57.6" y="41.472"/>
  </clipPath>
  <clipPath id="peb50f6f69c">
   <rect height="120.96" width="357.12" x="57.6" y="186.624"/>
  </clipPath>
 </defs>
</svg>
