<?xml version="1.0" encoding="utf-8" standalone="no"?>
<!DOCTYPE svg PUBLIC "-//W3C//DTD SVG 1.1//EN"
  "http://www.w3.org/Graphics/SVG/1.1/DTD/svg11.dtd">
<!-- Created with matplotlib (https://matplotlib.org/) -->
<svg height="345.6pt" version="1.1" viewBox="0 0 460.8 345.6" width="460.8pt" xmlns="http://www.w3.org/2000/svg" xmlns:xlink="http://www.w3.org/1999/xlink">
 <defs>
  <style type="text/css">
*{stroke-linecap:butt;stroke-linejoin:round;}
  </style>
 </defs>
 <g id="figure_1">
  <g id="patch_1">
   <path d="M 0 345.6 
L 460.8 345.6 
L 460.8 0 
L 0 0 
z
" style="fill:#ffffff;"/>
  </g>
  <g id="axes_1">
   <g id="patch_2">
    <path d="M 57.6 162.432 
L 414.72 162.432 
L 414.72 41.472 
L 57.6 41.472 
z
" style="fill:#ffffff;"/>
   </g>
   <g id="matplotlib.axis_1">
    <g id="xtick_1">
     <g id="line2d_1">
      <defs>
       <path d="M 0 0 
L 0 3.5 
" id="mce443e7b23" style="stroke:#000000;stroke-width:0.8;"/>
      </defs>
      <g>
       <use style="stroke:#000000;stroke-width:0.8;" x="73.832727" xlink:href="#mce443e7b23" y="162.432"/>
      </g>
     </g>
     <g id="text_1">
      <!-- 0 -->
      <defs>
       <path d="M 31.78125 66.40625 
Q 24.171875 66.40625 20.328125 58.90625 
Q 16.5 51.421875 16.5 36.375 
Q 16.5 21.390625 20.328125 13.890625 
Q 24.171875 6.390625 31.78125 6.390625 
Q 39.453125 6.390625 43.28125 13.890625 
Q 47.125 21.390625 47.125 36.375 
Q 47.125 51.421875 43.28125 58.90625 
Q 39.453125 66.40625 31.78125 66.40625 
z
M 31.78125 74.21875 
Q 44.046875 74.21875 50.515625 64.515625 
Q 56.984375 54.828125 56.984375 36.375 
Q 56.984375 17.96875 50.515625 8.265625 
Q 44.046875 -1.421875 31.78125 -1.421875 
Q 19.53125 -1.421875 13.0625 8.265625 
Q 6.59375 17.96875 6.59375 36.375 
Q 6.59375 54.828125 13.0625 64.515625 
Q 19.53125 74.21875 31.78125 74.21875 
z
" id="DejaVuSans-48"/>
      </defs>
      <g transform="translate(70.651477 177.030437)scale(0.1 -0.1)">
       <use xlink:href="#DejaVuSans-48"/>
      </g>
     </g>
    </g>
    <g id="xtick_2">
     <g id="line2d_2">
      <g>
       <use style="stroke:#000000;stroke-width:0.8;" x="138.893758" xlink:href="#mce443e7b23" y="162.432"/>
      </g>
     </g>
     <g id="text_2">
      <!-- 200 -->
      <defs>
       <path d="M 19.1875 8.296875 
L 53.609375 8.296875 
L 53.609375 0 
L 7.328125 0 
L 7.328125 8.296875 
Q 12.9375 14.109375 22.625 23.890625 
Q 32.328125 33.6875 34.8125 36.53125 
Q 39.546875 41.84375 41.421875 45.53125 
Q 43.3125 49.21875 43.3125 52.78125 
Q 43.3125 58.59375 39.234375 62.25 
Q 35.15625 65.921875 28.609375 65.921875 
Q 23.96875 65.921875 18.8125 64.3125 
Q 13.671875 62.703125 7.8125 59.421875 
L 7.8125 69.390625 
Q 13.765625 71.78125 18.9375 73 
Q 24.125 74.21875 28.421875 74.21875 
Q 39.75 74.21875 46.484375 68.546875 
Q 53.21875 62.890625 53.21875 53.421875 
Q 53.21875 48.921875 51.53125 44.890625 
Q 49.859375 40.875 45.40625 35.40625 
Q 44.1875 33.984375 37.640625 27.21875 
Q 31.109375 20.453125 19.1875 8.296875 
z
" id="DejaVuSans-50"/>
      </defs>
      <g transform="translate(129.350008 177.030437)scale(0.1 -0.1)">
       <use xlink:href="#DejaVuSans-50"/>
       <use x="63.623047" xlink:href="#DejaVuSans-48"/>
       <use x="127.246094" xlink:href="#DejaVuSans-48"/>
      </g>
     </g>
    </g>
    <g id="xtick_3">
     <g id="line2d_3">
      <g>
       <use style="stroke:#000000;stroke-width:0.8;" x="203.95479" xlink:href="#mce443e7b23" y="162.432"/>
      </g>
     </g>
     <g id="text_3">
      <!-- 400 -->
      <defs>
       <path d="M 37.796875 64.3125 
L 12.890625 25.390625 
L 37.796875 25.390625 
z
M 35.203125 72.90625 
L 47.609375 72.90625 
L 47.609375 25.390625 
L 58.015625 25.390625 
L 58.015625 17.1875 
L 47.609375 17.1875 
L 47.609375 0 
L 37.796875 0 
L 37.796875 17.1875 
L 4.890625 17.1875 
L 4.890625 26.703125 
z
" id="DejaVuSans-52"/>
      </defs>
      <g transform="translate(194.41104 177.030437)scale(0.1 -0.1)">
       <use xlink:href="#DejaVuSans-52"/>
       <use x="63.623047" xlink:href="#DejaVuSans-48"/>
       <use x="127.246094" xlink:href="#DejaVuSans-48"/>
      </g>
     </g>
    </g>
    <g id="xtick_4">
     <g id="line2d_4">
      <g>
       <use style="stroke:#000000;stroke-width:0.8;" x="269.015821" xlink:href="#mce443e7b23" y="162.432"/>
      </g>
     </g>
     <g id="text_4">
      <!-- 600 -->
      <defs>
       <path d="M 33.015625 40.375 
Q 26.375 40.375 22.484375 35.828125 
Q 18.609375 31.296875 18.609375 23.390625 
Q 18.609375 15.53125 22.484375 10.953125 
Q 26.375 6.390625 33.015625 6.390625 
Q 39.65625 6.390625 43.53125 10.953125 
Q 47.40625 15.53125 47.40625 23.390625 
Q 47.40625 31.296875 43.53125 35.828125 
Q 39.65625 40.375 33.015625 40.375 
z
M 52.59375 71.296875 
L 52.59375 62.3125 
Q 48.875 64.0625 45.09375 64.984375 
Q 41.3125 65.921875 37.59375 65.921875 
Q 27.828125 65.921875 22.671875 59.328125 
Q 17.53125 52.734375 16.796875 39.40625 
Q 19.671875 43.65625 24.015625 45.921875 
Q 28.375 48.1875 33.59375 48.1875 
Q 44.578125 48.1875 50.953125 41.515625 
Q 57.328125 34.859375 57.328125 23.390625 
Q 57.328125 12.15625 50.6875 5.359375 
Q 44.046875 -1.421875 33.015625 -1.421875 
Q 20.359375 -1.421875 13.671875 8.265625 
Q 6.984375 17.96875 6.984375 36.375 
Q 6.984375 53.65625 15.1875 63.9375 
Q 23.390625 74.21875 37.203125 74.21875 
Q 40.921875 74.21875 44.703125 73.484375 
Q 48.484375 72.75 52.59375 71.296875 
z
" id="DejaVuSans-54"/>
      </defs>
      <g transform="translate(259.472071 177.030437)scale(0.1 -0.1)">
       <use xlink:href="#DejaVuSans-54"/>
       <use x="63.623047" xlink:href="#DejaVuSans-48"/>
       <use x="127.246094" xlink:href="#DejaVuSans-48"/>
      </g>
     </g>
    </g>
    <g id="xtick_5">
     <g id="line2d_5">
      <g>
       <use style="stroke:#000000;stroke-width:0.8;" x="334.076852" xlink:href="#mce443e7b23" y="162.432"/>
      </g>
     </g>
     <g id="text_5">
      <!-- 800 -->
      <defs>
       <path d="M 31.78125 34.625 
Q 24.75 34.625 20.71875 30.859375 
Q 16.703125 27.09375 16.703125 20.515625 
Q 16.703125 13.921875 20.71875 10.15625 
Q 24.75 6.390625 31.78125 6.390625 
Q 38.8125 6.390625 42.859375 10.171875 
Q 46.921875 13.96875 46.921875 20.515625 
Q 46.921875 27.09375 42.890625 30.859375 
Q 38.875 34.625 31.78125 34.625 
z
M 21.921875 38.8125 
Q 15.578125 40.375 12.03125 44.71875 
Q 8.5 49.078125 8.5 55.328125 
Q 8.5 64.0625 14.71875 69.140625 
Q 20.953125 74.21875 31.78125 74.21875 
Q 42.671875 74.21875 48.875 69.140625 
Q 55.078125 64.0625 55.078125 55.328125 
Q 55.078125 49.078125 51.53125 44.71875 
Q 48 40.375 41.703125 38.8125 
Q 48.828125 37.15625 52.796875 32.3125 
Q 56.78125 27.484375 56.78125 20.515625 
Q 56.78125 9.90625 50.3125 4.234375 
Q 43.84375 -1.421875 31.78125 -1.421875 
Q 19.734375 -1.421875 13.25 4.234375 
Q 6.78125 9.90625 6.78125 20.515625 
Q 6.78125 27.484375 10.78125 32.3125 
Q 14.796875 37.15625 21.921875 38.8125 
z
M 18.3125 54.390625 
Q 18.3125 48.734375 21.84375 45.5625 
Q 25.390625 42.390625 31.78125 42.390625 
Q 38.140625 42.390625 41.71875 45.5625 
Q 45.3125 48.734375 45.3125 54.390625 
Q 45.3125 60.0625 41.71875 63.234375 
Q 38.140625 66.40625 31.78125 66.40625 
Q 25.390625 66.40625 21.84375 63.234375 
Q 18.3125 60.0625 18.3125 54.390625 
z
" id="DejaVuSans-56"/>
      </defs>
      <g transform="translate(324.533102 177.030437)scale(0.1 -0.1)">
       <use xlink:href="#DejaVuSans-56"/>
       <use x="63.623047" xlink:href="#DejaVuSans-48"/>
       <use x="127.246094" xlink:href="#DejaVuSans-48"/>
      </g>
     </g>
    </g>
    <g id="xtick_6">
     <g id="line2d_6">
      <g>
       <use style="stroke:#000000;stroke-width:0.8;" x="399.137883" xlink:href="#mce443e7b23" y="162.432"/>
      </g>
     </g>
     <g id="text_6">
      <!-- 1000 -->
      <defs>
       <path d="M 12.40625 8.296875 
L 28.515625 8.296875 
L 28.515625 63.921875 
L 10.984375 60.40625 
L 10.984375 69.390625 
L 28.421875 72.90625 
L 38.28125 72.90625 
L 38.28125 8.296875 
L 54.390625 8.296875 
L 54.390625 0 
L 12.40625 0 
z
" id="DejaVuSans-49"/>
      </defs>
      <g transform="translate(386.412883 177.030437)scale(0.1 -0.1)">
       <use xlink:href="#DejaVuSans-49"/>
       <use x="63.623047" xlink:href="#DejaVuSans-48"/>
       <use x="127.246094" xlink:href="#DejaVuSans-48"/>
       <use x="190.869141" xlink:href="#DejaVuSans-48"/>
      </g>
     </g>
    </g>
   </g>
   <g id="matplotlib.axis_2">
    <g id="ytick_1">
     <g id="line2d_7">
      <defs>
       <path d="M 0 0 
L -3.5 0 
" id="mad1befa3ad" style="stroke:#000000;stroke-width:0.8;"/>
      </defs>
      <g>
       <use style="stroke:#000000;stroke-width:0.8;" x="57.6" xlink:href="#mad1befa3ad" y="156.933818"/>
      </g>
     </g>
     <g id="text_7">
      <!-- 0 -->
      <g transform="translate(44.2375 160.733037)scale(0.1 -0.1)">
       <use xlink:href="#DejaVuSans-48"/>
      </g>
     </g>
    </g>
    <g id="ytick_2">
     <g id="line2d_8">
      <g>
       <use style="stroke:#000000;stroke-width:0.8;" x="57.6" xlink:href="#mad1befa3ad" y="135.823869"/>
      </g>
     </g>
     <g id="text_8">
      <!-- 10 -->
      <g transform="translate(37.875 139.623087)scale(0.1 -0.1)">
       <use xlink:href="#DejaVuSans-49"/>
       <use x="63.623047" xlink:href="#DejaVuSans-48"/>
      </g>
     </g>
    </g>
    <g id="ytick_3">
     <g id="line2d_9">
      <g>
       <use style="stroke:#000000;stroke-width:0.8;" x="57.6" xlink:href="#mad1befa3ad" y="114.713919"/>
      </g>
     </g>
     <g id="text_9">
      <!-- 20 -->
      <g transform="translate(37.875 118.513138)scale(0.1 -0.1)">
       <use xlink:href="#DejaVuSans-50"/>
       <use x="63.623047" xlink:href="#DejaVuSans-48"/>
      </g>
     </g>
    </g>
    <g id="ytick_4">
     <g id="line2d_10">
      <g>
       <use style="stroke:#000000;stroke-width:0.8;" x="57.6" xlink:href="#mad1befa3ad" y="93.603969"/>
      </g>
     </g>
     <g id="text_10">
      <!-- 30 -->
      <defs>
       <path d="M 40.578125 39.3125 
Q 47.65625 37.796875 51.625 33 
Q 55.609375 28.21875 55.609375 21.1875 
Q 55.609375 10.40625 48.1875 4.484375 
Q 40.765625 -1.421875 27.09375 -1.421875 
Q 22.515625 -1.421875 17.65625 -0.515625 
Q 12.796875 0.390625 7.625 2.203125 
L 7.625 11.71875 
Q 11.71875 9.328125 16.59375 8.109375 
Q 21.484375 6.890625 26.8125 6.890625 
Q 36.078125 6.890625 40.9375 10.546875 
Q 45.796875 14.203125 45.796875 21.1875 
Q 45.796875 27.640625 41.28125 31.265625 
Q 36.765625 34.90625 28.71875 34.90625 
L 20.21875 34.90625 
L 20.21875 43.015625 
L 29.109375 43.015625 
Q 36.375 43.015625 40.234375 45.921875 
Q 44.09375 48.828125 44.09375 54.296875 
Q 44.09375 59.90625 40.109375 62.90625 
Q 36.140625 65.921875 28.71875 65.921875 
Q 24.65625 65.921875 20.015625 65.03125 
Q 15.375 64.15625 9.8125 62.3125 
L 9.8125 71.09375 
Q 15.4375 72.65625 20.34375 73.4375 
Q 25.25 74.21875 29.59375 74.21875 
Q 40.828125 74.21875 47.359375 69.109375 
Q 53.90625 64.015625 53.90625 55.328125 
Q 53.90625 49.265625 50.4375 45.09375 
Q 46.96875 40.921875 40.578125 39.3125 
z
" id="DejaVuSans-51"/>
      </defs>
      <g transform="translate(37.875 97.403188)scale(0.1 -0.1)">
       <use xlink:href="#DejaVuSans-51"/>
       <use x="63.623047" xlink:href="#DejaVuSans-48"/>
      </g>
     </g>
    </g>
    <g id="ytick_5">
     <g id="line2d_11">
      <g>
       <use style="stroke:#000000;stroke-width:0.8;" x="57.6" xlink:href="#mad1befa3ad" y="72.49402"/>
      </g>
     </g>
     <g id="text_11">
      <!-- 40 -->
      <g transform="translate(37.875 76.293238)scale(0.1 -0.1)">
       <use xlink:href="#DejaVuSans-52"/>
       <use x="63.623047" xlink:href="#DejaVuSans-48"/>
      </g>
     </g>
    </g>
    <g id="ytick_6">
     <g id="line2d_12">
      <g>
       <use style="stroke:#000000;stroke-width:0.8;" x="57.6" xlink:href="#mad1befa3ad" y="51.38407"/>
      </g>
     </g>
     <g id="text_12">
      <!-- 50 -->
      <defs>
       <path d="M 10.796875 72.90625 
L 49.515625 72.90625 
L 49.515625 64.59375 
L 19.828125 64.59375 
L 19.828125 46.734375 
Q 21.96875 47.46875 24.109375 47.828125 
Q 26.265625 48.1875 28.421875 48.1875 
Q 40.625 48.1875 47.75 41.5 
Q 54.890625 34.8125 54.890625 23.390625 
Q 54.890625 11.625 47.5625 5.09375 
Q 40.234375 -1.421875 26.90625 -1.421875 
Q 22.3125 -1.421875 17.546875 -0.640625 
Q 12.796875 0.140625 7.71875 1.703125 
L 7.71875 11.625 
Q 12.109375 9.234375 16.796875 8.0625 
Q 21.484375 6.890625 26.703125 6.890625 
Q 35.15625 6.890625 40.078125 11.328125 
Q 45.015625 15.765625 45.015625 23.390625 
Q 45.015625 31 40.078125 35.4375 
Q 35.15625 39.890625 26.703125 39.890625 
Q 22.75 39.890625 18.8125 39.015625 
Q 14.890625 38.140625 10.796875 36.28125 
z
" id="DejaVuSans-53"/>
      </defs>
      <g transform="translate(37.875 55.183289)scale(0.1 -0.1)">
       <use xlink:href="#DejaVuSans-53"/>
       <use x="63.623047" xlink:href="#DejaVuSans-48"/>
      </g>
     </g>
    </g>
    <g id="text_13">
     <!-- Pitch Diff Abs -->
     <defs>
      <path d="M 19.671875 64.796875 
L 19.671875 37.40625 
L 32.078125 37.40625 
Q 38.96875 37.40625 42.71875 40.96875 
Q 46.484375 44.53125 46.484375 51.125 
Q 46.484375 57.671875 42.71875 61.234375 
Q 38.96875 64.796875 32.078125 64.796875 
z
M 9.8125 72.90625 
L 32.078125 72.90625 
Q 44.34375 72.90625 50.609375 67.359375 
Q 56.890625 61.8125 56.890625 51.125 
Q 56.890625 40.328125 50.609375 34.8125 
Q 44.34375 29.296875 32.078125 29.296875 
L 19.671875 29.296875 
L 19.671875 0 
L 9.8125 0 
z
" id="DejaVuSans-80"/>
      <path d="M 9.421875 54.6875 
L 18.40625 54.6875 
L 18.40625 0 
L 9.421875 0 
z
M 9.421875 75.984375 
L 18.40625 75.984375 
L 18.40625 64.59375 
L 9.421875 64.59375 
z
" id="DejaVuSans-105"/>
      <path d="M 18.3125 70.21875 
L 18.3125 54.6875 
L 36.8125 54.6875 
L 36.8125 47.703125 
L 18.3125 47.703125 
L 18.3125 18.015625 
Q 18.3125 11.328125 20.140625 9.421875 
Q 21.96875 7.515625 27.59375 7.515625 
L 36.8125 7.515625 
L 36.8125 0 
L 27.59375 0 
Q 17.1875 0 13.234375 3.875 
Q 9.28125 7.765625 9.28125 18.015625 
L 9.28125 47.703125 
L 2.6875 47.703125 
L 2.6875 54.6875 
L 9.28125 54.6875 
L 9.28125 70.21875 
z
" id="DejaVuSans-116"/>
      <path d="M 48.78125 52.59375 
L 48.78125 44.1875 
Q 44.96875 46.296875 41.140625 47.34375 
Q 37.3125 48.390625 33.40625 48.390625 
Q 24.65625 48.390625 19.8125 42.84375 
Q 14.984375 37.3125 14.984375 27.296875 
Q 14.984375 17.28125 19.8125 11.734375 
Q 24.65625 6.203125 33.40625 6.203125 
Q 37.3125 6.203125 41.140625 7.25 
Q 44.96875 8.296875 48.78125 10.40625 
L 48.78125 2.09375 
Q 45.015625 0.34375 40.984375 -0.53125 
Q 36.96875 -1.421875 32.421875 -1.421875 
Q 20.0625 -1.421875 12.78125 6.34375 
Q 5.515625 14.109375 5.515625 27.296875 
Q 5.515625 40.671875 12.859375 48.328125 
Q 20.21875 56 33.015625 56 
Q 37.15625 56 41.109375 55.140625 
Q 45.0625 54.296875 48.78125 52.59375 
z
" id="DejaVuSans-99"/>
      <path d="M 54.890625 33.015625 
L 54.890625 0 
L 45.90625 0 
L 45.90625 32.71875 
Q 45.90625 40.484375 42.875 44.328125 
Q 39.84375 48.1875 33.796875 48.1875 
Q 26.515625 48.1875 22.3125 43.546875 
Q 18.109375 38.921875 18.109375 30.90625 
L 18.109375 0 
L 9.078125 0 
L 9.078125 75.984375 
L 18.109375 75.984375 
L 18.109375 46.1875 
Q 21.34375 51.125 25.703125 53.5625 
Q 30.078125 56 35.796875 56 
Q 45.21875 56 50.046875 50.171875 
Q 54.890625 44.34375 54.890625 33.015625 
z
" id="DejaVuSans-104"/>
      <path id="DejaVuSans-32"/>
      <path d="M 19.671875 64.796875 
L 19.671875 8.109375 
L 31.59375 8.109375 
Q 46.6875 8.109375 53.6875 14.9375 
Q 60.6875 21.78125 60.6875 36.53125 
Q 60.6875 51.171875 53.6875 57.984375 
Q 46.6875 64.796875 31.59375 64.796875 
z
M 9.8125 72.90625 
L 30.078125 72.90625 
Q 51.265625 72.90625 61.171875 64.09375 
Q 71.09375 55.28125 71.09375 36.53125 
Q 71.09375 17.671875 61.125 8.828125 
Q 51.171875 0 30.078125 0 
L 9.8125 0 
z
" id="DejaVuSans-68"/>
      <path d="M 37.109375 75.984375 
L 37.109375 68.5 
L 28.515625 68.5 
Q 23.6875 68.5 21.796875 66.546875 
Q 19.921875 64.59375 19.921875 59.515625 
L 19.921875 54.6875 
L 34.71875 54.6875 
L 34.71875 47.703125 
L 19.921875 47.703125 
L 19.921875 0 
L 10.890625 0 
L 10.890625 47.703125 
L 2.296875 47.703125 
L 2.296875 54.6875 
L 10.890625 54.6875 
L 10.890625 58.5 
Q 10.890625 67.625 15.140625 71.796875 
Q 19.390625 75.984375 28.609375 75.984375 
z
" id="DejaVuSans-102"/>
      <path d="M 34.1875 63.1875 
L 20.796875 26.90625 
L 47.609375 26.90625 
z
M 28.609375 72.90625 
L 39.796875 72.90625 
L 67.578125 0 
L 57.328125 0 
L 50.6875 18.703125 
L 17.828125 18.703125 
L 11.1875 0 
L 0.78125 0 
z
" id="DejaVuSans-65"/>
      <path d="M 48.6875 27.296875 
Q 48.6875 37.203125 44.609375 42.84375 
Q 40.53125 48.484375 33.40625 48.484375 
Q 26.265625 48.484375 22.1875 42.84375 
Q 18.109375 37.203125 18.109375 27.296875 
Q 18.109375 17.390625 22.1875 11.75 
Q 26.265625 6.109375 33.40625 6.109375 
Q 40.53125 6.109375 44.609375 11.75 
Q 48.6875 17.390625 48.6875 27.296875 
z
M 18.109375 46.390625 
Q 20.953125 51.265625 25.265625 53.625 
Q 29.59375 56 35.59375 56 
Q 45.5625 56 51.78125 48.09375 
Q 58.015625 40.1875 58.015625 27.296875 
Q 58.015625 14.40625 51.78125 6.484375 
Q 45.5625 -1.421875 35.59375 -1.421875 
Q 29.59375 -1.421875 25.265625 0.953125 
Q 20.953125 3.328125 18.109375 8.203125 
L 18.109375 0 
L 9.078125 0 
L 9.078125 75.984375 
L 18.109375 75.984375 
z
" id="DejaVuSans-98"/>
      <path d="M 44.28125 53.078125 
L 44.28125 44.578125 
Q 40.484375 46.53125 36.375 47.5 
Q 32.28125 48.484375 27.875 48.484375 
Q 21.1875 48.484375 17.84375 46.4375 
Q 14.5 44.390625 14.5 40.28125 
Q 14.5 37.15625 16.890625 35.375 
Q 19.28125 33.59375 26.515625 31.984375 
L 29.59375 31.296875 
Q 39.15625 29.25 43.1875 25.515625 
Q 47.21875 21.78125 47.21875 15.09375 
Q 47.21875 7.46875 41.1875 3.015625 
Q 35.15625 -1.421875 24.609375 -1.421875 
Q 20.21875 -1.421875 15.453125 -0.5625 
Q 10.6875 0.296875 5.421875 2 
L 5.421875 11.28125 
Q 10.40625 8.6875 15.234375 7.390625 
Q 20.0625 6.109375 24.8125 6.109375 
Q 31.15625 6.109375 34.5625 8.28125 
Q 37.984375 10.453125 37.984375 14.40625 
Q 37.984375 18.0625 35.515625 20.015625 
Q 33.0625 21.96875 24.703125 23.78125 
L 21.578125 24.515625 
Q 13.234375 26.265625 9.515625 29.90625 
Q 5.8125 33.546875 5.8125 39.890625 
Q 5.8125 47.609375 11.28125 51.796875 
Q 16.75 56 26.8125 56 
Q 31.78125 56 36.171875 55.265625 
Q 40.578125 54.546875 44.28125 53.078125 
z
" id="DejaVuSans-115"/>
     </defs>
     <g transform="translate(31.795312 135.369188)rotate(-90)scale(0.1 -0.1)">
      <use xlink:href="#DejaVuSans-80"/>
      <use x="60.271484" xlink:href="#DejaVuSans-105"/>
      <use x="88.054688" xlink:href="#DejaVuSans-116"/>
      <use x="127.263672" xlink:href="#DejaVuSans-99"/>
      <use x="182.244141" xlink:href="#DejaVuSans-104"/>
      <use x="245.623047" xlink:href="#DejaVuSans-32"/>
      <use x="277.410156" xlink:href="#DejaVuSans-68"/>
      <use x="354.412109" xlink:href="#DejaVuSans-105"/>
      <use x="382.195312" xlink:href="#DejaVuSans-102"/>
      <use x="417.400391" xlink:href="#DejaVuSans-102"/>
      <use x="452.605469" xlink:href="#DejaVuSans-32"/>
      <use x="484.392578" xlink:href="#DejaVuSans-65"/>
      <use x="552.800781" xlink:href="#DejaVuSans-98"/>
      <use x="616.277344" xlink:href="#DejaVuSans-115"/>
     </g>
    </g>
   </g>
   <g id="line2d_13">
    <path clip-path="url(#p5d2ddafebc)" d="M 73.832727 156.933818 
L 91.724511 156.933818 
L 92.049816 156.478803 
L 92.700426 156.57014 
L 93.025731 156.491736 
L 93.351037 156.640585 
L 93.676342 156.443844 
L 94.001647 148.265375 
L 94.326952 156.933818 
L 102.459581 156.933818 
L 102.784886 151.364336 
L 103.110191 156.906858 
L 104.736717 156.894682 
L 105.062022 151.402241 
L 105.387327 156.933818 
L 109.616294 156.933818 
L 109.9416 146.992306 
L 110.266905 156.556657 
L 110.917515 156.230631 
L 111.24282 155.807515 
L 111.568125 155.869017 
L 111.89343 155.469744 
L 112.218736 156.137939 
L 112.544041 156.377057 
L 112.869346 156.435798 
L 113.194651 156.699545 
L 116.122398 156.929486 
L 116.447703 156.484139 
L 116.773008 156.630008 
L 117.098313 156.274943 
L 117.423618 156.567594 
L 117.748923 156.579154 
L 118.074228 156.357105 
L 118.399534 156.554862 
L 118.724839 149.426489 
L 119.050144 155.561502 
L 119.375449 155.963456 
L 119.700754 156.184509 
L 120.026059 156.823538 
L 121.32728 156.855819 
L 121.652585 155.626344 
L 121.97789 156.567283 
L 122.303195 156.929976 
L 122.628501 156.919643 
L 122.953806 154.064357 
L 123.604416 156.69462 
L 123.929721 156.857771 
L 124.255026 155.479353 
L 124.580332 155.816641 
L 124.905637 156.870862 
L 125.556247 155.145912 
L 125.881552 156.885804 
L 126.206857 156.607379 
L 126.532163 154.916226 
L 126.857468 156.367172 
L 127.182773 141.249611 
L 127.508078 156.216278 
L 127.833383 156.912438 
L 130.110519 152.995778 
L 130.435824 154.855926 
L 130.76113 153.8058 
L 131.086435 151.153474 
L 131.41174 156.933818 
L 132.387655 156.933818 
L 132.71296 156.65264 
L 133.038266 154.804329 
L 134.014181 156.736867 
L 134.990097 156.773119 
L 135.315402 156.038456 
L 135.640707 156.493264 
L 135.966012 154.790779 
L 136.291317 156.300412 
L 136.616622 156.615895 
L 136.941927 156.386108 
L 137.267233 156.861091 
L 137.917843 154.279737 
L 138.243148 154.942377 
L 138.568453 154.617149 
L 138.893758 156.903733 
L 140.194979 156.933818 
L 143.448031 156.933818 
L 143.773336 156.656077 
L 144.098641 148.008584 
L 144.423946 143.049025 
L 144.749251 156.259725 
L 145.074556 156.384188 
L 145.399862 155.316376 
L 145.725167 148.751226 
L 146.050472 147.409144 
L 146.701082 156.933818 
L 157.110847 156.933818 
L 157.436152 155.932976 
L 157.761457 154.438771 
L 158.412068 155.631905 
L 158.737373 156.811785 
L 159.062678 156.423707 
L 159.387983 155.545068 
L 159.713288 156.323972 
L 160.038594 155.236071 
L 160.363899 155.360408 
L 160.689204 155.981937 
L 161.014509 156.933818 
L 162.641035 156.933818 
L 162.96634 155.307183 
L 163.291645 155.131554 
L 163.61695 156.284264 
L 163.942255 156.902339 
L 164.592866 156.892775 
L 164.918171 155.554073 
L 165.243476 156.421436 
L 165.568781 156.895874 
L 166.219392 156.898378 
L 166.544697 150.103868 
L 166.870002 156.914161 
L 168.171222 156.892043 
L 168.496528 155.718718 
L 168.821833 155.53735 
L 169.147138 156.728266 
L 169.472443 156.885162 
L 169.797748 156.49961 
L 170.123053 155.434035 
L 170.448359 155.601041 
L 170.773664 153.781904 
L 171.098969 153.213786 
L 171.424274 154.235577 
L 171.749579 155.702709 
L 172.400189 156.644501 
L 172.725495 154.050263 
L 173.0508 154.876062 
L 173.376105 155.232187 
L 174.026715 153.846945 
L 174.35202 147.32274 
L 174.677326 155.457055 
L 175.327936 156.848572 
L 175.653241 156.415234 
L 175.978546 155.612006 
L 176.303851 155.613489 
L 176.629156 154.160261 
L 176.954462 154.557387 
L 177.279767 152.932132 
L 177.605072 156.531553 
L 177.930377 151.094684 
L 178.255682 154.464912 
L 178.580987 152.229588 
L 178.906293 151.21166 
L 179.231598 155.300233 
L 179.556903 151.454293 
L 179.882208 154.464327 
L 180.207513 152.862194 
L 180.532818 141.477409 
L 180.858124 146.064529 
L 181.183429 154.906087 
L 181.508734 147.185451 
L 181.834039 143.838518 
L 182.159344 144.772537 
L 182.484649 108.916667 
L 182.809954 154.288022 
L 183.13526 156.832454 
L 183.460565 152.20006 
L 183.78587 153.72978 
L 184.111175 156.337509 
L 184.43648 152.191446 
L 184.761785 154.789626 
L 185.087091 151.791355 
L 185.412396 155.416573 
L 185.737701 154.544393 
L 186.063006 156.405813 
L 186.388311 156.785786 
L 186.713616 147.046752 
L 187.038921 149.167876 
L 187.364227 156.933818 
L 188.014837 147.964795 
L 188.340142 144.12632 
L 188.665447 156.875255 
L 189.641363 156.821527 
L 189.966668 154.279115 
L 190.291973 149.190591 
L 190.617278 156.925853 
L 193.87033 156.786025 
L 194.195635 155.986777 
L 194.52094 155.774896 
L 194.846245 156.879262 
L 195.17155 155.777624 
L 195.496856 155.626712 
L 195.822161 156.933818 
L 196.798076 156.933818 
L 197.123381 147.690624 
L 197.448686 151.760116 
L 197.773992 147.262322 
L 198.099297 154.394126 
L 198.424602 152.439803 
L 198.749907 155.501551 
L 199.075212 150.184325 
L 199.400517 156.309717 
L 200.051128 152.203311 
L 200.376433 151.442493 
L 200.701738 156.525016 
L 201.027043 153.700632 
L 201.352348 154.394454 
L 201.677653 154.806195 
L 202.002959 155.957902 
L 202.328264 152.352204 
L 202.653569 155.102151 
L 202.978874 152.601169 
L 203.304179 155.251584 
L 203.629484 156.638796 
L 203.95479 122.17544 
L 204.280095 150.952337 
L 204.6054 148.92738 
L 204.930705 152.347458 
L 205.25601 148.211582 
L 205.581315 153.894107 
L 205.906621 156.933818 
L 207.533146 156.933818 
L 207.858451 156.523774 
L 208.509062 156.692444 
L 208.834367 155.710351 
L 209.159672 156.821351 
L 209.484977 56.744765 
L 209.810282 156.89398 
L 210.135588 156.915122 
L 210.460893 153.660756 
L 211.111503 156.054785 
L 211.436808 152.261208 
L 211.762113 155.688993 
L 212.087418 156.881168 
L 212.412724 156.062772 
L 212.738029 152.780412 
L 213.063334 155.403387 
L 213.388639 150.458737 
L 213.713944 155.56616 
L 214.039249 112.550665 
L 214.364555 155.462349 
L 214.68986 155.761559 
L 215.015165 155.616336 
L 215.34047 154.614232 
L 215.665775 155.250294 
L 216.316385 154.987297 
L 216.641691 155.445109 
L 216.966996 155.685488 
L 217.292301 155.427038 
L 217.617606 156.085065 
L 218.268216 156.513465 
L 218.593522 156.619101 
L 218.918827 155.919752 
L 219.244132 156.600213 
L 219.569437 156.299534 
L 219.894742 156.831675 
L 225.750235 156.795672 
L 226.07554 154.197583 
L 226.400845 156.11549 
L 226.72615 153.332906 
L 227.051456 155.400025 
L 227.376761 152.218475 
L 227.702066 152.587591 
L 228.027371 156.228407 
L 228.352676 156.74079 
L 228.677981 154.895315 
L 229.003287 150.88936 
L 229.328592 156.282579 
L 229.653897 156.843925 
L 229.979202 152.113508 
L 230.304507 144.665891 
L 230.629812 148.231512 
L 230.955118 156.608842 
L 231.931033 156.549262 
L 232.256338 156.759925 
L 232.581643 155.820992 
L 232.906948 152.721607 
L 233.232254 154.111912 
L 233.557559 153.071045 
L 233.882864 156.922574 
L 238.111831 156.914156 
L 242.991408 156.906153 
L 251.774647 156.85814 
L 252.099953 154.708594 
L 252.425258 155.745025 
L 252.750563 156.295111 
L 253.401173 155.071595 
L 253.726478 156.933818 
L 255.027699 156.933818 
L 255.353004 145.38342 
L 255.678309 155.885927 
L 256.003615 155.854766 
L 256.32892 147.847279 
L 256.654225 151.363926 
L 256.97953 151.830799 
L 257.304835 155.741707 
L 257.63014 156.40735 
L 257.955445 156.495707 
L 258.280751 154.762941 
L 258.606056 156.8827 
L 258.931361 156.672393 
L 259.256666 151.506979 
L 259.581971 154.137266 
L 259.907276 153.03132 
L 260.232582 155.880999 
L 260.557887 156.436333 
L 260.883192 156.374409 
L 261.533802 155.747248 
L 261.859107 155.984196 
L 262.184412 156.541289 
L 262.509718 156.166472 
L 262.835023 153.911796 
L 263.160328 155.155544 
L 263.485633 154.305405 
L 263.810938 147.360132 
L 264.136243 156.10677 
L 264.461549 151.717781 
L 265.112159 156.578221 
L 265.437464 153.108908 
L 266.088074 154.114603 
L 266.413379 153.511422 
L 266.738685 155.23973 
L 267.389295 155.945995 
L 267.7146 156.860215 
L 268.039905 156.545839 
L 268.36521 155.371699 
L 268.690516 141.555008 
L 269.015821 155.572279 
L 269.341126 155.669627 
L 269.666431 156.778516 
L 269.991736 154.876244 
L 270.317041 154.259174 
L 270.642347 152.81251 
L 270.967652 155.802923 
L 271.292957 156.58407 
L 271.618262 156.8084 
L 272.268872 156.719706 
L 272.594177 156.820238 
L 272.919483 152.299588 
L 273.244788 155.983659 
L 273.570093 156.664038 
L 273.895398 152.328091 
L 274.220703 156.756197 
L 274.546008 153.938795 
L 274.871314 156.781765 
L 275.196619 154.79713 
L 275.521924 155.618863 
L 275.847229 154.030823 
L 276.172534 156.098762 
L 276.497839 156.933818 
L 276.823144 156.933818 
L 277.473755 151.816343 
L 277.79906 156.141644 
L 278.124365 156.113926 
L 278.44967 155.728836 
L 279.100281 155.699226 
L 279.425586 144.342396 
L 279.750891 154.643757 
L 280.076196 153.881374 
L 280.401501 154.35342 
L 280.726806 155.68293 
L 281.052111 154.581022 
L 281.377417 155.034741 
L 281.702722 156.058737 
L 282.028027 156.178952 
L 282.353332 152.826871 
L 282.678637 154.204421 
L 283.003942 154.928691 
L 283.329248 153.327402 
L 283.654553 153.825409 
L 283.979858 156.933818 
L 284.305163 156.933818 
L 284.630468 154.848964 
L 284.955773 156.933326 
L 292.763097 156.924856 
L 298.943895 156.933344 
L 299.2692 151.120007 
L 299.594505 154.967042 
L 299.919811 155.50185 
L 300.245116 156.921452 
L 300.570421 156.91495 
L 300.895726 156.289721 
L 301.221031 154.41768 
L 301.546336 155.384052 
L 301.871641 156.828592 
L 302.522252 156.827533 
L 302.847557 152.444067 
L 303.172862 156.933818 
L 303.498167 156.489952 
L 303.823472 156.929104 
L 304.474083 156.925755 
L 304.799388 156.71451 
L 305.124693 155.126191 
L 305.775303 155.077771 
L 306.100608 154.565182 
L 306.425914 156.790682 
L 308.052439 156.670678 
L 308.377745 147.765689 
L 308.70305 156.933818 
L 314.558543 156.933818 
L 314.883848 156.056826 
L 315.209153 154.611039 
L 315.534458 155.858732 
L 315.859763 155.632785 
L 316.185068 151.357927 
L 316.510373 156.933818 
L 316.835679 156.933818 
L 317.160984 150.035631 
L 317.486289 156.798066 
L 318.462204 156.815641 
L 319.112815 156.721045 
L 319.43812 156.830607 
L 319.763425 155.054317 
L 320.08873 154.351036 
L 320.414035 156.819328 
L 321.064646 156.799043 
L 321.389951 156.794137 
L 321.715256 155.307914 
L 322.040561 155.771359 
L 322.365866 156.48792 
L 322.691171 153.953037 
L 323.016477 155.061149 
L 323.341782 149.252533 
L 323.667087 156.844106 
L 323.992392 153.064768 
L 324.317697 153.366424 
L 324.643002 156.931475 
L 324.968308 156.724985 
L 326.269528 156.832368 
L 326.594833 156.587963 
L 326.920138 156.636859 
L 327.896054 156.481277 
L 328.546664 156.576499 
L 328.871969 148.115551 
L 329.197275 154.555621 
L 329.52258 156.853149 
L 330.17319 156.933818 
L 330.8238 156.933818 
L 331.149105 152.375692 
L 331.474411 156.746042 
L 331.799716 154.630763 
L 332.125021 153.845331 
L 332.450326 155.912626 
L 332.775631 156.933818 
L 333.426242 156.933818 
L 333.751547 156.083667 
L 334.076852 154.676914 
L 334.402157 156.782543 
L 334.727462 156.835383 
L 335.052767 156.698285 
L 335.378073 155.887866 
L 335.703378 156.825967 
L 336.353988 156.841956 
L 336.679293 153.011126 
L 337.004598 156.908556 
L 337.329903 153.200248 
L 337.655209 153.05525 
L 337.980514 156.837857 
L 338.305819 156.898672 
L 338.631124 153.679411 
L 338.956429 156.250939 
L 339.281734 155.764237 
L 339.60704 156.574277 
L 339.932345 155.606633 
L 340.25765 156.500357 
L 340.90826 155.879012 
L 341.233565 156.865974 
L 343.836007 156.911355 
L 344.161312 156.031495 
L 344.486617 145.506123 
L 344.811922 156.921778 
L 345.137227 156.103684 
L 345.462532 156.883473 
L 345.787837 152.466936 
L 346.113143 151.254203 
L 346.763753 152.808195 
L 347.089058 153.542911 
L 347.414363 151.795354 
L 347.739668 154.056961 
L 348.064974 149.735152 
L 348.390279 156.037326 
L 348.715584 155.323886 
L 349.040889 155.647045 
L 349.366194 138.608219 
L 349.691499 140.567752 
L 350.016805 148.66683 
L 350.34211 151.422805 
L 350.667415 155.962547 
L 350.99272 155.069334 
L 351.64333 151.638516 
L 351.968635 146.033749 
L 352.293941 143.082015 
L 352.619246 155.989882 
L 352.944551 142.87241 
L 353.269856 150.654783 
L 353.595161 151.629314 
L 353.920466 155.239408 
L 354.245772 156.37414 
L 354.571077 154.832445 
L 354.896382 154.136071 
L 355.221687 150.78247 
L 355.546992 151.273863 
L 355.872297 146.939076 
L 356.197602 148.317115 
L 356.522908 149.132449 
L 356.848213 146.808838 
L 357.173518 148.10892 
L 357.498823 152.805689 
L 357.824128 154.964526 
L 358.149433 91.808514 
L 358.474739 156.933818 
L 360.751875 156.933818 
L 361.07718 156.759826 
L 361.402485 154.760569 
L 362.053095 156.89996 
L 364.330231 156.874087 
L 364.655537 149.3231 
L 364.980842 155.670888 
L 365.306147 155.993848 
L 365.631452 155.800839 
L 366.932673 156.875822 
L 367.583283 156.274919 
L 367.908588 156.397623 
L 368.559198 152.470409 
L 368.884504 156.837123 
L 369.209809 156.763137 
L 369.535114 155.950117 
L 370.185724 156.881014 
L 370.836334 156.847061 
L 374.739996 156.808832 
L 375.065302 155.7666 
L 375.715912 155.071537 
L 376.366522 156.21676 
L 376.691827 156.343969 
L 377.017132 156.766266 
L 377.342438 155.826992 
L 377.993048 155.395065 
L 378.318353 156.162547 
L 379.294269 156.868278 
L 379.944879 156.525203 
L 380.270184 155.957274 
L 380.595489 156.032589 
L 380.920794 155.917345 
L 381.246099 155.144027 
L 381.571405 141.133068 
L 381.89671 154.887563 
L 382.222015 152.141962 
L 382.872625 154.23665 
L 383.19793 154.841605 
L 383.848541 156.93107 
L 384.499151 156.872375 
L 384.824456 155.857394 
L 385.149761 155.272483 
L 385.475066 155.638008 
L 385.800372 154.385076 
L 386.450982 143.353405 
L 386.776287 154.573717 
L 387.101592 156.734531 
L 387.426897 153.877366 
L 387.752203 155.291521 
L 388.077508 154.683831 
L 388.402813 155.954529 
L 388.728118 156.583904 
L 389.053423 156.461443 
L 389.378728 154.196107 
L 389.704034 154.947141 
L 390.029339 155.333339 
L 390.679949 154.458913 
L 391.005254 155.142205 
L 391.330559 156.905871 
L 393.28239 156.93291 
L 394.258306 156.916782 
L 394.583611 155.003794 
L 394.908916 155.754305 
L 395.234221 156.881582 
L 396.210137 156.933818 
L 398.487273 156.933818 
L 398.487273 156.933818 
" style="fill:none;stroke:#ff0000;stroke-dasharray:5.55,2.4;stroke-dashoffset:0;stroke-width:1.5;"/>
   </g>
   <g id="line2d_14">
    <path clip-path="url(#p5d2ddafebc)" d="M 73.832727 156.933818 
L 82.615966 156.933818 
L 82.941272 99.553136 
L 83.266577 156.933818 
L 85.218408 156.933818 
L 85.543713 98.785504 
L 85.869018 142.924487 
L 86.194323 156.933818 
L 86.519628 156.933818 
L 86.844934 156.166183 
L 87.170239 153.479463 
L 87.820849 155.20664 
L 88.146154 151.752285 
L 88.471459 154.822823 
L 88.796764 156.166183 
L 89.12207 156.933818 
L 89.77268 155.20664 
L 90.097985 156.933818 
L 90.42329 156.933818 
L 90.748595 154.027834 
L 91.073901 154.829464 
L 91.399206 155.204833 
L 91.724511 153.722131 
L 92.049816 154.241479 
L 92.375121 155.445417 
L 92.700426 155.307658 
L 93.025731 152.324683 
L 93.351037 156.933818 
L 94.977562 156.933818 
L 95.302868 156.550001 
L 95.628173 155.782366 
L 95.953478 154.055188 
L 96.278783 156.358093 
L 96.604088 156.933818 
L 98.230614 156.933818 
L 98.555919 154.142256 
L 98.881224 156.249913 
L 99.206529 153.921706 
L 99.531835 156.298257 
L 99.85714 156.188788 
L 100.182445 147.367009 
L 100.50775 154.687098 
L 100.833055 154.080617 
L 101.15836 156.18321 
L 101.483666 151.955758 
L 101.808971 154.366809 
L 102.134276 146.701212 
L 102.459581 149.604347 
L 102.784886 150.099657 
L 103.110191 156.428492 
L 103.435496 156.450708 
L 103.760802 155.185113 
L 104.086107 156.925365 
L 104.736717 156.932946 
L 105.062022 154.822511 
L 105.387327 151.752091 
L 105.712633 156.549961 
L 106.037938 156.933802 
L 106.363243 156.933818 
L 106.688548 147.914115 
L 107.013853 145.035484 
L 107.339158 146.954569 
L 107.664463 154.439006 
L 107.989769 156.933818 
L 108.315074 156.933818 
L 108.640379 136.207687 
L 108.965684 156.933818 
L 109.290989 156.933818 
L 109.616294 156.74191 
L 109.9416 156.166184 
L 110.266905 156.933818 
L 110.59221 156.550001 
L 111.24282 154.630915 
L 111.568125 154.439006 
L 111.89343 154.055188 
L 112.218736 154.247098 
L 112.544041 156.358092 
L 112.869346 154.630915 
L 113.194651 150.408931 
L 113.519956 154.142258 
L 113.845261 156.249911 
L 114.495872 156.796894 
L 114.821177 155.565228 
L 115.146482 152.605032 
L 115.471787 153.236666 
L 115.797092 152.69844 
L 116.122398 155.758944 
L 116.447703 155.972323 
L 116.773008 156.475656 
L 117.098313 154.002295 
L 117.423618 156.356965 
L 117.748923 156.572259 
L 118.074228 156.252639 
L 118.399534 156.469594 
L 118.724839 155.561159 
L 119.050144 156.445162 
L 119.375449 153.97146 
L 119.700754 156.095445 
L 120.026059 155.737558 
L 120.351365 156.508044 
L 120.67667 155.985254 
L 121.001975 154.173449 
L 121.32728 156.686837 
L 121.652585 156.785626 
L 121.97789 154.627408 
L 122.303195 155.523134 
L 122.953806 154.586107 
L 123.279111 156.417168 
L 123.604416 156.8975 
L 123.929721 155.201114 
L 124.255026 156.80415 
L 124.580332 156.899704 
L 124.905637 155.86452 
L 125.230942 155.230384 
L 125.556247 155.399424 
L 125.881552 154.738508 
L 126.206857 156.380351 
L 126.532163 156.51204 
L 126.857468 155.767655 
L 127.182773 151.625428 
L 127.508078 154.833079 
L 127.833383 156.745009 
L 128.158688 156.933354 
L 128.483993 155.47406 
L 128.809299 155.230384 
L 129.134604 154.317048 
L 129.459909 155.782621 
L 129.785214 156.403371 
L 130.110519 156.315268 
L 130.435824 155.230384 
L 130.76113 155.399423 
L 131.086435 154.546603 
L 131.41174 154.041757 
L 131.737045 156.520365 
L 132.06235 152.656464 
L 132.387655 152.283266 
L 132.71296 155.966262 
L 133.363571 153.933231 
L 133.688876 155.64697 
L 134.014181 154.109746 
L 134.339486 154.334165 
L 134.664791 156.169325 
L 134.990097 151.906602 
L 135.315402 156.584248 
L 135.640707 155.894516 
L 135.966012 154.693876 
L 136.291317 155.497723 
L 136.616622 155.8434 
L 136.941927 140.371265 
L 137.267233 151.743514 
L 137.592538 151.558829 
L 137.917843 154.822578 
L 138.243148 155.398482 
L 138.568453 154.247084 
L 138.893758 154.599519 
L 139.219064 155.408832 
L 139.544369 151.162043 
L 139.869674 156.299017 
L 140.194979 156.059571 
L 140.520284 156.100981 
L 140.845589 156.855287 
L 141.170895 153.958908 
L 141.4962 156.907282 
L 141.821505 154.276247 
L 142.14681 156.747045 
L 142.472115 155.973344 
L 142.79742 156.933693 
L 143.122725 155.782406 
L 143.448031 156.933818 
L 143.773336 155.473989 
L 144.098641 152.723228 
L 144.423946 155.381472 
L 144.749251 153.46495 
L 145.074556 156.033349 
L 145.399862 152.654746 
L 145.725167 156.319684 
L 146.050472 152.04563 
L 146.375777 154.71197 
L 146.701082 146.251056 
L 147.026387 153.126703 
L 147.351692 152.134237 
L 147.676998 156.876835 
L 148.652913 156.93345 
L 148.978218 156.933711 
L 149.303523 153.863265 
L 149.628829 155.974276 
L 149.954134 154.439006 
L 150.279439 155.473989 
L 150.604744 155.409949 
L 150.930049 154.218072 
L 151.255354 155.782619 
L 151.58066 156.630968 
L 151.905965 153.449178 
L 152.23127 156.017094 
L 152.556575 153.699737 
L 152.88188 156.13123 
L 153.207185 155.479605 
L 153.53249 153.874846 
L 153.857796 155.954259 
L 154.183101 153.890663 
L 154.508406 153.790815 
L 154.833711 156.594618 
L 155.159016 154.803972 
L 155.484321 154.569314 
L 155.809627 154.146555 
L 156.134932 154.64084 
L 156.785542 156.512397 
L 157.436152 156.879 
L 157.761457 155.790927 
L 158.086763 155.498584 
L 158.412068 156.422271 
L 158.737373 156.196928 
L 159.062678 156.850631 
L 159.387983 156.298257 
L 160.038594 154.408719 
L 160.363899 156.17834 
L 160.689204 152.981097 
L 161.014509 153.898442 
L 161.665119 156.912602 
L 161.990424 151.955758 
L 162.31573 155.854563 
L 162.641035 156.549149 
L 162.96634 153.299119 
L 163.291645 155.854564 
L 163.61695 156.781911 
L 163.942255 155.014479 
L 164.267561 156.03516 
L 164.918171 156.751485 
L 165.894086 156.927104 
L 167.845917 156.933789 
L 168.171222 155.769402 
L 168.496528 155.498584 
L 168.821833 156.249913 
L 169.147138 155.207039 
L 169.797748 156.162606 
L 170.123053 155.25907 
L 170.448359 155.009993 
L 170.773664 156.017095 
L 171.098969 154.43416 
L 171.424274 155.066447 
L 171.749579 156.010456 
L 172.074884 153.809293 
L 172.725495 143.824784 
L 173.0508 154.58408 
L 173.376105 155.900385 
L 173.70141 156.661647 
L 174.026715 156.81074 
L 174.35202 156.590735 
L 174.677326 156.159469 
L 175.002631 156.929789 
L 175.653241 153.863001 
L 175.978546 150.112324 
L 176.303851 156.659612 
L 176.629156 156.907743 
L 177.930377 156.933693 
L 178.255682 156.741944 
L 178.580987 156.358089 
L 178.906293 146.954569 
L 179.231598 150.600834 
L 179.556903 155.590458 
L 179.882208 156.933818 
L 180.207513 156.933818 
L 180.532818 156.358092 
L 180.858124 156.550001 
L 181.183429 156.933818 
L 182.484649 156.933818 
L 182.809954 154.334165 
L 183.13526 156.249913 
L 183.460565 155.013069 
L 183.78587 156.550255 
L 184.111175 154.077794 
L 184.43648 155.30014 
L 184.761785 153.154675 
L 185.087091 148.818972 
L 185.412396 155.152655 
L 185.737701 136.974767 
L 186.063006 151.335304 
L 186.388311 150.376605 
L 186.713616 156.100232 
L 187.038921 155.01113 
L 187.364227 156.370412 
L 187.689532 156.593688 
L 188.340142 153.102516 
L 188.665447 155.400568 
L 188.990752 155.193939 
L 189.316058 155.192254 
L 189.641363 154.829465 
L 189.966668 155.21541 
L 190.291973 143.716538 
L 190.617278 156.166184 
L 190.942583 154.247097 
L 191.267889 156.358093 
L 191.593194 156.933818 
L 191.918499 156.166183 
L 192.243804 156.74191 
L 192.569109 156.550001 
L 192.894414 156.933818 
L 193.219719 155.782366 
L 193.545025 156.933818 
L 193.87033 156.933818 
L 194.195635 156.358093 
L 194.52094 156.933818 
L 194.846245 156.933818 
L 195.17155 154.791425 
L 195.496856 155.912945 
L 195.822161 155.086742 
L 196.147466 155.215412 
L 196.472771 156.481748 
L 196.798076 153.449177 
L 197.123381 156.209003 
L 197.448686 155.235008 
L 197.773992 156.412776 
L 198.099297 153.809294 
L 198.424602 154.783405 
L 198.749907 156.743435 
L 199.075212 154.556986 
L 199.725823 156.449453 
L 200.051128 153.601703 
L 200.376433 155.900385 
L 200.701738 156.603555 
L 201.027043 156.868832 
L 201.352348 156.590735 
L 201.677653 153.856565 
L 202.002959 136.779383 
L 202.328264 153.862219 
L 202.653569 155.973997 
L 202.978874 155.974216 
L 203.304179 156.933782 
L 203.629484 156.933818 
L 203.95479 146.954572 
L 204.280095 156.933818 
L 204.6054 156.933818 
L 204.930705 156.550001 
L 205.25601 152.328011 
L 205.906621 156.933818 
L 207.207841 156.933818 
L 207.533146 156.358093 
L 207.858451 156.550001 
L 208.509062 153.479464 
L 208.834367 153.287554 
L 209.159672 138.510589 
L 209.810282 154.055189 
L 210.135588 156.358092 
L 210.460893 156.933818 
L 211.111503 156.933818 
L 211.436808 150.025107 
L 211.762113 137.742956 
L 212.087418 138.89441 
L 212.412724 154.247096 
L 212.738029 153.863281 
L 213.063334 145.995024 
L 213.713944 151.752285 
L 214.039249 156.933818 
L 214.68986 156.933818 
L 215.015165 156.74191 
L 215.34047 145.61121 
L 215.665775 141.389218 
L 215.99108 154.797423 
L 216.316385 155.715042 
L 216.641691 150.771424 
L 216.966996 134.229135 
L 217.292301 150.837944 
L 217.617606 156.735784 
L 217.942911 156.03717 
L 218.268216 155.937259 
L 218.593522 156.7109 
L 218.918827 153.083163 
L 219.244132 154.748605 
L 219.569437 152.677052 
L 219.894742 154.978955 
L 220.220047 156.419546 
L 220.545353 151.955758 
L 220.870658 155.624214 
L 221.195963 156.589295 
L 221.846573 152.315691 
L 222.171878 154.39532 
L 222.497183 153.134637 
L 222.822489 156.36835 
L 223.147794 156.931123 
L 223.473099 156.933108 
L 223.798404 155.974463 
L 224.449014 144.65168 
L 225.099625 155.974275 
L 225.42493 156.933818 
L 225.750235 156.933818 
L 226.07554 156.550001 
L 226.400845 156.358092 
L 226.72615 155.20664 
L 227.051456 156.933818 
L 227.376761 152.51992 
L 228.027371 156.933818 
L 228.677981 156.933818 
L 229.328592 155.974275 
L 229.653897 156.74191 
L 229.979202 156.550001 
L 230.304507 156.933818 
L 230.629812 156.933818 
L 230.955118 154.334165 
L 231.280423 156.249913 
L 231.605728 153.537889 
L 231.931033 155.58688 
L 232.256338 152.375703 
L 232.581643 156.017095 
L 232.906948 153.315921 
L 233.232254 156.116671 
L 233.557559 156.92133 
L 233.882864 151.05887 
L 234.208169 154.748895 
L 234.533474 156.624221 
L 234.858779 155.799787 
L 235.184085 153.671922 
L 235.50939 154.28026 
L 235.834695 153.598907 
L 236.16 154.210562 
L 236.485305 156.093717 
L 236.81061 144.34353 
L 237.135915 156.04674 
L 237.461221 156.379263 
L 237.786526 156.318502 
L 238.111831 155.667494 
L 238.437136 156.739399 
L 238.762441 154.810966 
L 239.087746 156.230503 
L 239.413052 156.765733 
L 239.738357 156.019854 
L 240.063662 154.623823 
L 240.388967 156.823033 
L 240.714272 156.916351 
L 241.039577 156.362892 
L 241.364882 156.740727 
L 241.690188 154.055002 
L 242.015493 145.994972 
L 242.340798 156.93381 
L 242.666103 156.741908 
L 242.991408 155.590458 
L 243.316713 152.328011 
L 243.642019 156.933818 
L 243.967324 154.791425 
L 244.292629 155.912945 
L 244.617934 155.399421 
L 244.943239 155.157933 
L 245.268544 156.229246 
L 246.24446 156.91094 
L 246.89507 156.932757 
L 247.220375 156.742201 
L 247.54568 156.933748 
L 247.870986 156.933806 
L 248.196291 155.974274 
L 248.521596 150.408925 
L 248.846901 156.358093 
L 249.172206 155.473989 
L 249.497511 156.5614 
L 249.822817 156.183258 
L 250.148122 154.002294 
L 250.473427 156.162606 
L 250.798732 156.46604 
L 251.124037 151.969238 
L 251.449342 154.340442 
L 251.774647 154.080616 
L 252.099953 156.18321 
L 252.425258 151.955759 
L 252.750563 155.624211 
L 253.075868 152.868958 
L 253.401173 155.170863 
L 253.726478 155.912826 
L 254.051784 154.258662 
L 254.377089 149.607537 
L 254.702394 155.555679 
L 255.027699 155.362771 
L 255.353004 156.549149 
L 255.678309 151.955759 
L 256.003615 155.624212 
L 256.32892 156.066292 
L 256.654225 156.704965 
L 256.97953 156.092805 
L 257.304835 156.712568 
L 257.63014 156.88585 
L 258.606056 156.931578 
L 258.931361 154.438297 
L 259.256666 152.903584 
L 259.581971 147.72213 
L 259.907276 153.287538 
L 260.232582 155.590461 
L 260.557887 156.933818 
L 261.208497 156.933818 
L 261.533802 154.630917 
L 261.859107 156.358093 
L 262.184412 152.328013 
L 262.509718 156.933818 
L 265.437464 156.933818 
L 265.762769 154.791429 
L 266.088074 155.912944 
L 266.413379 155.591333 
L 266.738685 154.969926 
L 267.06399 156.800985 
L 267.389295 153.893566 
L 267.7146 155.547638 
L 268.039905 153.507832 
L 268.690516 156.604712 
L 269.015821 152.723392 
L 269.341126 155.757683 
L 269.666431 153.26721 
L 269.991736 155.092658 
L 270.317041 156.056483 
L 270.642347 154.035018 
L 270.967652 154.399587 
L 271.292957 155.782334 
L 271.618262 152.368862 
L 271.943567 156.267665 
L 272.268872 156.370405 
L 272.594177 156.811669 
L 273.570093 156.930498 
L 273.895398 154.053607 
L 274.220703 155.78195 
L 274.546008 151.560268 
L 274.871314 152.903709 
L 275.196619 150.025103 
L 275.521924 151.368469 
L 275.847229 156.166184 
L 276.172534 148.681747 
L 276.497839 150.792742 
L 276.823144 149.257473 
L 277.473755 154.247097 
L 277.79906 153.86328 
L 278.124365 156.166183 
L 278.44967 156.933818 
L 279.100281 156.933818 
L 279.425586 156.550001 
L 279.750891 155.590458 
L 280.076196 156.933818 
L 283.003942 156.933818 
L 283.329248 149.64129 
L 283.654553 156.933818 
L 283.979858 156.933818 
L 284.305163 154.989329 
L 284.630468 156.041599 
L 284.955773 149.569278 
L 285.281079 156.558774 
L 285.606384 156.481747 
L 285.931689 153.449176 
L 286.256994 156.017094 
L 286.582299 153.315922 
L 286.907604 155.261324 
L 287.232909 156.493826 
L 287.558215 156.53673 
L 287.88352 156.110445 
L 288.208825 156.804004 
L 288.859435 156.924834 
L 289.18474 155.396186 
L 289.510046 155.781745 
L 289.835351 156.933655 
L 290.160656 156.933775 
L 290.485961 154.334165 
L 290.811266 156.249913 
L 291.136571 154.437343 
L 291.461876 155.782621 
L 292.112487 154.599379 
L 292.437792 156.89541 
L 292.763097 153.826262 
L 293.088402 156.581013 
L 293.413707 154.234609 
L 293.739013 155.900054 
L 294.064318 156.318801 
L 294.389623 155.116214 
L 294.714928 154.643228 
L 295.040233 155.058421 
L 295.365538 155.92952 
L 295.690844 155.392536 
L 296.016149 156.932051 
L 296.341454 156.933507 
L 296.666759 151.944145 
L 296.992064 152.327998 
L 297.317369 156.741905 
L 297.642674 156.741909 
L 297.96798 153.835926 
L 298.293285 156.475655 
L 298.61859 154.002294 
L 298.943895 156.048675 
L 299.2692 153.626888 
L 299.594505 155.886134 
L 300.570421 152.975184 
L 300.895726 156.583755 
L 301.546336 155.762757 
L 301.871641 156.686497 
L 302.196947 156.893084 
L 302.522252 156.560036 
L 302.847557 154.437239 
L 303.172862 150.600554 
L 303.498167 156.933736 
L 303.823472 154.791438 
L 304.148778 155.792651 
L 304.474083 153.79089 
L 304.799388 156.293421 
L 305.124693 153.335245 
L 305.449998 156.868614 
L 305.775303 150.522305 
L 306.100608 155.044747 
L 306.751219 156.907746 
L 307.076524 156.542334 
L 307.401829 156.356741 
L 307.727134 152.519675 
L 308.052439 154.791442 
L 308.377745 155.79265 
L 308.70305 154.305524 
L 309.028355 156.859418 
L 309.35366 152.893643 
L 310.00427 156.596963 
L 310.329576 154.604687 
L 310.654881 156.930295 
L 310.980186 156.932783 
L 311.305491 155.769563 
L 311.630796 155.318791 
L 311.956101 155.859024 
L 312.281406 154.908299 
L 312.606712 156.602403 
L 312.932017 156.884042 
L 313.257322 140.571063 
L 313.582627 156.933818 
L 314.233237 156.933818 
L 314.558543 152.136103 
L 314.883848 156.933818 
L 315.209153 156.933818 
L 315.534458 156.166184 
L 316.185068 152.136103 
L 316.510373 156.550001 
L 316.835679 156.933818 
L 317.160984 155.590459 
L 317.486289 156.933818 
L 317.811594 156.933818 
L 318.136899 153.479466 
L 318.462204 154.822825 
L 318.78751 156.933818 
L 319.43812 156.933818 
L 319.763425 155.473989 
L 320.08873 155.487664 
L 320.414035 156.455208 
L 320.73934 154.741097 
L 321.064646 155.559455 
L 321.389951 155.338382 
L 321.715256 155.777628 
L 322.040561 156.784728 
L 322.365866 153.259189 
L 322.691171 155.064245 
L 323.016477 153.044807 
L 323.341782 154.699688 
L 323.667087 154.219715 
L 323.992392 154.366542 
L 324.317697 156.6597 
L 324.643002 156.407288 
L 324.968308 155.7725 
L 325.293613 156.364467 
L 325.618918 156.066888 
L 326.269528 155.775494 
L 326.594833 156.740103 
L 326.920138 152.327535 
L 327.245444 154.055066 
L 327.570749 156.741877 
L 327.896054 156.933809 
L 329.197275 156.933818 
L 329.52258 155.782366 
L 329.847885 155.782366 
L 330.498495 156.933818 
L 330.8238 156.933818 
L 331.149105 156.550001 
L 331.474411 156.74191 
L 331.799716 156.166183 
L 332.125021 156.933818 
L 332.775631 156.933818 
L 333.100936 156.358093 
L 333.426242 155.206639 
L 333.751547 155.769398 
L 334.076852 154.987035 
L 334.402157 155.367803 
L 334.727462 156.889012 
L 335.052767 153.829755 
L 335.378073 152.359542 
L 335.703378 152.393827 
L 336.028683 154.811102 
L 336.353988 152.030773 
L 336.679293 156.933818 
L 337.329903 156.933818 
L 337.655209 156.74191 
L 337.980514 156.933818 
L 345.137227 156.933818 
L 345.462532 156.74191 
L 345.787837 155.782365 
L 346.113143 156.933818 
L 347.414363 156.933818 
L 347.739668 156.550001 
L 348.064974 152.32801 
L 348.390279 150.217016 
L 348.715584 155.398549 
L 349.040889 156.933818 
L 349.366194 156.933818 
L 349.691499 152.51992 
L 350.016805 153.095645 
L 350.34211 149.833199 
L 350.667415 154.439006 
L 350.99272 154.334165 
L 351.318025 156.249911 
L 351.64333 155.711626 
L 352.293941 156.891858 
L 352.619246 151.452429 
L 352.944551 153.473845 
L 353.269856 153.315924 
L 353.595161 155.261323 
L 353.920466 154.917203 
L 354.245772 155.709901 
L 354.571077 156.056483 
L 354.896382 150.876504 
L 355.221687 156.419541 
L 355.546992 143.629184 
L 355.872297 156.933818 
L 356.522908 156.933818 
L 356.848213 156.74191 
L 357.173518 155.782367 
L 357.498823 156.358093 
L 357.824128 156.358093 
L 358.149433 156.933818 
L 358.800044 156.933818 
L 359.125349 154.439006 
L 359.450654 156.933818 
L 359.775959 156.358093 
L 360.101264 156.74191 
L 360.42657 156.550001 
L 360.751875 156.550001 
L 361.07718 156.933818 
L 362.703706 156.933818 
L 363.029011 156.550001 
L 363.354316 156.933818 
L 364.330231 156.933818 
L 364.655537 154.055189 
L 364.980842 156.74191 
L 365.306147 156.166184 
L 365.631452 156.550001 
L 365.956757 156.550001 
L 366.282062 156.933818 
L 366.607367 155.206642 
L 366.932673 156.166188 
L 367.257978 149.833199 
L 367.583283 152.51992 
L 367.908588 129.490883 
L 368.233893 150.600832 
L 368.559198 156.358093 
L 368.884504 156.933818 
L 369.860419 156.933818 
L 370.185724 156.166184 
L 370.511029 151.368467 
L 370.836334 148.297929 
L 371.16164 156.74191 
L 371.486945 155.014731 
L 371.81225 154.630915 
L 372.137555 154.439006 
L 372.46286 156.933818 
L 372.788165 138.126774 
L 373.113471 156.358093 
L 373.438776 156.933818 
L 380.270184 156.933818 
L 380.595489 126.612255 
L 380.920794 140.621584 
L 381.246099 59.63614 
L 381.571405 46.970182 
L 381.89671 141.581126 
L 382.222015 151.944186 
L 382.54732 153.479454 
L 382.872625 156.549989 
L 383.19793 151.944186 
L 383.523236 140.045858 
L 383.848541 136.015783 
L 384.173846 140.429679 
L 384.499151 138.318676 
L 385.149761 114.330102 
L 385.475066 126.612253 
L 385.800372 145.227392 
L 386.125677 145.995027 
L 386.450982 152.711828 
L 387.101592 155.782367 
L 387.426897 156.74191 
L 388.077508 132.561421 
L 388.402813 152.519919 
L 388.728118 153.287554 
L 389.053423 154.822824 
L 389.378728 156.933818 
L 390.029339 156.550001 
L 390.354644 155.590458 
L 390.679949 156.933818 
L 391.005254 156.933818 
L 391.655864 156.550001 
L 391.98117 155.39855 
L 392.306475 155.974275 
L 392.63178 155.782366 
L 392.957085 156.74191 
L 393.28239 156.933818 
L 393.933001 156.550001 
L 394.258306 156.550001 
L 394.583611 154.791426 
L 394.908916 155.520155 
L 395.234221 153.569222 
L 395.559526 154.920931 
L 395.884831 155.091936 
L 396.210137 155.985032 
L 396.535442 153.621857 
L 396.860747 132.832609 
L 397.186052 156.358093 
L 397.511357 156.74191 
L 397.836662 156.358093 
L 398.161968 156.358093 
L 398.487273 155.398549 
L 398.487273 155.398549 
" style="fill:none;stroke:#008000;stroke-linecap:square;stroke-width:1.5;"/>
   </g>
   <g id="patch_3">
    <path d="M 57.6 162.432 
L 57.6 41.472 
" style="fill:none;stroke:#000000;stroke-linecap:square;stroke-linejoin:miter;stroke-width:0.8;"/>
   </g>
   <g id="patch_4">
    <path d="M 414.72 162.432 
L 414.72 41.472 
" style="fill:none;stroke:#000000;stroke-linecap:square;stroke-linejoin:miter;stroke-width:0.8;"/>
   </g>
   <g id="patch_5">
    <path d="M 57.6 162.432 
L 414.72 162.432 
" style="fill:none;stroke:#000000;stroke-linecap:square;stroke-linejoin:miter;stroke-width:0.8;"/>
   </g>
   <g id="patch_6">
    <path d="M 57.6 41.472 
L 414.72 41.472 
" style="fill:none;stroke:#000000;stroke-linecap:square;stroke-linejoin:miter;stroke-width:0.8;"/>
   </g>
   <g id="text_14">
    <!-- Pitch-Yaw Diff Abs Comparison -->
    <defs>
     <path d="M 4.890625 31.390625 
L 31.203125 31.390625 
L 31.203125 23.390625 
L 4.890625 23.390625 
z
" id="DejaVuSans-45"/>
     <path d="M -0.203125 72.90625 
L 10.40625 72.90625 
L 30.609375 42.921875 
L 50.6875 72.90625 
L 61.28125 72.90625 
L 35.5 34.71875 
L 35.5 0 
L 25.59375 0 
L 25.59375 34.71875 
z
" id="DejaVuSans-89"/>
     <path d="M 34.28125 27.484375 
Q 23.390625 27.484375 19.1875 25 
Q 14.984375 22.515625 14.984375 16.5 
Q 14.984375 11.71875 18.140625 8.90625 
Q 21.296875 6.109375 26.703125 6.109375 
Q 34.1875 6.109375 38.703125 11.40625 
Q 43.21875 16.703125 43.21875 25.484375 
L 43.21875 27.484375 
z
M 52.203125 31.203125 
L 52.203125 0 
L 43.21875 0 
L 43.21875 8.296875 
Q 40.140625 3.328125 35.546875 0.953125 
Q 30.953125 -1.421875 24.3125 -1.421875 
Q 15.921875 -1.421875 10.953125 3.296875 
Q 6 8.015625 6 15.921875 
Q 6 25.140625 12.171875 29.828125 
Q 18.359375 34.515625 30.609375 34.515625 
L 43.21875 34.515625 
L 43.21875 35.40625 
Q 43.21875 41.609375 39.140625 45 
Q 35.0625 48.390625 27.6875 48.390625 
Q 23 48.390625 18.546875 47.265625 
Q 14.109375 46.140625 10.015625 43.890625 
L 10.015625 52.203125 
Q 14.9375 54.109375 19.578125 55.046875 
Q 24.21875 56 28.609375 56 
Q 40.484375 56 46.34375 49.84375 
Q 52.203125 43.703125 52.203125 31.203125 
z
" id="DejaVuSans-97"/>
     <path d="M 4.203125 54.6875 
L 13.1875 54.6875 
L 24.421875 12.015625 
L 35.59375 54.6875 
L 46.1875 54.6875 
L 57.421875 12.015625 
L 68.609375 54.6875 
L 77.59375 54.6875 
L 63.28125 0 
L 52.6875 0 
L 40.921875 44.828125 
L 29.109375 0 
L 18.5 0 
z
" id="DejaVuSans-119"/>
     <path d="M 64.40625 67.28125 
L 64.40625 56.890625 
Q 59.421875 61.53125 53.78125 63.8125 
Q 48.140625 66.109375 41.796875 66.109375 
Q 29.296875 66.109375 22.65625 58.46875 
Q 16.015625 50.828125 16.015625 36.375 
Q 16.015625 21.96875 22.65625 14.328125 
Q 29.296875 6.6875 41.796875 6.6875 
Q 48.140625 6.6875 53.78125 8.984375 
Q 59.421875 11.28125 64.40625 15.921875 
L 64.40625 5.609375 
Q 59.234375 2.09375 53.4375 0.328125 
Q 47.65625 -1.421875 41.21875 -1.421875 
Q 24.65625 -1.421875 15.125 8.703125 
Q 5.609375 18.84375 5.609375 36.375 
Q 5.609375 53.953125 15.125 64.078125 
Q 24.65625 74.21875 41.21875 74.21875 
Q 47.75 74.21875 53.53125 72.484375 
Q 59.328125 70.75 64.40625 67.28125 
z
" id="DejaVuSans-67"/>
     <path d="M 30.609375 48.390625 
Q 23.390625 48.390625 19.1875 42.75 
Q 14.984375 37.109375 14.984375 27.296875 
Q 14.984375 17.484375 19.15625 11.84375 
Q 23.34375 6.203125 30.609375 6.203125 
Q 37.796875 6.203125 41.984375 11.859375 
Q 46.1875 17.53125 46.1875 27.296875 
Q 46.1875 37.015625 41.984375 42.703125 
Q 37.796875 48.390625 30.609375 48.390625 
z
M 30.609375 56 
Q 42.328125 56 49.015625 48.375 
Q 55.71875 40.765625 55.71875 27.296875 
Q 55.71875 13.875 49.015625 6.21875 
Q 42.328125 -1.421875 30.609375 -1.421875 
Q 18.84375 -1.421875 12.171875 6.21875 
Q 5.515625 13.875 5.515625 27.296875 
Q 5.515625 40.765625 12.171875 48.375 
Q 18.84375 56 30.609375 56 
z
" id="DejaVuSans-111"/>
     <path d="M 52 44.1875 
Q 55.375 50.25 60.0625 53.125 
Q 64.75 56 71.09375 56 
Q 79.640625 56 84.28125 50.015625 
Q 88.921875 44.046875 88.921875 33.015625 
L 88.921875 0 
L 79.890625 0 
L 79.890625 32.71875 
Q 79.890625 40.578125 77.09375 44.375 
Q 74.3125 48.1875 68.609375 48.1875 
Q 61.625 48.1875 57.5625 43.546875 
Q 53.515625 38.921875 53.515625 30.90625 
L 53.515625 0 
L 44.484375 0 
L 44.484375 32.71875 
Q 44.484375 40.625 41.703125 44.40625 
Q 38.921875 48.1875 33.109375 48.1875 
Q 26.21875 48.1875 22.15625 43.53125 
Q 18.109375 38.875 18.109375 30.90625 
L 18.109375 0 
L 9.078125 0 
L 9.078125 54.6875 
L 18.109375 54.6875 
L 18.109375 46.1875 
Q 21.1875 51.21875 25.484375 53.609375 
Q 29.78125 56 35.6875 56 
Q 41.65625 56 45.828125 52.96875 
Q 50 49.953125 52 44.1875 
z
" id="DejaVuSans-109"/>
     <path d="M 18.109375 8.203125 
L 18.109375 -20.796875 
L 9.078125 -20.796875 
L 9.078125 54.6875 
L 18.109375 54.6875 
L 18.109375 46.390625 
Q 20.953125 51.265625 25.265625 53.625 
Q 29.59375 56 35.59375 56 
Q 45.5625 56 51.78125 48.09375 
Q 58.015625 40.1875 58.015625 27.296875 
Q 58.015625 14.40625 51.78125 6.484375 
Q 45.5625 -1.421875 35.59375 -1.421875 
Q 29.59375 -1.421875 25.265625 0.953125 
Q 20.953125 3.328125 18.109375 8.203125 
z
M 48.6875 27.296875 
Q 48.6875 37.203125 44.609375 42.84375 
Q 40.53125 48.484375 33.40625 48.484375 
Q 26.265625 48.484375 22.1875 42.84375 
Q 18.109375 37.203125 18.109375 27.296875 
Q 18.109375 17.390625 22.1875 11.75 
Q 26.265625 6.109375 33.40625 6.109375 
Q 40.53125 6.109375 44.609375 11.75 
Q 48.6875 17.390625 48.6875 27.296875 
z
" id="DejaVuSans-112"/>
     <path d="M 41.109375 46.296875 
Q 39.59375 47.171875 37.8125 47.578125 
Q 36.03125 48 33.890625 48 
Q 26.265625 48 22.1875 43.046875 
Q 18.109375 38.09375 18.109375 28.8125 
L 18.109375 0 
L 9.078125 0 
L 9.078125 54.6875 
L 18.109375 54.6875 
L 18.109375 46.1875 
Q 20.953125 51.171875 25.484375 53.578125 
Q 30.03125 56 36.53125 56 
Q 37.453125 56 38.578125 55.875 
Q 39.703125 55.765625 41.0625 55.515625 
z
" id="DejaVuSans-114"/>
     <path d="M 54.890625 33.015625 
L 54.890625 0 
L 45.90625 0 
L 45.90625 32.71875 
Q 45.90625 40.484375 42.875 44.328125 
Q 39.84375 48.1875 33.796875 48.1875 
Q 26.515625 48.1875 22.3125 43.546875 
Q 18.109375 38.921875 18.109375 30.90625 
L 18.109375 0 
L 9.078125 0 
L 9.078125 54.6875 
L 18.109375 54.6875 
L 18.109375 46.1875 
Q 21.34375 51.125 25.703125 53.5625 
Q 30.078125 56 35.796875 56 
Q 45.21875 56 50.046875 50.171875 
Q 54.890625 44.34375 54.890625 33.015625 
z
" id="DejaVuSans-110"/>
    </defs>
    <g transform="translate(143.837812 35.472)scale(0.12 -0.12)">
     <use xlink:href="#DejaVuSans-80"/>
     <use x="60.271484" xlink:href="#DejaVuSans-105"/>
     <use x="88.054688" xlink:href="#DejaVuSans-116"/>
     <use x="127.263672" xlink:href="#DejaVuSans-99"/>
     <use x="182.244141" xlink:href="#DejaVuSans-104"/>
     <use x="245.623047" xlink:href="#DejaVuSans-45"/>
     <use x="281.535156" xlink:href="#DejaVuSans-89"/>
     <use x="342.416016" xlink:href="#DejaVuSans-97"/>
     <use x="403.695312" xlink:href="#DejaVuSans-119"/>
     <use x="485.482422" xlink:href="#DejaVuSans-32"/>
     <use x="517.269531" xlink:href="#DejaVuSans-68"/>
     <use x="594.271484" xlink:href="#DejaVuSans-105"/>
     <use x="622.054688" xlink:href="#DejaVuSans-102"/>
     <use x="657.259766" xlink:href="#DejaVuSans-102"/>
     <use x="692.464844" xlink:href="#DejaVuSans-32"/>
     <use x="724.251953" xlink:href="#DejaVuSans-65"/>
     <use x="792.660156" xlink:href="#DejaVuSans-98"/>
     <use x="856.136719" xlink:href="#DejaVuSans-115"/>
     <use x="908.236328" xlink:href="#DejaVuSans-32"/>
     <use x="940.023438" xlink:href="#DejaVuSans-67"/>
     <use x="1009.847656" xlink:href="#DejaVuSans-111"/>
     <use x="1071.029297" xlink:href="#DejaVuSans-109"/>
     <use x="1168.441406" xlink:href="#DejaVuSans-112"/>
     <use x="1231.917969" xlink:href="#DejaVuSans-97"/>
     <use x="1293.197266" xlink:href="#DejaVuSans-114"/>
     <use x="1334.310547" xlink:href="#DejaVuSans-105"/>
     <use x="1362.09375" xlink:href="#DejaVuSans-115"/>
     <use x="1414.193359" xlink:href="#DejaVuSans-111"/>
     <use x="1475.375" xlink:href="#DejaVuSans-110"/>
    </g>
   </g>
  </g>
  <g id="axes_2">
   <g id="patch_7">
    <path d="M 57.6 307.584 
L 414.72 307.584 
L 414.72 186.624 
L 57.6 186.624 
z
" style="fill:#ffffff;"/>
   </g>
   <g id="matplotlib.axis_3">
    <g id="xtick_7">
     <g id="line2d_15">
      <g>
       <use style="stroke:#000000;stroke-width:0.8;" x="73.832727" xlink:href="#mce443e7b23" y="307.584"/>
      </g>
     </g>
     <g id="text_15">
      <!-- 0 -->
      <g transform="translate(70.651477 322.182437)scale(0.1 -0.1)">
       <use xlink:href="#DejaVuSans-48"/>
      </g>
     </g>
    </g>
    <g id="xtick_8">
     <g id="line2d_16">
      <g>
       <use style="stroke:#000000;stroke-width:0.8;" x="138.893758" xlink:href="#mce443e7b23" y="307.584"/>
      </g>
     </g>
     <g id="text_16">
      <!-- 200 -->
      <g transform="translate(129.350008 322.182437)scale(0.1 -0.1)">
       <use xlink:href="#DejaVuSans-50"/>
       <use x="63.623047" xlink:href="#DejaVuSans-48"/>
       <use x="127.246094" xlink:href="#DejaVuSans-48"/>
      </g>
     </g>
    </g>
    <g id="xtick_9">
     <g id="line2d_17">
      <g>
       <use style="stroke:#000000;stroke-width:0.8;" x="203.95479" xlink:href="#mce443e7b23" y="307.584"/>
      </g>
     </g>
     <g id="text_17">
      <!-- 400 -->
      <g transform="translate(194.41104 322.182437)scale(0.1 -0.1)">
       <use xlink:href="#DejaVuSans-52"/>
       <use x="63.623047" xlink:href="#DejaVuSans-48"/>
       <use x="127.246094" xlink:href="#DejaVuSans-48"/>
      </g>
     </g>
    </g>
    <g id="xtick_10">
     <g id="line2d_18">
      <g>
       <use style="stroke:#000000;stroke-width:0.8;" x="269.015821" xlink:href="#mce443e7b23" y="307.584"/>
      </g>
     </g>
     <g id="text_18">
      <!-- 600 -->
      <g transform="translate(259.472071 322.182437)scale(0.1 -0.1)">
       <use xlink:href="#DejaVuSans-54"/>
       <use x="63.623047" xlink:href="#DejaVuSans-48"/>
       <use x="127.246094" xlink:href="#DejaVuSans-48"/>
      </g>
     </g>
    </g>
    <g id="xtick_11">
     <g id="line2d_19">
      <g>
       <use style="stroke:#000000;stroke-width:0.8;" x="334.076852" xlink:href="#mce443e7b23" y="307.584"/>
      </g>
     </g>
     <g id="text_19">
      <!-- 800 -->
      <g transform="translate(324.533102 322.182437)scale(0.1 -0.1)">
       <use xlink:href="#DejaVuSans-56"/>
       <use x="63.623047" xlink:href="#DejaVuSans-48"/>
       <use x="127.246094" xlink:href="#DejaVuSans-48"/>
      </g>
     </g>
    </g>
    <g id="xtick_12">
     <g id="line2d_20">
      <g>
       <use style="stroke:#000000;stroke-width:0.8;" x="399.137883" xlink:href="#mce443e7b23" y="307.584"/>
      </g>
     </g>
     <g id="text_20">
      <!-- 1000 -->
      <g transform="translate(386.412883 322.182437)scale(0.1 -0.1)">
       <use xlink:href="#DejaVuSans-49"/>
       <use x="63.623047" xlink:href="#DejaVuSans-48"/>
       <use x="127.246094" xlink:href="#DejaVuSans-48"/>
       <use x="190.869141" xlink:href="#DejaVuSans-48"/>
      </g>
     </g>
    </g>
    <g id="text_21">
     <!-- Time -->
     <defs>
      <path d="M -0.296875 72.90625 
L 61.375 72.90625 
L 61.375 64.59375 
L 35.5 64.59375 
L 35.5 0 
L 25.59375 0 
L 25.59375 64.59375 
L -0.296875 64.59375 
z
" id="DejaVuSans-84"/>
      <path d="M 56.203125 29.59375 
L 56.203125 25.203125 
L 14.890625 25.203125 
Q 15.484375 15.921875 20.484375 11.0625 
Q 25.484375 6.203125 34.421875 6.203125 
Q 39.59375 6.203125 44.453125 7.46875 
Q 49.3125 8.734375 54.109375 11.28125 
L 54.109375 2.78125 
Q 49.265625 0.734375 44.1875 -0.34375 
Q 39.109375 -1.421875 33.890625 -1.421875 
Q 20.796875 -1.421875 13.15625 6.1875 
Q 5.515625 13.8125 5.515625 26.8125 
Q 5.515625 40.234375 12.765625 48.109375 
Q 20.015625 56 32.328125 56 
Q 43.359375 56 49.78125 48.890625 
Q 56.203125 41.796875 56.203125 29.59375 
z
M 47.21875 32.234375 
Q 47.125 39.59375 43.09375 43.984375 
Q 39.0625 48.390625 32.421875 48.390625 
Q 24.90625 48.390625 20.390625 44.140625 
Q 15.875 39.890625 15.1875 32.171875 
z
" id="DejaVuSans-101"/>
     </defs>
     <g transform="translate(223.7725 335.860562)scale(0.1 -0.1)">
      <use xlink:href="#DejaVuSans-84"/>
      <use x="61.037109" xlink:href="#DejaVuSans-105"/>
      <use x="88.820312" xlink:href="#DejaVuSans-109"/>
      <use x="186.232422" xlink:href="#DejaVuSans-101"/>
     </g>
    </g>
   </g>
   <g id="matplotlib.axis_4">
    <g id="ytick_7">
     <g id="line2d_21">
      <g>
       <use style="stroke:#000000;stroke-width:0.8;" x="57.6" xlink:href="#mad1befa3ad" y="302.085818"/>
      </g>
     </g>
     <g id="text_22">
      <!-- 0 -->
      <g transform="translate(44.2375 305.885037)scale(0.1 -0.1)">
       <use xlink:href="#DejaVuSans-48"/>
      </g>
     </g>
    </g>
    <g id="ytick_8">
     <g id="line2d_22">
      <g>
       <use style="stroke:#000000;stroke-width:0.8;" x="57.6" xlink:href="#mad1befa3ad" y="271.508004"/>
      </g>
     </g>
     <g id="text_23">
      <!-- 100 -->
      <g transform="translate(31.5125 275.307223)scale(0.1 -0.1)">
       <use xlink:href="#DejaVuSans-49"/>
       <use x="63.623047" xlink:href="#DejaVuSans-48"/>
       <use x="127.246094" xlink:href="#DejaVuSans-48"/>
      </g>
     </g>
    </g>
    <g id="ytick_9">
     <g id="line2d_23">
      <g>
       <use style="stroke:#000000;stroke-width:0.8;" x="57.6" xlink:href="#mad1befa3ad" y="240.93019"/>
      </g>
     </g>
     <g id="text_24">
      <!-- 200 -->
      <g transform="translate(31.5125 244.729409)scale(0.1 -0.1)">
       <use xlink:href="#DejaVuSans-50"/>
       <use x="63.623047" xlink:href="#DejaVuSans-48"/>
       <use x="127.246094" xlink:href="#DejaVuSans-48"/>
      </g>
     </g>
    </g>
    <g id="ytick_10">
     <g id="line2d_24">
      <g>
       <use style="stroke:#000000;stroke-width:0.8;" x="57.6" xlink:href="#mad1befa3ad" y="210.352377"/>
      </g>
     </g>
     <g id="text_25">
      <!-- 300 -->
      <g transform="translate(31.5125 214.151595)scale(0.1 -0.1)">
       <use xlink:href="#DejaVuSans-51"/>
       <use x="63.623047" xlink:href="#DejaVuSans-48"/>
       <use x="127.246094" xlink:href="#DejaVuSans-48"/>
      </g>
     </g>
    </g>
    <g id="text_26">
     <!-- Yaw Diff Abs -->
     <g transform="translate(25.432812 278.437594)rotate(-90)scale(0.1 -0.1)">
      <use xlink:href="#DejaVuSans-89"/>
      <use x="60.880859" xlink:href="#DejaVuSans-97"/>
      <use x="122.160156" xlink:href="#DejaVuSans-119"/>
      <use x="203.947266" xlink:href="#DejaVuSans-32"/>
      <use x="235.734375" xlink:href="#DejaVuSans-68"/>
      <use x="312.736328" xlink:href="#DejaVuSans-105"/>
      <use x="340.519531" xlink:href="#DejaVuSans-102"/>
      <use x="375.724609" xlink:href="#DejaVuSans-102"/>
      <use x="410.929688" xlink:href="#DejaVuSans-32"/>
      <use x="442.716797" xlink:href="#DejaVuSans-65"/>
      <use x="511.125" xlink:href="#DejaVuSans-98"/>
      <use x="574.601562" xlink:href="#DejaVuSans-115"/>
     </g>
    </g>
   </g>
   <g id="line2d_25">
    <path clip-path="url(#p9d20bb628b)" d="M 73.832727 302.085818 
L 93.676342 302.083868 
L 94.001647 251.903458 
L 94.326952 302.001648 
L 97.580004 302.085352 
L 102.459581 302.084327 
L 102.784886 298.156232 
L 103.110191 301.237975 
L 104.736717 301.245235 
L 105.062022 300.987611 
L 105.387327 301.818487 
L 105.712633 301.710679 
L 106.037938 301.406771 
L 106.363243 300.384967 
L 106.688548 300.580291 
L 107.013853 299.876486 
L 107.664463 301.260586 
L 107.989769 301.677013 
L 108.315074 301.836202 
L 108.640379 301.647725 
L 108.965684 301.118464 
L 109.290989 300.894538 
L 109.616294 301.147522 
L 109.9416 284.428183 
L 110.266905 300.491683 
L 110.59221 301.528766 
L 110.917515 192.543911 
L 111.24282 301.696638 
L 111.568125 301.872381 
L 112.218736 301.971923 
L 114.170567 302.077763 
L 118.399534 302.085539 
L 118.724839 283.140589 
L 119.050144 301.967227 
L 120.351365 302.076687 
L 121.32728 302.083469 
L 121.652585 301.467776 
L 121.97789 301.91879 
L 122.303195 302.062887 
L 122.628501 302.000899 
L 122.953806 295.785869 
L 123.279111 301.919443 
L 124.580332 302.056635 
L 126.206857 302.082693 
L 126.532163 301.892624 
L 126.857468 301.909303 
L 127.182773 292.645572 
L 127.508078 302.028713 
L 128.809299 302.041367 
L 130.76113 302.047682 
L 131.086435 300.504719 
L 131.41174 302.080252 
L 140.194979 302.038899 
L 154.183101 302.083145 
L 154.508406 301.921629 
L 155.159016 301.999426 
L 156.460237 301.891789 
L 156.785542 301.693436 
L 157.436152 301.784712 
L 157.761457 301.625754 
L 158.412068 301.802682 
L 159.713288 301.949322 
L 160.689204 301.95774 
L 161.665119 302.055922 
L 166.219392 302.085747 
L 166.544697 273.590751 
L 166.870002 302.0575 
L 168.171222 301.911484 
L 169.797748 302.046671 
L 171.749579 301.979545 
L 174.026715 301.999759 
L 174.35202 301.837663 
L 174.677326 301.928251 
L 175.653241 301.809749 
L 176.303851 302.037972 
L 177.605072 301.884253 
L 178.255682 302.083149 
L 178.906293 302.004018 
L 179.231598 302.031534 
L 179.556903 301.465511 
L 179.882208 301.983813 
L 180.207513 301.955238 
L 180.532818 300.618559 
L 180.858124 302.071625 
L 181.183429 301.704709 
L 181.508734 301.732295 
L 181.834039 301.352908 
L 182.159344 301.194638 
L 182.484649 250.33338 
L 182.809954 301.934221 
L 183.13526 302.055853 
L 183.460565 209.254569 
L 183.78587 301.344085 
L 184.111175 301.425627 
L 184.43648 301.876451 
L 184.761785 301.74907 
L 185.737701 301.020555 
L 186.388311 300.413791 
L 186.713616 299.324246 
L 187.038921 299.460409 
L 187.364227 195.776839 
L 187.689532 299.685015 
L 188.014837 299.870533 
L 188.340142 299.797971 
L 188.665447 301.174359 
L 189.641363 301.854247 
L 189.966668 301.34999 
L 190.291973 259.712024 
L 190.617278 301.985924 
L 190.942583 301.86314 
L 195.496856 302.029826 
L 196.798076 301.747492 
L 197.123381 300.711877 
L 197.448686 301.947648 
L 197.773992 300.505669 
L 198.099297 301.799199 
L 198.424602 301.69601 
L 199.075212 301.955942 
L 200.051128 302.07836 
L 201.027043 302.076683 
L 201.352348 301.892091 
L 202.328264 301.902653 
L 203.629484 302.038545 
L 203.95479 247.740356 
L 204.280095 301.455434 
L 204.6054 301.427626 
L 204.930705 301.651815 
L 205.25601 301.124508 
L 205.581315 301.818452 
L 205.906621 302.085818 
L 207.858451 302.074985 
L 208.509062 300.101136 
L 208.834367 300.515029 
L 209.159672 193.99029 
L 209.810282 302.035448 
L 210.135588 302.062012 
L 210.460893 301.888669 
L 211.436808 302.03007 
L 212.738029 302.070832 
L 213.063334 301.953341 
L 213.713944 296.961885 
L 214.039249 250.164474 
L 214.364555 301.924552 
L 215.015165 301.971965 
L 215.34047 301.907241 
L 215.99108 301.979723 
L 216.641691 301.995431 
L 216.966996 302.002429 
L 217.292301 192.122182 
L 217.617606 302.005494 
L 218.593522 301.989537 
L 218.918827 194.384057 
L 219.244132 301.876498 
L 219.569437 301.050303 
L 219.894742 301.86593 
L 222.497183 302.063434 
L 225.099625 302.084054 
L 226.07554 302.08526 
L 226.400845 277.903271 
L 226.72615 278.464571 
L 227.051456 300.931507 
L 227.376761 300.988431 
L 227.702066 300.823256 
L 228.027371 193.345381 
L 228.352676 300.685895 
L 228.677981 300.931745 
L 229.003287 300.468187 
L 229.653897 300.411697 
L 229.979202 300.998735 
L 230.304507 300.727397 
L 230.629812 301.306572 
L 230.955118 301.451525 
L 231.280423 301.822649 
L 232.256338 302.033629 
L 233.232254 302.075351 
L 233.557559 237.370368 
L 233.882864 302.039934 
L 237.135915 302.085307 
L 242.666103 301.98504 
L 243.642019 301.778397 
L 244.292629 301.887745 
L 244.943239 301.984394 
L 246.569765 301.895054 
L 246.89507 301.753628 
L 248.196291 301.993102 
L 249.172206 302.054754 
L 251.774647 302.080142 
L 252.099953 252.398161 
L 252.425258 301.997691 
L 253.401173 301.924529 
L 254.377089 301.945357 
L 255.027699 302.012929 
L 255.353004 282.718943 
L 255.678309 301.879228 
L 256.003615 301.863028 
L 256.32892 281.888212 
L 256.654225 281.530328 
L 256.97953 301.784875 
L 257.63014 301.998826 
L 259.256666 301.983635 
L 259.907276 302.058951 
L 260.232582 216.841773 
L 260.557887 300.544335 
L 261.208497 300.833967 
L 261.533802 300.44784 
L 261.859107 300.997781 
L 262.184412 301.093557 
L 262.509718 301.573865 
L 262.835023 301.609476 
L 263.160328 301.828738 
L 264.136243 301.976486 
L 264.461549 227.122071 
L 264.786854 301.859368 
L 265.112159 301.715963 
L 265.762769 301.789369 
L 266.088074 301.782121 
L 266.413379 301.595994 
L 266.738685 301.743228 
L 267.06399 301.717121 
L 267.389295 301.515595 
L 267.7146 301.691942 
L 268.039905 301.67875 
L 268.36521 301.419356 
L 268.690516 274.200009 
L 269.015821 302.046277 
L 270.317041 302.064203 
L 271.292957 301.785377 
L 271.618262 301.895793 
L 271.943567 301.801415 
L 272.594177 301.97116 
L 272.919483 278.329838 
L 273.244788 301.713667 
L 273.570093 301.899726 
L 273.895398 277.978356 
L 274.220703 302.018963 
L 275.521924 301.666575 
L 275.847229 301.834242 
L 276.497839 301.995679 
L 277.14845 301.976527 
L 277.79906 301.860895 
L 279.100281 302.006532 
L 279.425586 243.81713 
L 279.750891 301.626092 
L 281.052111 301.615173 
L 281.377417 301.588984 
L 281.702722 301.764712 
L 282.028027 301.588497 
L 282.353332 299.174971 
L 282.678637 301.63339 
L 283.003942 301.795538 
L 283.329248 301.623276 
L 283.654553 301.608912 
L 283.979858 301.786217 
L 284.305163 301.664638 
L 284.630468 277.570241 
L 284.955773 302.043378 
L 298.943895 301.908883 
L 299.2692 298.565292 
L 299.594505 301.996241 
L 300.895726 302.065771 
L 302.522252 302.080241 
L 302.847557 257.032146 
L 303.172862 302.082212 
L 303.498167 256.207898 
L 303.823472 301.912058 
L 304.799388 302.050043 
L 305.775303 301.913663 
L 308.052439 302.060896 
L 308.377745 255.18226 
L 308.70305 301.975345 
L 314.233237 302.08564 
L 314.558543 297.910517 
L 314.883848 301.862356 
L 315.859763 301.862175 
L 316.185068 297.331858 
L 316.510373 302.050165 
L 316.835679 302.059534 
L 317.160984 295.479585 
L 317.486289 301.562509 
L 317.811594 301.736934 
L 318.136899 301.54995 
L 318.462204 301.772661 
L 318.78751 301.735603 
L 319.763425 302.005744 
L 321.064646 302.048487 
L 323.016477 302.080596 
L 323.341782 290.785189 
L 323.667087 301.828794 
L 323.992392 301.823489 
L 324.643002 301.516692 
L 324.968308 301.860678 
L 325.293613 301.814385 
L 325.618918 301.56166 
L 325.944223 301.533456 
L 326.269528 301.733233 
L 326.594833 301.493362 
L 327.245444 301.749228 
L 327.570749 301.922776 
L 328.221359 301.52459 
L 328.546664 301.515191 
L 328.871969 206.214387 
L 329.197275 301.985034 
L 329.847885 302.00212 
L 330.498495 302.077769 
L 330.8238 302.013787 
L 331.149105 201.778776 
L 331.474411 302.03076 
L 331.799716 301.990182 
L 332.125021 202.268862 
L 332.450326 301.832014 
L 333.426242 301.681168 
L 334.076852 302.043681 
L 335.378073 301.847032 
L 336.353988 302.044726 
L 336.679293 200.429955 
L 337.004598 300.926882 
L 337.329903 300.607366 
L 337.655209 301.152008 
L 337.980514 301.064287 
L 338.305819 301.513142 
L 338.631124 197.581168 
L 338.956429 302.005845 
L 341.233565 302.084808 
L 342.860091 302.009819 
L 344.161312 301.903742 
L 344.486617 261.861206 
L 344.811922 301.940254 
L 345.462532 302.02629 
L 346.113143 192.764025 
L 346.438448 301.509393 
L 347.739668 301.130722 
L 348.064974 300.629738 
L 348.390279 300.859378 
L 348.715584 300.705737 
L 349.040889 299.967307 
L 349.366194 300.170184 
L 349.691499 300.833527 
L 350.016805 301.214061 
L 350.34211 301.10515 
L 350.667415 301.504528 
L 350.99272 301.496333 
L 351.318025 301.747187 
L 352.619246 302.085732 
L 353.595161 301.899171 
L 353.920466 302.018602 
L 355.872297 301.954122 
L 356.522908 302.073866 
L 357.173518 301.935733 
L 357.824128 302.020156 
L 358.149433 271.655481 
L 358.474739 302.028029 
L 361.07718 302.084963 
L 364.330231 302.085777 
L 364.655537 258.753834 
L 364.980842 302.085759 
L 366.607367 302.006183 
L 366.932673 301.764795 
L 367.257978 301.965531 
L 367.908588 302.007235 
L 368.233893 301.621381 
L 368.559198 299.276491 
L 368.884504 302.056495 
L 371.81225 302.08403 
L 376.366522 302.0043 
L 377.017132 301.990862 
L 377.342438 300.367641 
L 377.667743 301.87635 
L 377.993048 192.255889 
L 378.318353 301.959139 
L 380.595489 302.077899 
L 381.246099 302.047275 
L 381.571405 297.149634 
L 381.89671 301.766099 
L 382.222015 300.737241 
L 382.54732 301.670243 
L 383.523236 301.857529 
L 383.848541 286.283361 
L 384.173846 302.069339 
L 384.499151 285.622501 
L 384.824456 301.946842 
L 385.800372 301.953044 
L 386.125677 285.71672 
L 386.450982 285.474976 
L 386.776287 302.015962 
L 387.426897 301.915814 
L 387.752203 301.960369 
L 388.077508 301.826959 
L 388.402813 301.873516 
L 388.728118 192.207573 
L 389.053423 301.865639 
L 392.63178 302.065816 
L 393.28239 301.936315 
L 394.258306 301.785309 
L 394.583611 301.751714 
L 394.908916 301.936861 
L 395.234221 301.844644 
L 395.884831 302.009344 
L 397.186052 302.068941 
L 398.487273 302.082022 
L 398.487273 302.082022 
" style="fill:none;stroke:#ff0000;stroke-dasharray:5.55,2.4;stroke-dashoffset:0;stroke-width:1.5;"/>
   </g>
   <g id="line2d_26">
    <path clip-path="url(#p9d20bb628b)" d="M 73.832727 302.085818 
L 82.615966 302.085818 
L 82.941272 296.137044 
L 83.266577 302.085818 
L 85.543713 302.085818 
L 85.869018 301.668849 
L 86.194323 302.085818 
L 86.844934 302.002426 
L 87.170239 301.613247 
L 87.820849 302.002426 
L 88.146154 301.78004 
L 88.471459 298.69446 
L 89.12207 301.78004 
L 89.447375 301.585457 
L 89.77268 301.25188 
L 90.097985 302.085818 
L 92.375121 302.085818 
L 92.700426 301.946829 
L 93.025731 263.752351 
L 93.351037 302.085818 
L 95.302868 302.085818 
L 95.628173 301.835638 
L 95.953478 301.196292 
L 96.278783 301.390865 
L 96.604088 301.390875 
L 96.929393 302.03022 
L 98.230614 301.891226 
L 98.881224 302.085818 
L 99.85714 302.058019 
L 100.182445 301.585457 
L 100.50775 302.085818 
L 101.808971 302.058019 
L 102.134276 301.891226 
L 102.459581 302.058019 
L 102.784886 301.974623 
L 103.435496 302.085818 
L 103.760802 301.946824 
L 104.086107 302.085818 
L 105.062022 302.03022 
L 105.387327 301.946824 
L 106.363243 302.085818 
L 107.013853 300.167762 
L 107.339158 301.557649 
L 107.664463 301.946824 
L 107.989769 302.085818 
L 108.315074 302.085818 
L 108.640379 234.842437 
L 108.965684 302.085818 
L 109.9416 302.002424 
L 110.59221 302.085818 
L 111.24282 301.91903 
L 111.568125 301.724445 
L 111.89343 301.390868 
L 112.218736 300.167755 
L 112.544041 301.196281 
L 113.194651 300.056557 
L 113.519956 302.085818 
L 113.845261 302.085818 
L 114.170567 301.724443 
L 114.495872 300.668119 
L 115.146482 295.859063 
L 115.471787 201.123437 
L 115.797092 293.635226 
L 116.122398 300.75151 
L 116.447703 302.085818 
L 116.773008 302.03022 
L 117.098313 301.307469 
L 117.423618 302.002422 
L 118.074228 302.085818 
L 118.724839 302.03022 
L 119.050144 301.835628 
L 119.375449 301.335277 
L 119.700754 301.78004 
L 120.026059 301.502061 
L 120.351365 302.03022 
L 120.67667 301.807839 
L 121.001975 301.140694 
L 121.32728 301.752241 
L 121.652585 300.056567 
L 121.97789 301.668845 
L 122.303195 302.03022 
L 122.628501 301.724442 
L 122.953806 301.641055 
L 123.279111 301.974623 
L 123.604416 302.058019 
L 123.929721 301.363066 
L 124.255026 298.638871 
L 124.580332 299.028037 
L 125.230942 302.085818 
L 126.532163 302.085818 
L 126.857468 301.807839 
L 127.182773 300.334537 
L 127.833383 302.085818 
L 128.158688 302.002422 
L 128.809299 302.058019 
L 129.459909 302.058019 
L 129.785214 301.919034 
L 130.110519 302.085818 
L 131.086435 302.085818 
L 131.41174 301.613256 
L 131.737045 301.668845 
L 132.06235 300.362335 
L 132.387655 301.641055 
L 132.71296 302.058019 
L 133.363571 302.085818 
L 133.688876 301.835638 
L 134.014181 299.583995 
L 134.339486 302.058019 
L 134.664791 302.085818 
L 134.990097 299.417212 
L 135.315402 302.03022 
L 135.966012 301.863427 
L 136.291317 302.085818 
L 136.616622 302.058019 
L 136.941927 297.554734 
L 137.267233 295.747869 
L 137.592538 300.973896 
L 137.917843 301.418664 
L 138.243148 300.22335 
L 138.568453 299.917572 
L 138.893758 301.946829 
L 139.219064 302.085818 
L 139.544369 298.638867 
L 139.869674 287.297272 
L 140.194979 299.19483 
L 140.520284 301.78004 
L 140.845589 301.974623 
L 141.170895 301.27967 
L 141.4962 302.058019 
L 141.821505 300.501339 
L 142.14681 301.307469 
L 142.472115 301.474271 
L 142.79742 302.085818 
L 143.122725 301.668845 
L 143.448031 302.085818 
L 143.773336 302.03022 
L 144.098641 301.085087 
L 144.749251 302.03022 
L 145.399862 301.668845 
L 145.725167 302.085818 
L 146.050472 302.085818 
L 146.375777 301.390865 
L 146.701082 298.750058 
L 147.026387 300.723721 
L 147.351692 298.722259 
L 147.676998 301.946824 
L 148.327608 302.085818 
L 148.978218 302.085818 
L 149.303523 301.27967 
L 149.628829 299.111433 
L 149.954134 298.249697 
L 150.279439 302.085818 
L 153.207185 302.085818 
L 153.53249 301.974623 
L 153.857796 302.085818 
L 154.183101 301.891226 
L 154.508406 302.085818 
L 155.484321 302.002422 
L 155.809627 300.278948 
L 156.134932 299.72298 
L 156.460237 301.52985 
L 156.785542 301.891226 
L 157.761457 302.085818 
L 158.412068 302.085818 
L 158.737373 301.919025 
L 159.387983 302.085818 
L 159.713288 301.919034 
L 160.038594 301.919025 
L 160.363899 302.058019 
L 161.014509 301.390875 
L 161.339814 301.946824 
L 161.990424 302.085818 
L 162.641035 302.058019 
L 162.96634 301.946824 
L 163.942255 302.085818 
L 172.074884 302.085818 
L 172.400189 301.974623 
L 172.725495 301.641055 
L 173.0508 302.002422 
L 173.70141 302.085818 
L 175.327936 302.058019 
L 175.653241 301.25188 
L 175.978546 196.675762 
L 176.303851 301.418666 
L 176.954462 302.085818 
L 177.930377 302.085818 
L 178.255682 301.946828 
L 178.580987 301.585454 
L 178.906293 196.508967 
L 179.231598 294.274572 
L 179.556903 300.723711 
L 179.882208 302.085818 
L 180.207513 302.085818 
L 180.532818 301.807839 
L 180.858124 301.279679 
L 181.183429 302.085818 
L 183.13526 302.085818 
L 183.78587 301.919025 
L 184.111175 302.085818 
L 184.761785 302.085818 
L 185.087091 300.445732 
L 185.412396 301.946824 
L 185.737701 299.528398 
L 186.063006 300.695912 
L 186.388311 300.890504 
L 186.713616 302.085818 
L 187.364227 302.03022 
L 187.689532 301.919025 
L 188.014837 301.196273 
L 188.340142 301.140685 
L 188.665447 301.919034 
L 189.316058 302.085818 
L 189.966668 302.085818 
L 190.291973 296.276043 
L 190.617278 300.834907 
L 190.942583 298.69446 
L 191.267889 299.417212 
L 191.593194 193.951543 
L 191.918499 192.839626 
L 192.243804 300.640315 
L 192.569109 291.689361 
L 192.894414 289.437719 
L 193.219719 294.441369 
L 193.545025 301.752241 
L 193.87033 301.974623 
L 194.195635 301.474262 
L 194.52094 302.058019 
L 195.822161 302.085818 
L 197.123381 302.085818 
L 198.749907 302.085818 
L 199.075212 301.946824 
L 199.725823 302.085818 
L 200.051128 301.446463 
L 200.376433 302.085818 
L 201.352348 302.058019 
L 201.677653 301.863437 
L 202.002959 299.861979 
L 202.328264 301.696643 
L 202.653569 301.029489 
L 202.978874 301.085097 
L 203.304179 301.891226 
L 203.629484 302.085818 
L 203.95479 293.190481 
L 204.280095 302.085818 
L 204.930705 302.058019 
L 205.25601 300.112155 
L 205.581315 300.251149 
L 205.906621 302.058019 
L 206.882536 302.085818 
L 207.533146 301.752241 
L 207.858451 300.306747 
L 208.183757 299.500599 
L 208.509062 293.718622 
L 208.834367 293.52404 
L 209.159672 201.957376 
L 209.484977 298.833451 
L 209.810282 301.418665 
L 210.135588 302.002424 
L 210.786198 302.085818 
L 211.111503 302.085818 
L 211.436808 301.08509 
L 211.762113 297.109973 
L 212.087418 291.494776 
L 212.412724 300.640322 
L 212.738029 301.557656 
L 213.063334 301.168484 
L 213.713944 301.47426 
L 214.039249 302.085818 
L 215.015165 302.002424 
L 215.34047 299.945371 
L 215.665775 298.777854 
L 215.99108 302.058019 
L 216.641691 302.085818 
L 216.966996 301.140687 
L 217.292301 302.030223 
L 217.942911 302.085818 
L 219.244132 302.085818 
L 221.195963 302.085818 
L 221.521268 301.696643 
L 221.846573 301.557656 
L 222.171878 301.946826 
L 223.147794 302.085818 
L 223.473099 302.030223 
L 223.798404 301.78004 
L 224.123709 298.583269 
L 224.449014 294.246779 
L 224.77432 294.107789 
L 225.099625 300.139957 
L 225.42493 302.085818 
L 226.07554 302.085818 
L 226.400845 301.891232 
L 226.72615 300.584725 
L 227.051456 301.613252 
L 227.702066 301.613252 
L 228.027371 302.085818 
L 228.677981 302.085818 
L 229.328592 301.835636 
L 229.653897 302.030222 
L 229.979202 301.335272 
L 230.304507 302.085818 
L 231.280423 302.085818 
L 231.605728 301.891232 
L 231.931033 299.806382 
L 232.581643 302.085818 
L 232.906948 302.085818 
L 233.232254 301.724443 
L 233.882864 301.418667 
L 234.208169 301.835637 
L 234.533474 302.05802 
L 236.485305 302.05802 
L 236.81061 301.696646 
L 237.135915 302.030222 
L 238.111831 302.085818 
L 238.762441 302.085818 
L 239.087746 301.502059 
L 239.413052 302.085818 
L 240.063662 301.863434 
L 240.388967 302.085818 
L 240.714272 302.085818 
L 241.039577 301.974626 
L 241.690188 302.030222 
L 242.015493 301.78004 
L 242.340798 302.085818 
L 242.991408 302.030222 
L 243.316713 301.946827 
L 243.642019 302.085818 
L 244.617934 302.085818 
L 244.943239 296.498419 
L 245.268544 301.919031 
L 245.59385 302.085818 
L 246.89507 302.085818 
L 247.220375 301.057291 
L 247.54568 299.500602 
L 247.870986 302.085818 
L 248.196291 301.974625 
L 248.521596 301.307473 
L 248.846901 301.891231 
L 249.172206 302.085818 
L 249.822817 301.08509 
L 250.148122 302.085818 
L 250.473427 302.058019 
L 250.798732 300.695919 
L 251.124037 296.276034 
L 251.449342 295.358697 
L 251.774647 302.085818 
L 252.750563 302.085818 
L 253.075868 301.863434 
L 253.401173 302.030223 
L 253.726478 301.78004 
L 254.051784 301.251878 
L 254.377089 296.387224 
L 255.027699 301.585453 
L 255.353004 302.085818 
L 258.606056 302.085818 
L 258.931361 300.807108 
L 259.256666 301.724447 
L 259.581971 300.167753 
L 259.907276 301.446463 
L 260.232582 299.278222 
L 260.557887 302.085818 
L 260.883192 301.39087 
L 261.208497 301.390865 
L 261.533802 296.581802 
L 261.859107 301.307473 
L 262.184412 298.916841 
L 262.509718 302.085818 
L 266.088074 302.002422 
L 266.413379 301.919034 
L 266.738685 302.085818 
L 267.389295 302.030225 
L 268.039905 302.085818 
L 270.967652 302.002422 
L 271.292957 300.946098 
L 271.618262 300.50133 
L 271.943567 302.085818 
L 273.570093 302.085818 
L 273.895398 300.695917 
L 274.220703 301.835638 
L 274.546008 300.723711 
L 274.871314 301.057288 
L 275.196619 295.469885 
L 275.521924 284.767655 
L 276.172534 292.412113 
L 276.497839 197.537496 
L 276.823144 297.332358 
L 277.14845 299.333815 
L 277.473755 300.473533 
L 277.79906 299.5284 
L 278.124365 301.307475 
L 278.44967 301.946829 
L 278.774975 302.085818 
L 279.100281 302.085818 
L 279.425586 301.613253 
L 279.750891 299.083633 
L 280.076196 298.249693 
L 280.401501 301.08509 
L 280.726806 302.030222 
L 281.702722 302.085818 
L 283.003942 302.05802 
L 283.329248 301.946828 
L 283.654553 302.085818 
L 284.630468 302.002424 
L 284.955773 301.78004 
L 285.281079 302.05802 
L 286.907604 302.085818 
L 288.859435 302.030222 
L 289.510046 301.863434 
L 289.835351 302.085818 
L 296.341454 302.085818 
L 296.666759 301.91903 
L 296.992064 301.891232 
L 297.317369 302.085818 
L 299.919811 302.085818 
L 300.245116 301.91903 
L 300.570421 302.05802 
L 302.522252 302.085818 
L 303.172862 301.752242 
L 303.498167 302.085818 
L 307.401829 302.05802 
L 307.727134 301.780039 
L 308.052439 302.085818 
L 309.028355 302.05802 
L 309.35366 301.807838 
L 309.678965 302.030222 
L 310.654881 302.085818 
L 312.932017 302.085818 
L 313.257322 283.65573 
L 313.582627 302.085818 
L 314.233237 302.085818 
L 314.558543 289.604515 
L 314.883848 302.085818 
L 315.209153 302.085818 
L 315.534458 301.946826 
L 315.859763 301.307473 
L 316.185068 297.638136 
L 316.510373 296.192642 
L 316.835679 296.053647 
L 317.160984 301.279675 
L 317.486289 302.085818 
L 317.811594 302.085818 
L 318.462204 299.167017 
L 318.78751 302.085818 
L 321.389951 302.058019 
L 322.040561 301.863432 
L 322.365866 300.695922 
L 322.691171 302.085818 
L 324.317697 302.002422 
L 324.643002 301.891231 
L 325.293613 302.002426 
L 325.618918 301.696648 
L 325.944223 301.696648 
L 326.269528 301.807839 
L 326.594833 302.058019 
L 326.920138 301.585453 
L 327.896054 302.085818 
L 332.125021 302.085818 
L 332.450326 301.946824 
L 332.775631 302.058019 
L 333.100936 301.41866 
L 333.426242 301.112891 
L 333.751547 302.058019 
L 334.727462 302.058019 
L 335.052767 301.91903 
L 335.378073 301.91903 
L 335.703378 301.807839 
L 336.028683 301.891235 
L 336.353988 263.919149 
L 336.679293 302.085818 
L 337.004598 302.085818 
L 337.655209 301.724442 
L 337.980514 302.085818 
L 344.811922 302.085818 
L 345.462532 301.335277 
L 345.787837 301.335268 
L 346.113143 302.085818 
L 347.739668 302.03022 
L 348.064974 299.778578 
L 348.390279 296.387229 
L 348.715584 300.445732 
L 349.040889 302.085818 
L 349.366194 301.974623 
L 349.691499 299.945376 
L 350.016805 299.806377 
L 350.34211 300.417938 
L 350.667415 301.78004 
L 350.99272 302.085818 
L 351.64333 302.085818 
L 351.968635 301.835638 
L 352.293941 302.058019 
L 352.619246 301.363066 
L 352.944551 301.52986 
L 353.269856 302.085818 
L 353.920466 302.002426 
L 354.245772 301.91903 
L 354.571077 302.085818 
L 355.221687 302.085818 
L 355.546992 285.79618 
L 355.872297 302.085818 
L 356.848213 302.002422 
L 357.173518 301.474262 
L 357.498823 302.002422 
L 358.800044 302.085818 
L 359.125349 300.723711 
L 359.450654 302.03022 
L 359.775959 300.75151 
L 360.101264 301.780031 
L 360.42657 301.446463 
L 360.751875 301.668845 
L 361.07718 302.085818 
L 362.3784 302.085818 
L 362.703706 301.557658 
L 363.029011 299.72299 
L 363.354316 301.946824 
L 363.679621 302.085818 
L 364.330231 302.085818 
L 364.655537 285.823984 
L 364.980842 301.974627 
L 365.306147 301.752241 
L 366.282062 302.085818 
L 366.607367 293.440634 
L 366.932673 279.764042 
L 367.257978 301.502061 
L 367.583283 301.085087 
L 367.908588 278.096129 
L 368.233893 198.677209 
L 368.559198 301.279676 
L 368.884504 302.085818 
L 369.860419 302.085818 
L 370.185724 301.668848 
L 370.511029 198.899597 
L 370.836334 293.663015 
L 371.16164 302.085818 
L 371.486945 295.720075 
L 371.81225 198.705008 
L 372.137555 299.750785 
L 372.46286 302.085818 
L 372.788165 299.722987 
L 373.113471 302.085818 
L 380.270184 302.085818 
L 380.595489 193.923755 
L 380.920794 291.578175 
L 381.246099 290.855424 
L 381.571405 300.139954 
L 381.89671 298.722259 
L 382.222015 301.585457 
L 382.54732 301.641046 
L 382.872625 302.058019 
L 383.19793 300.75152 
L 383.523236 298.19409 
L 383.848541 296.748596 
L 384.173846 298.194099 
L 384.499151 195.25805 
L 384.824456 296.970984 
L 385.149761 293.329443 
L 385.475066 285.434809 
L 385.800372 294.858334 
L 386.125677 293.246051 
L 386.776287 300.50133 
L 387.101592 300.695922 
L 387.426897 301.696648 
L 388.077508 299.306016 
L 388.402813 301.946829 
L 388.728118 302.085818 
L 389.053423 301.891231 
L 389.378728 301.974623 
L 389.704034 301.64105 
L 390.029339 299.417212 
L 390.354644 298.777856 
L 390.679949 302.002422 
L 391.330559 302.058019 
L 391.655864 301.891235 
L 391.98117 301.224081 
L 392.306475 301.91903 
L 392.63178 301.140685 
L 392.957085 301.974627 
L 393.28239 302.085818 
L 393.607695 301.919025 
L 393.933001 301.585457 
L 394.258306 302.002426 
L 394.908916 302.085818 
L 395.884831 302.058019 
L 396.210137 301.974623 
L 396.535442 302.03022 
L 396.860747 273.509455 
L 397.186052 302.03022 
L 398.161968 302.085818 
L 398.487273 302.030223 
L 398.487273 302.030223 
" style="fill:none;stroke:#008000;stroke-linecap:square;stroke-width:1.5;"/>
   </g>
   <g id="patch_8">
    <path d="M 57.6 307.584 
L 57.6 186.624 
" style="fill:none;stroke:#000000;stroke-linecap:square;stroke-linejoin:miter;stroke-width:0.8;"/>
   </g>
   <g id="patch_9">
    <path d="M 414.72 307.584 
L 414.72 186.624 
" style="fill:none;stroke:#000000;stroke-linecap:square;stroke-linejoin:miter;stroke-width:0.8;"/>
   </g>
   <g id="patch_10">
    <path d="M 57.6 307.584 
L 414.72 307.584 
" style="fill:none;stroke:#000000;stroke-linecap:square;stroke-linejoin:miter;stroke-width:0.8;"/>
   </g>
   <g id="patch_11">
    <path d="M 57.6 186.624 
L 414.72 186.624 
" style="fill:none;stroke:#000000;stroke-linecap:square;stroke-linejoin:miter;stroke-width:0.8;"/>
   </g>
   <g id="legend_1">
    <g id="patch_12">
     <path d="M 64.6 223.98025 
L 141.415625 223.98025 
Q 143.415625 223.98025 143.415625 221.98025 
L 143.415625 193.624 
Q 143.415625 191.624 141.415625 191.624 
L 64.6 191.624 
Q 62.6 191.624 62.6 193.624 
L 62.6 221.98025 
Q 62.6 223.98025 64.6 223.98025 
z
" style="fill:#ffffff;opacity:0.8;stroke:#cccccc;stroke-linejoin:miter;"/>
    </g>
    <g id="line2d_27">
     <path d="M 66.6 199.722437 
L 86.6 199.722437 
" style="fill:none;stroke:#ff0000;stroke-dasharray:5.55,2.4;stroke-dashoffset:0;stroke-width:1.5;"/>
    </g>
    <g id="line2d_28"/>
    <g id="text_27">
     <!-- Cheat -->
     <g transform="translate(94.6 203.222437)scale(0.1 -0.1)">
      <use xlink:href="#DejaVuSans-67"/>
      <use x="69.824219" xlink:href="#DejaVuSans-104"/>
      <use x="133.203125" xlink:href="#DejaVuSans-101"/>
      <use x="194.726562" xlink:href="#DejaVuSans-97"/>
      <use x="256.005859" xlink:href="#DejaVuSans-116"/>
     </g>
    </g>
    <g id="line2d_29">
     <path d="M 66.6 214.400562 
L 86.6 214.400562 
" style="fill:none;stroke:#008000;stroke-linecap:square;stroke-width:1.5;"/>
    </g>
    <g id="line2d_30"/>
    <g id="text_28">
     <!-- No cheat -->
     <defs>
      <path d="M 9.8125 72.90625 
L 23.09375 72.90625 
L 55.421875 11.921875 
L 55.421875 72.90625 
L 64.984375 72.90625 
L 64.984375 0 
L 51.703125 0 
L 19.390625 60.984375 
L 19.390625 0 
L 9.8125 0 
z
" id="DejaVuSans-78"/>
     </defs>
     <g transform="translate(94.6 217.900562)scale(0.1 -0.1)">
      <use xlink:href="#DejaVuSans-78"/>
      <use x="74.804688" xlink:href="#DejaVuSans-111"/>
      <use x="135.986328" xlink:href="#DejaVuSans-32"/>
      <use x="167.773438" xlink:href="#DejaVuSans-99"/>
      <use x="222.753906" xlink:href="#DejaVuSans-104"/>
      <use x="286.132812" xlink:href="#DejaVuSans-101"/>
      <use x="347.65625" xlink:href="#DejaVuSans-97"/>
      <use x="408.935547" xlink:href="#DejaVuSans-116"/>
     </g>
    </g>
   </g>
  </g>
 </g>
 <defs>
  <clipPath id="p5d2ddafebc">
   <rect height="120.96" width="357.12" x="57.6" y="41.472"/>
  </clipPath>
  <clipPath id="p9d20bb628b">
   <rect height="120.96" width="357.12" x="57.6" y="186.624"/>
  </clipPath>
 </defs>
</svg>
