<?xml version="1.0" encoding="utf-8" standalone="no"?>
<!DOCTYPE svg PUBLIC "-//W3C//DTD SVG 1.1//EN"
  "http://www.w3.org/Graphics/SVG/1.1/DTD/svg11.dtd">
<!-- Created with matplotlib (https://matplotlib.org/) -->
<svg height="345.6pt" version="1.1" viewBox="0 0 460.8 345.6" width="460.8pt" xmlns="http://www.w3.org/2000/svg" xmlns:xlink="http://www.w3.org/1999/xlink">
 <defs>
  <style type="text/css">
*{stroke-linecap:butt;stroke-linejoin:round;}
  </style>
 </defs>
 <g id="figure_1">
  <g id="patch_1">
   <path d="M 0 345.6 
L 460.8 345.6 
L 460.8 0 
L 0 0 
z
" style="fill:#ffffff;"/>
  </g>
  <g id="axes_1">
   <g id="patch_2">
    <path d="M 57.6 162.432 
L 414.72 162.432 
L 414.72 41.472 
L 57.6 41.472 
z
" style="fill:#ffffff;"/>
   </g>
   <g id="matplotlib.axis_1">
    <g id="xtick_1">
     <g id="line2d_1">
      <defs>
       <path d="M 0 0 
L 0 3.5 
" id="m3c52e6deb4" style="stroke:#000000;stroke-width:0.8;"/>
      </defs>
      <g>
       <use style="stroke:#000000;stroke-width:0.8;" x="73.832727" xlink:href="#m3c52e6deb4" y="162.432"/>
      </g>
     </g>
     <g id="text_1">
      <!-- 0 -->
      <defs>
       <path d="M 31.78125 66.40625 
Q 24.171875 66.40625 20.328125 58.90625 
Q 16.5 51.421875 16.5 36.375 
Q 16.5 21.390625 20.328125 13.890625 
Q 24.171875 6.390625 31.78125 6.390625 
Q 39.453125 6.390625 43.28125 13.890625 
Q 47.125 21.390625 47.125 36.375 
Q 47.125 51.421875 43.28125 58.90625 
Q 39.453125 66.40625 31.78125 66.40625 
z
M 31.78125 74.21875 
Q 44.046875 74.21875 50.515625 64.515625 
Q 56.984375 54.828125 56.984375 36.375 
Q 56.984375 17.96875 50.515625 8.265625 
Q 44.046875 -1.421875 31.78125 -1.421875 
Q 19.53125 -1.421875 13.0625 8.265625 
Q 6.59375 17.96875 6.59375 36.375 
Q 6.59375 54.828125 13.0625 64.515625 
Q 19.53125 74.21875 31.78125 74.21875 
z
" id="DejaVuSans-48"/>
      </defs>
      <g transform="translate(70.651477 177.030437)scale(0.1 -0.1)">
       <use xlink:href="#DejaVuSans-48"/>
      </g>
     </g>
    </g>
    <g id="xtick_2">
     <g id="line2d_2">
      <g>
       <use style="stroke:#000000;stroke-width:0.8;" x="138.828632" xlink:href="#m3c52e6deb4" y="162.432"/>
      </g>
     </g>
     <g id="text_2">
      <!-- 200 -->
      <defs>
       <path d="M 19.1875 8.296875 
L 53.609375 8.296875 
L 53.609375 0 
L 7.328125 0 
L 7.328125 8.296875 
Q 12.9375 14.109375 22.625 23.890625 
Q 32.328125 33.6875 34.8125 36.53125 
Q 39.546875 41.84375 41.421875 45.53125 
Q 43.3125 49.21875 43.3125 52.78125 
Q 43.3125 58.59375 39.234375 62.25 
Q 35.15625 65.921875 28.609375 65.921875 
Q 23.96875 65.921875 18.8125 64.3125 
Q 13.671875 62.703125 7.8125 59.421875 
L 7.8125 69.390625 
Q 13.765625 71.78125 18.9375 73 
Q 24.125 74.21875 28.421875 74.21875 
Q 39.75 74.21875 46.484375 68.546875 
Q 53.21875 62.890625 53.21875 53.421875 
Q 53.21875 48.921875 51.53125 44.890625 
Q 49.859375 40.875 45.40625 35.40625 
Q 44.1875 33.984375 37.640625 27.21875 
Q 31.109375 20.453125 19.1875 8.296875 
z
" id="DejaVuSans-50"/>
      </defs>
      <g transform="translate(129.284882 177.030437)scale(0.1 -0.1)">
       <use xlink:href="#DejaVuSans-50"/>
       <use x="63.623047" xlink:href="#DejaVuSans-48"/>
       <use x="127.246094" xlink:href="#DejaVuSans-48"/>
      </g>
     </g>
    </g>
    <g id="xtick_3">
     <g id="line2d_3">
      <g>
       <use style="stroke:#000000;stroke-width:0.8;" x="203.824537" xlink:href="#m3c52e6deb4" y="162.432"/>
      </g>
     </g>
     <g id="text_3">
      <!-- 400 -->
      <defs>
       <path d="M 37.796875 64.3125 
L 12.890625 25.390625 
L 37.796875 25.390625 
z
M 35.203125 72.90625 
L 47.609375 72.90625 
L 47.609375 25.390625 
L 58.015625 25.390625 
L 58.015625 17.1875 
L 47.609375 17.1875 
L 47.609375 0 
L 37.796875 0 
L 37.796875 17.1875 
L 4.890625 17.1875 
L 4.890625 26.703125 
z
" id="DejaVuSans-52"/>
      </defs>
      <g transform="translate(194.280787 177.030437)scale(0.1 -0.1)">
       <use xlink:href="#DejaVuSans-52"/>
       <use x="63.623047" xlink:href="#DejaVuSans-48"/>
       <use x="127.246094" xlink:href="#DejaVuSans-48"/>
      </g>
     </g>
    </g>
    <g id="xtick_4">
     <g id="line2d_4">
      <g>
       <use style="stroke:#000000;stroke-width:0.8;" x="268.820442" xlink:href="#m3c52e6deb4" y="162.432"/>
      </g>
     </g>
     <g id="text_4">
      <!-- 600 -->
      <defs>
       <path d="M 33.015625 40.375 
Q 26.375 40.375 22.484375 35.828125 
Q 18.609375 31.296875 18.609375 23.390625 
Q 18.609375 15.53125 22.484375 10.953125 
Q 26.375 6.390625 33.015625 6.390625 
Q 39.65625 6.390625 43.53125 10.953125 
Q 47.40625 15.53125 47.40625 23.390625 
Q 47.40625 31.296875 43.53125 35.828125 
Q 39.65625 40.375 33.015625 40.375 
z
M 52.59375 71.296875 
L 52.59375 62.3125 
Q 48.875 64.0625 45.09375 64.984375 
Q 41.3125 65.921875 37.59375 65.921875 
Q 27.828125 65.921875 22.671875 59.328125 
Q 17.53125 52.734375 16.796875 39.40625 
Q 19.671875 43.65625 24.015625 45.921875 
Q 28.375 48.1875 33.59375 48.1875 
Q 44.578125 48.1875 50.953125 41.515625 
Q 57.328125 34.859375 57.328125 23.390625 
Q 57.328125 12.15625 50.6875 5.359375 
Q 44.046875 -1.421875 33.015625 -1.421875 
Q 20.359375 -1.421875 13.671875 8.265625 
Q 6.984375 17.96875 6.984375 36.375 
Q 6.984375 53.65625 15.1875 63.9375 
Q 23.390625 74.21875 37.203125 74.21875 
Q 40.921875 74.21875 44.703125 73.484375 
Q 48.484375 72.75 52.59375 71.296875 
z
" id="DejaVuSans-54"/>
      </defs>
      <g transform="translate(259.276692 177.030437)scale(0.1 -0.1)">
       <use xlink:href="#DejaVuSans-54"/>
       <use x="63.623047" xlink:href="#DejaVuSans-48"/>
       <use x="127.246094" xlink:href="#DejaVuSans-48"/>
      </g>
     </g>
    </g>
    <g id="xtick_5">
     <g id="line2d_5">
      <g>
       <use style="stroke:#000000;stroke-width:0.8;" x="333.816347" xlink:href="#m3c52e6deb4" y="162.432"/>
      </g>
     </g>
     <g id="text_5">
      <!-- 800 -->
      <defs>
       <path d="M 31.78125 34.625 
Q 24.75 34.625 20.71875 30.859375 
Q 16.703125 27.09375 16.703125 20.515625 
Q 16.703125 13.921875 20.71875 10.15625 
Q 24.75 6.390625 31.78125 6.390625 
Q 38.8125 6.390625 42.859375 10.171875 
Q 46.921875 13.96875 46.921875 20.515625 
Q 46.921875 27.09375 42.890625 30.859375 
Q 38.875 34.625 31.78125 34.625 
z
M 21.921875 38.8125 
Q 15.578125 40.375 12.03125 44.71875 
Q 8.5 49.078125 8.5 55.328125 
Q 8.5 64.0625 14.71875 69.140625 
Q 20.953125 74.21875 31.78125 74.21875 
Q 42.671875 74.21875 48.875 69.140625 
Q 55.078125 64.0625 55.078125 55.328125 
Q 55.078125 49.078125 51.53125 44.71875 
Q 48 40.375 41.703125 38.8125 
Q 48.828125 37.15625 52.796875 32.3125 
Q 56.78125 27.484375 56.78125 20.515625 
Q 56.78125 9.90625 50.3125 4.234375 
Q 43.84375 -1.421875 31.78125 -1.421875 
Q 19.734375 -1.421875 13.25 4.234375 
Q 6.78125 9.90625 6.78125 20.515625 
Q 6.78125 27.484375 10.78125 32.3125 
Q 14.796875 37.15625 21.921875 38.8125 
z
M 18.3125 54.390625 
Q 18.3125 48.734375 21.84375 45.5625 
Q 25.390625 42.390625 31.78125 42.390625 
Q 38.140625 42.390625 41.71875 45.5625 
Q 45.3125 48.734375 45.3125 54.390625 
Q 45.3125 60.0625 41.71875 63.234375 
Q 38.140625 66.40625 31.78125 66.40625 
Q 25.390625 66.40625 21.84375 63.234375 
Q 18.3125 60.0625 18.3125 54.390625 
z
" id="DejaVuSans-56"/>
      </defs>
      <g transform="translate(324.272597 177.030437)scale(0.1 -0.1)">
       <use xlink:href="#DejaVuSans-56"/>
       <use x="63.623047" xlink:href="#DejaVuSans-48"/>
       <use x="127.246094" xlink:href="#DejaVuSans-48"/>
      </g>
     </g>
    </g>
    <g id="xtick_6">
     <g id="line2d_6">
      <g>
       <use style="stroke:#000000;stroke-width:0.8;" x="398.812252" xlink:href="#m3c52e6deb4" y="162.432"/>
      </g>
     </g>
     <g id="text_6">
      <!-- 1000 -->
      <defs>
       <path d="M 12.40625 8.296875 
L 28.515625 8.296875 
L 28.515625 63.921875 
L 10.984375 60.40625 
L 10.984375 69.390625 
L 28.421875 72.90625 
L 38.28125 72.90625 
L 38.28125 8.296875 
L 54.390625 8.296875 
L 54.390625 0 
L 12.40625 0 
z
" id="DejaVuSans-49"/>
      </defs>
      <g transform="translate(386.087252 177.030437)scale(0.1 -0.1)">
       <use xlink:href="#DejaVuSans-49"/>
       <use x="63.623047" xlink:href="#DejaVuSans-48"/>
       <use x="127.246094" xlink:href="#DejaVuSans-48"/>
       <use x="190.869141" xlink:href="#DejaVuSans-48"/>
      </g>
     </g>
    </g>
   </g>
   <g id="matplotlib.axis_2">
    <g id="ytick_1">
     <g id="line2d_7">
      <defs>
       <path d="M 0 0 
L -3.5 0 
" id="m778323926e" style="stroke:#000000;stroke-width:0.8;"/>
      </defs>
      <g>
       <use style="stroke:#000000;stroke-width:0.8;" x="57.6" xlink:href="#m778323926e" y="144.921942"/>
      </g>
     </g>
     <g id="text_7">
      <!-- −75 -->
      <defs>
       <path d="M 10.59375 35.5 
L 73.1875 35.5 
L 73.1875 27.203125 
L 10.59375 27.203125 
z
" id="DejaVuSans-8722"/>
       <path d="M 8.203125 72.90625 
L 55.078125 72.90625 
L 55.078125 68.703125 
L 28.609375 0 
L 18.3125 0 
L 43.21875 64.59375 
L 8.203125 64.59375 
z
" id="DejaVuSans-55"/>
       <path d="M 10.796875 72.90625 
L 49.515625 72.90625 
L 49.515625 64.59375 
L 19.828125 64.59375 
L 19.828125 46.734375 
Q 21.96875 47.46875 24.109375 47.828125 
Q 26.265625 48.1875 28.421875 48.1875 
Q 40.625 48.1875 47.75 41.5 
Q 54.890625 34.8125 54.890625 23.390625 
Q 54.890625 11.625 47.5625 5.09375 
Q 40.234375 -1.421875 26.90625 -1.421875 
Q 22.3125 -1.421875 17.546875 -0.640625 
Q 12.796875 0.140625 7.71875 1.703125 
L 7.71875 11.625 
Q 12.109375 9.234375 16.796875 8.0625 
Q 21.484375 6.890625 26.703125 6.890625 
Q 35.15625 6.890625 40.078125 11.328125 
Q 45.015625 15.765625 45.015625 23.390625 
Q 45.015625 31 40.078125 35.4375 
Q 35.15625 39.890625 26.703125 39.890625 
Q 22.75 39.890625 18.8125 39.015625 
Q 14.890625 38.140625 10.796875 36.28125 
z
" id="DejaVuSans-53"/>
      </defs>
      <g transform="translate(29.495313 148.72116)scale(0.1 -0.1)">
       <use xlink:href="#DejaVuSans-8722"/>
       <use x="83.789062" xlink:href="#DejaVuSans-55"/>
       <use x="147.412109" xlink:href="#DejaVuSans-53"/>
      </g>
     </g>
    </g>
    <g id="ytick_2">
     <g id="line2d_8">
      <g>
       <use style="stroke:#000000;stroke-width:0.8;" x="57.6" xlink:href="#m778323926e" y="124.249488"/>
      </g>
     </g>
     <g id="text_8">
      <!-- −50 -->
      <g transform="translate(29.495313 128.048707)scale(0.1 -0.1)">
       <use xlink:href="#DejaVuSans-8722"/>
       <use x="83.789062" xlink:href="#DejaVuSans-53"/>
       <use x="147.412109" xlink:href="#DejaVuSans-48"/>
      </g>
     </g>
    </g>
    <g id="ytick_3">
     <g id="line2d_9">
      <g>
       <use style="stroke:#000000;stroke-width:0.8;" x="57.6" xlink:href="#m778323926e" y="103.577034"/>
      </g>
     </g>
     <g id="text_9">
      <!-- −25 -->
      <g transform="translate(29.495313 107.376253)scale(0.1 -0.1)">
       <use xlink:href="#DejaVuSans-8722"/>
       <use x="83.789062" xlink:href="#DejaVuSans-50"/>
       <use x="147.412109" xlink:href="#DejaVuSans-53"/>
      </g>
     </g>
    </g>
    <g id="ytick_4">
     <g id="line2d_10">
      <g>
       <use style="stroke:#000000;stroke-width:0.8;" x="57.6" xlink:href="#m778323926e" y="82.90458"/>
      </g>
     </g>
     <g id="text_10">
      <!-- 0 -->
      <g transform="translate(44.2375 86.703799)scale(0.1 -0.1)">
       <use xlink:href="#DejaVuSans-48"/>
      </g>
     </g>
    </g>
    <g id="ytick_5">
     <g id="line2d_11">
      <g>
       <use style="stroke:#000000;stroke-width:0.8;" x="57.6" xlink:href="#m778323926e" y="62.232127"/>
      </g>
     </g>
     <g id="text_11">
      <!-- 25 -->
      <g transform="translate(37.875 66.031345)scale(0.1 -0.1)">
       <use xlink:href="#DejaVuSans-50"/>
       <use x="63.623047" xlink:href="#DejaVuSans-53"/>
      </g>
     </g>
    </g>
    <g id="ytick_6">
     <g id="line2d_12">
      <g>
       <use style="stroke:#000000;stroke-width:0.8;" x="57.6" xlink:href="#m778323926e" y="41.559673"/>
      </g>
     </g>
     <g id="text_12">
      <!-- 50 -->
      <g transform="translate(37.875 45.358892)scale(0.1 -0.1)">
       <use xlink:href="#DejaVuSans-53"/>
       <use x="63.623047" xlink:href="#DejaVuSans-48"/>
      </g>
     </g>
    </g>
    <g id="text_13">
     <!-- Pitch -->
     <defs>
      <path d="M 19.671875 64.796875 
L 19.671875 37.40625 
L 32.078125 37.40625 
Q 38.96875 37.40625 42.71875 40.96875 
Q 46.484375 44.53125 46.484375 51.125 
Q 46.484375 57.671875 42.71875 61.234375 
Q 38.96875 64.796875 32.078125 64.796875 
z
M 9.8125 72.90625 
L 32.078125 72.90625 
Q 44.34375 72.90625 50.609375 67.359375 
Q 56.890625 61.8125 56.890625 51.125 
Q 56.890625 40.328125 50.609375 34.8125 
Q 44.34375 29.296875 32.078125 29.296875 
L 19.671875 29.296875 
L 19.671875 0 
L 9.8125 0 
z
" id="DejaVuSans-80"/>
      <path d="M 9.421875 54.6875 
L 18.40625 54.6875 
L 18.40625 0 
L 9.421875 0 
z
M 9.421875 75.984375 
L 18.40625 75.984375 
L 18.40625 64.59375 
L 9.421875 64.59375 
z
" id="DejaVuSans-105"/>
      <path d="M 18.3125 70.21875 
L 18.3125 54.6875 
L 36.8125 54.6875 
L 36.8125 47.703125 
L 18.3125 47.703125 
L 18.3125 18.015625 
Q 18.3125 11.328125 20.140625 9.421875 
Q 21.96875 7.515625 27.59375 7.515625 
L 36.8125 7.515625 
L 36.8125 0 
L 27.59375 0 
Q 17.1875 0 13.234375 3.875 
Q 9.28125 7.765625 9.28125 18.015625 
L 9.28125 47.703125 
L 2.6875 47.703125 
L 2.6875 54.6875 
L 9.28125 54.6875 
L 9.28125 70.21875 
z
" id="DejaVuSans-116"/>
      <path d="M 48.78125 52.59375 
L 48.78125 44.1875 
Q 44.96875 46.296875 41.140625 47.34375 
Q 37.3125 48.390625 33.40625 48.390625 
Q 24.65625 48.390625 19.8125 42.84375 
Q 14.984375 37.3125 14.984375 27.296875 
Q 14.984375 17.28125 19.8125 11.734375 
Q 24.65625 6.203125 33.40625 6.203125 
Q 37.3125 6.203125 41.140625 7.25 
Q 44.96875 8.296875 48.78125 10.40625 
L 48.78125 2.09375 
Q 45.015625 0.34375 40.984375 -0.53125 
Q 36.96875 -1.421875 32.421875 -1.421875 
Q 20.0625 -1.421875 12.78125 6.34375 
Q 5.515625 14.109375 5.515625 27.296875 
Q 5.515625 40.671875 12.859375 48.328125 
Q 20.21875 56 33.015625 56 
Q 37.15625 56 41.109375 55.140625 
Q 45.0625 54.296875 48.78125 52.59375 
z
" id="DejaVuSans-99"/>
      <path d="M 54.890625 33.015625 
L 54.890625 0 
L 45.90625 0 
L 45.90625 32.71875 
Q 45.90625 40.484375 42.875 44.328125 
Q 39.84375 48.1875 33.796875 48.1875 
Q 26.515625 48.1875 22.3125 43.546875 
Q 18.109375 38.921875 18.109375 30.90625 
L 18.109375 0 
L 9.078125 0 
L 9.078125 75.984375 
L 18.109375 75.984375 
L 18.109375 46.1875 
Q 21.34375 51.125 25.703125 53.5625 
Q 30.078125 56 35.796875 56 
Q 45.21875 56 50.046875 50.171875 
Q 54.890625 44.34375 54.890625 33.015625 
z
" id="DejaVuSans-104"/>
     </defs>
     <g transform="translate(23.415625 114.232469)rotate(-90)scale(0.1 -0.1)">
      <use xlink:href="#DejaVuSans-80"/>
      <use x="60.271484" xlink:href="#DejaVuSans-105"/>
      <use x="88.054688" xlink:href="#DejaVuSans-116"/>
      <use x="127.263672" xlink:href="#DejaVuSans-99"/>
      <use x="182.244141" xlink:href="#DejaVuSans-104"/>
     </g>
    </g>
   </g>
   <g id="line2d_13">
    <path clip-path="url(#pbead963101)" d="M 73.832727 87.256452 
L 92.031581 87.256452 
L 93.331499 86.606887 
L 93.981458 86.300097 
L 94.306437 82.90458 
L 102.755905 82.90458 
L 103.080885 80.722958 
L 105.030762 80.737805 
L 105.355741 82.90458 
L 109.905455 82.90458 
L 110.230434 79.010389 
L 110.880393 78.651263 
L 111.205373 78.375818 
L 112.505291 76.632293 
L 113.15525 76.219124 
L 114.130188 76.014971 
L 116.405045 75.949624 
L 118.679902 77.159586 
L 119.004881 80.100284 
L 119.65484 81.017935 
L 119.97982 80.724422 
L 121.604717 80.544364 
L 121.929697 80.032213 
L 122.254676 80.175788 
L 122.904636 80.16873 
L 123.229615 79.044733 
L 123.554595 79.678234 
L 123.879574 79.771931 
L 124.204554 79.742142 
L 124.854513 80.74948 
L 125.179492 80.72482 
L 125.504472 81.082905 
L 125.829451 81.783246 
L 126.154431 81.764438 
L 126.47941 81.892308 
L 126.80439 82.682619 
L 127.129369 82.90458 
L 127.454349 76.760917 
L 127.779328 76.47985 
L 128.104308 76.471475 
L 128.429287 76.705172 
L 128.754267 77.151531 
L 129.404226 78.693962 
L 130.054185 81.136998 
L 130.379165 82.679569 
L 130.704144 81.865637 
L 131.029124 80.640361 
L 131.354103 82.90458 
L 132.979001 82.79444 
L 133.62896 81.386807 
L 133.953939 81.04926 
L 135.253857 80.789152 
L 135.578837 81.139875 
L 135.903817 80.967305 
L 136.228796 80.127855 
L 136.878755 79.75521 
L 137.203735 79.540666 
L 137.528714 79.569154 
L 137.853694 80.165634 
L 138.503653 81.985333 
L 138.828632 82.892796 
L 142.078428 82.90458 
L 144.028305 83.013375 
L 144.353284 86.509479 
L 144.678264 91.948294 
L 145.328223 92.427639 
L 145.653202 91.79407 
L 146.628141 82.90458 
L 157.352465 82.90458 
L 157.677445 83.29662 
L 158.327404 84.983699 
L 158.652383 85.493672 
L 158.977363 85.541474 
L 159.302342 85.341658 
L 159.627322 84.79767 
L 159.952301 84.558787 
L 160.60226 83.277442 
L 160.92724 82.90458 
L 162.877117 82.90458 
L 163.527076 84.247715 
L 163.852056 84.502152 
L 164.826994 84.46737 
L 165.151974 85.00783 
L 165.476953 85.208535 
L 166.451892 85.15819 
L 166.776871 82.482829 
L 168.401769 82.473361 
L 169.051728 83.496338 
L 170.026667 83.765998 
L 170.351646 84.353479 
L 170.676626 83.831416 
L 171.651564 80.082677 
L 171.976544 79.600439 
L 172.301523 79.321956 
L 172.626503 79.208627 
L 173.276462 81.144189 
L 173.601441 81.810735 
L 174.2514 83.997353 
L 174.57638 80.232596 
L 174.90136 79.654133 
L 175.226339 79.340307 
L 175.551319 79.306915 
L 175.876298 79.51005 
L 176.526257 80.545004 
L 177.501196 84.129807 
L 177.826175 84.287379 
L 178.151155 82.000131 
L 178.476134 81.033035 
L 179.126093 76.948913 
L 179.451073 76.309022 
L 179.776052 78.455407 
L 180.101032 79.422732 
L 180.426011 81.017629 
L 180.750991 74.963196 
L 181.075971 79.220807 
L 181.40095 80.01509 
L 181.72593 76.196556 
L 182.375889 66.303296 
L 182.700868 85.112102 
L 183.025848 86.148487 
L 183.350827 86.188192 
L 184.000786 83.078877 
L 184.325766 83.312457 
L 184.650745 85.170093 
L 184.975725 86.009995 
L 185.300704 88.02435 
L 185.625684 88.61867 
L 185.950663 89.554632 
L 186.275643 89.761457 
L 186.600622 89.819443 
L 187.250581 82.90458 
L 187.575561 82.90458 
L 187.900541 84.949937 
L 188.22552 88.463194 
L 188.5505 83.446367 
L 189.525438 83.441493 
L 189.850418 83.485479 
L 190.175397 84.525353 
L 190.500377 81.492252 
L 192.450254 81.379938 
L 194.075152 81.136123 
L 194.725111 81.96105 
L 195.05009 81.93968 
L 195.700049 82.90458 
L 196.999967 82.90458 
L 197.324947 86.525233 
L 197.649926 84.498642 
L 197.974906 80.710218 
L 198.299885 81.705042 
L 198.624865 83.465393 
L 198.949844 84.026427 
L 199.274824 81.382582 
L 199.599803 81.138115 
L 199.924783 82.258159 
L 200.249762 80.405172 
L 200.574742 82.55618 
L 200.899722 82.716311 
L 201.549681 80.455145 
L 201.87466 81.288557 
L 202.19964 80.90628 
L 202.524619 79.111616 
L 202.849599 78.394133 
L 203.174578 80.091276 
L 203.499558 80.750224 
L 203.824537 80.634661 
L 204.149517 94.249871 
L 204.799476 99.72908 
L 205.124455 97.932556 
L 205.449435 101.349145 
L 205.774414 102.53983 
L 207.724292 102.53983 
L 208.374251 102.245689 
L 208.69923 102.340238 
L 209.02421 102.819483 
L 209.349189 102.775428 
L 209.674169 63.530359 
L 210.324128 63.507431 
L 210.649107 64.789522 
L 210.974087 65.582026 
L 211.299066 65.926352 
L 211.624046 67.756661 
L 211.949025 68.244271 
L 212.274005 68.223648 
L 212.598984 67.88245 
L 212.923964 66.255519 
L 213.248943 65.656033 
L 213.573923 63.119678 
L 213.898903 62.583953 
L 214.223882 79.969285 
L 215.5238 82.429537 
L 216.498739 84.56565 
L 217.473677 82.903303 
L 218.123636 82.345248 
L 218.773595 82.057313 
L 219.098575 81.660093 
L 219.423554 81.79077 
L 219.748534 81.542314 
L 225.923145 80.742803 
L 226.248124 81.814614 
L 226.573104 81.494067 
L 226.898084 82.90458 
L 227.223063 82.303778 
L 227.873022 78.754269 
L 228.198002 78.477952 
L 228.522981 78.402341 
L 228.847961 79.200843 
L 229.17294 76.833168 
L 229.49792 76.578071 
L 229.822899 76.542858 
L 230.147879 78.431023 
L 230.797838 86.645276 
L 232.422735 86.095821 
L 232.747715 85.659916 
L 233.397674 82.90458 
L 233.722654 81.391493 
L 247.046814 81.468318 
L 251.921507 81.080775 
L 252.246486 81.952418 
L 252.571466 82.41808 
L 252.896446 82.668268 
L 253.221425 82.175129 
L 253.546405 82.90458 
L 255.171302 82.90458 
L 255.496282 78.380172 
L 256.146241 77.547027 
L 256.47122 81.106316 
L 256.7962 78.924533 
L 257.121179 80.923437 
L 257.446159 81.390399 
L 258.096118 81.768235 
L 258.421097 82.61859 
L 258.746077 82.598566 
L 259.071057 82.700969 
L 259.396036 84.826717 
L 259.721016 85.922155 
L 260.045995 87.450803 
L 260.370975 87.863203 
L 261.020934 88.2772 
L 261.670893 89.062243 
L 261.995872 89.43422 
L 262.320852 89.587978 
L 262.645831 89.888555 
L 262.970811 88.704798 
L 263.29579 88.00823 
L 263.62077 86.978654 
L 263.945749 83.228543 
L 264.270729 82.90458 
L 264.595708 80.861406 
L 264.920688 81.995441 
L 265.245667 81.85615 
L 265.895627 79.040029 
L 266.870565 75.931535 
L 267.520524 75.047464 
L 267.845504 75.018633 
L 268.170483 75.170608 
L 268.495463 75.782506 
L 268.820442 81.806542 
L 269.470401 80.778017 
L 269.795381 80.717184 
L 270.44534 82.570842 
L 270.770319 84.1852 
L 271.095299 84.628183 
L 271.745258 84.81431 
L 272.720197 85.026689 
L 273.045176 83.211414 
L 273.370156 82.839227 
L 273.695135 82.733551 
L 274.020115 84.537661 
L 274.345094 84.607237 
L 274.670074 85.780418 
L 274.995053 85.720857 
L 275.320033 84.883894 
L 275.645012 84.368813 
L 275.969992 83.231681 
L 276.294971 82.90458 
L 276.94493 82.90458 
L 277.26991 81.845787 
L 277.594889 79.84122 
L 278.244848 79.209757 
L 279.219787 77.776269 
L 279.544767 82.708457 
L 280.194726 80.615743 
L 280.519705 79.604975 
L 280.844685 79.11499 
L 281.494644 77.449488 
L 282.144603 76.811021 
L 282.794562 79.488886 
L 283.119541 80.274315 
L 283.7695 82.90458 
L 284.419459 82.90458 
L 284.744439 82.087922 
L 299.043538 82.159983 
L 299.368518 84.437312 
L 300.018477 83.105989 
L 300.668436 83.118224 
L 300.993415 82.865925 
L 301.318395 81.880328 
L 301.643374 81.273268 
L 302.618313 81.145899 
L 302.943292 82.90458 
L 303.268272 82.90458 
L 303.593251 82.730713 
L 304.89317 82.81401 
L 306.193088 79.729931 
L 308.142965 79.313331 
L 308.467944 82.90458 
L 314.642555 82.90458 
L 314.967535 82.561054 
L 315.292514 81.651197 
L 315.942473 80.720447 
L 316.267453 82.90458 
L 316.917412 82.90458 
L 317.242391 80.202491 
L 319.517248 79.799026 
L 319.842228 80.535246 
L 320.167207 81.546948 
L 321.467125 81.363472 
L 322.117084 82.455702 
L 322.442064 82.281039 
L 322.767043 81.113437 
L 323.092023 80.379894 
L 323.417002 83.388731 
L 323.741982 83.423872 
L 324.391941 86.336803 
L 325.0419 86.419523 
L 325.691859 86.518815 
L 326.666798 86.302679 
L 327.641736 85.883614 
L 328.616675 85.395622 
L 328.941654 81.941418 
L 329.266634 82.872982 
L 330.566552 82.90458 
L 330.891532 82.90458 
L 331.216511 84.690045 
L 331.541491 84.616491 
L 332.19145 82.504569 
L 332.516429 82.90458 
L 333.491368 82.90458 
L 333.816347 83.237593 
L 334.141327 84.121645 
L 335.116265 84.234604 
L 335.441245 84.644314 
L 336.416183 84.508026 
L 336.741163 86.044584 
L 337.066143 86.034688 
L 337.716102 83.052937 
L 338.366061 83.029115 
L 338.69104 84.303899 
L 339.01602 84.57139 
L 339.340999 85.029527 
L 339.665979 85.170363 
L 339.990958 85.690235 
L 340.640917 86.149916 
L 340.965897 86.563094 
L 343.240753 86.457416 
L 343.890713 86.478342 
L 344.215692 86.124893 
L 344.540672 81.648549 
L 344.865651 81.653265 
L 345.190631 81.328093 
L 345.51561 81.308372 
L 347.790467 69.38107 
L 348.115446 66.561279 
L 348.440426 66.210114 
L 348.765405 66.840741 
L 349.090385 66.336699 
L 349.740344 52.747621 
L 350.390303 47.350638 
L 350.715283 46.970182 
L 351.040262 47.700519 
L 351.365242 49.102613 
L 351.690221 51.176836 
L 352.34018 60.872396 
L 352.66516 61.242145 
L 352.990139 55.734149 
L 353.640098 51.196759 
L 353.965078 50.533041 
L 354.290057 50.31381 
L 354.940016 52.232845 
L 355.589975 56.859452 
L 356.239934 64.149744 
L 356.564914 67.205619 
L 357.214873 59.78276 
L 357.539853 58.16573 
L 357.864832 57.394338 
L 358.189812 82.90458 
L 361.114627 82.836426 
L 361.439607 81.985142 
L 361.764586 81.620639 
L 364.364423 81.485049 
L 364.689402 84.466245 
L 365.664341 83.159547 
L 366.3143 82.591237 
L 366.639279 82.491585 
L 366.964259 82.514302 
L 367.614218 82.940718 
L 367.939197 83.150751 
L 368.264177 84.151205 
L 368.589156 85.899567 
L 369.239115 85.870586 
L 369.889075 85.260249 
L 372.163931 85.50057 
L 374.763767 85.84481 
L 375.413726 84.818954 
L 376.063686 83.558285 
L 376.713645 83.046356 
L 377.038624 82.980724 
L 377.363604 83.414279 
L 378.338542 81.973743 
L 378.988501 81.650759 
L 379.313481 81.625086 
L 379.96344 81.871988 
L 380.938378 83.005693 
L 381.263358 83.706773 
L 381.588337 77.517459 
L 381.913317 78.318997 
L 382.238296 80.196016 
L 382.888256 77.695833 
L 383.213235 76.876292 
L 383.538215 76.516036 
L 384.513153 76.477235 
L 384.838133 76.898882 
L 385.813071 79.055594 
L 386.138051 76.105266 
L 386.46303 81.424852 
L 386.78801 82.349328 
L 387.112989 82.271265 
L 387.437969 81.074022 
L 388.412907 79.165777 
L 388.737887 79.028712 
L 389.062867 79.213747 
L 389.712826 81.064337 
L 390.362785 82.461386 
L 391.012744 84.132624 
L 394.262539 84.143079 
L 394.587518 83.387069 
L 394.912498 82.925042 
L 396.862375 82.90458 
L 398.487273 82.90458 
L 398.487273 82.90458 
" style="fill:none;stroke:#ff0000;stroke-dasharray:5.55,2.4;stroke-dashoffset:0;stroke-width:1.5;"/>
   </g>
   <g id="line2d_14">
    <path clip-path="url(#pbead963101)" d="M 73.832727 85.784376 
L 82.932154 85.784376 
L 83.257133 108.260971 
L 85.53199 108.260971 
L 85.85697 85.483686 
L 86.181949 79.996089 
L 86.831908 79.996089 
L 87.156888 80.29678 
L 87.806847 82.627129 
L 88.131826 83.303682 
L 88.456806 85.333341 
L 88.781785 86.160239 
L 89.106765 85.859549 
L 89.431744 85.859549 
L 89.756724 86.235412 
L 90.081704 86.911965 
L 90.731663 86.911965 
L 91.381622 84.949364 
L 91.706601 84.272103 
L 92.35656 86.58477 
L 92.68154 86.001748 
L 93.006519 86.638732 
L 93.331499 88.444177 
L 95.281376 88.444177 
L 95.606355 88.293832 
L 95.931335 87.842797 
L 96.256314 86.715208 
L 96.581294 86.489691 
L 98.531171 86.489691 
L 98.856151 85.396207 
L 99.18113 85.128315 
L 99.50611 83.94844 
L 100.156069 83.407649 
L 100.481048 87.155065 
L 101.131007 85.157374 
L 101.455987 84.863353 
L 101.780966 82.913396 
L 102.105946 83.91892 
L 102.755905 90.798164 
L 103.080885 93.475174 
L 103.730844 93.862355 
L 104.055823 94.54734 
L 105.030762 94.55257 
L 105.355741 95.379591 
L 105.680721 97.409326 
L 106.0057 97.559687 
L 106.655659 97.559693 
L 107.305618 89.365885 
L 107.630598 85.456912 
L 107.955577 84.479669 
L 108.605536 84.479669 
L 108.930516 92.598305 
L 109.905455 92.523132 
L 110.230434 92.222442 
L 110.555414 92.222442 
L 110.880393 92.072097 
L 111.205373 91.54589 
L 112.180311 88.538988 
L 112.505291 87.486572 
L 112.83027 87.71209 
L 113.15525 88.614161 
L 113.480229 91.170025 
L 113.805209 90.076543 
L 114.455168 89.663002 
L 114.780147 89.716637 
L 115.105127 90.252728 
L 116.080066 95.05561 
L 116.730025 94.218772 
L 117.055004 94.039305 
L 117.379984 92.890998 
L 118.029943 92.523412 
L 118.679902 92.972078 
L 119.004881 93.509763 
L 119.329861 93.318351 
L 119.65484 94.478737 
L 120.629779 93.51497 
L 120.954758 93.886532 
L 121.279738 94.967797 
L 121.929697 95.12259 
L 122.254676 94.219146 
L 122.904636 92.923192 
L 123.229615 92.003569 
L 123.554595 91.801192 
L 123.879574 91.815419 
L 124.204554 92.494136 
L 124.854513 92.558292 
L 125.179492 92.139437 
L 126.154431 90.011221 
L 126.47941 89.794423 
L 126.80439 89.959637 
L 127.129369 89.502839 
L 127.454349 87.423489 
L 127.779328 86.600608 
L 128.429287 86.526832 
L 129.079247 85.287777 
L 129.404226 84.262762 
L 129.729206 83.811826 
L 130.379165 83.361752 
L 131.354103 81.158365 
L 131.679083 80.025515 
L 132.004062 80.187469 
L 132.654021 83.68462 
L 132.979001 83.305619 
L 133.30398 82.522651 
L 133.62896 81.347291 
L 133.953939 80.843219 
L 134.278919 81.949437 
L 134.603898 80.931126 
L 134.928878 80.631667 
L 135.253857 82.600878 
L 135.578837 82.463948 
L 135.903817 82.056843 
L 136.553776 83.496784 
L 136.878755 83.923912 
L 137.203735 90.411632 
L 137.853694 94.550164 
L 138.828632 97.030986 
L 139.478591 95.519265 
L 139.803571 93.258402 
L 140.12855 93.50706 
L 140.778509 92.838378 
L 141.103489 92.869139 
L 141.428468 91.703837 
L 141.753448 91.693442 
L 142.078428 90.652445 
L 142.403407 90.579284 
L 142.728387 90.955512 
L 143.053366 90.955561 
L 143.378346 90.504541 
L 143.703325 90.504541 
L 144.028305 89.932711 
L 144.353284 88.28338 
L 144.678264 87.67531 
L 145.003243 86.316519 
L 145.328223 85.963796 
L 145.653202 84.28764 
L 145.978182 84.047078 
L 146.303161 82.132325 
L 146.628141 83.002645 
L 146.95312 87.187192 
L 147.603079 90.558522 
L 149.227977 90.585609 
L 149.552957 91.788376 
L 149.877936 92.164239 
L 150.202916 93.141482 
L 150.852875 91.972737 
L 151.177854 90.908952 
L 151.502834 90.458015 
L 151.827813 90.339386 
L 152.152793 88.974417 
L 152.477772 88.615327 
L 152.802752 87.348504 
L 153.127731 87.034122 
L 153.452711 87.603752 
L 153.77769 86.405522 
L 154.10267 86.021819 
L 154.427649 87.213853 
L 154.752629 85.982707 
L 155.077609 85.849839 
L 155.727568 84.089356 
L 156.377527 86.079338 
L 156.702506 86.558912 
L 157.352465 86.823035 
L 157.677445 86.844508 
L 158.652383 85.634251 
L 158.977363 85.922898 
L 159.302342 85.890313 
L 159.627322 85.641357 
L 159.952301 86.229177 
L 160.277281 85.24007 
L 160.60226 84.944142 
L 161.252219 87.681451 
L 161.577199 88.296277 
L 161.902179 88.304587 
L 162.227158 86.354631 
L 162.552138 85.931876 
L 162.877117 85.781197 
L 163.202097 84.357448 
L 163.527076 83.934693 
L 163.852056 83.994197 
L 164.177035 84.746022 
L 164.502015 85.098035 
L 165.151974 85.351333 
L 166.451892 85.396676 
L 168.07679 85.397512 
L 170.026667 82.629343 
L 171.976544 78.788356 
L 172.301523 77.564448 
L 172.626503 81.111789 
L 172.951482 86.24673 
L 173.276462 87.167147 
L 173.601441 87.571953 
L 174.2514 87.726776 
L 174.57638 87.592387 
L 174.90136 87.895707 
L 175.226339 87.897285 
L 175.551319 88.423909 
L 175.876298 89.626779 
L 176.201278 92.298828 
L 176.851237 92.416451 
L 178.476134 92.344921 
L 178.801114 92.57044 
L 179.126093 88.661467 
L 179.451073 86.180772 
L 179.776052 85.654565 
L 180.426011 85.654565 
L 181.075971 86.030427 
L 182.700868 86.030427 
L 183.025848 85.012117 
L 183.350827 84.744224 
L 183.675807 83.991847 
L 184.000786 83.841602 
L 184.325766 82.722868 
L 184.650745 82.08294 
L 184.975725 80.602611 
L 185.300704 83.781279 
L 185.625684 83.083579 
L 185.950663 90.901742 
L 186.600622 95.663264 
L 186.925602 95.989788 
L 187.250581 96.742925 
L 187.900541 97.09685 
L 188.22552 96.362196 
L 188.5505 94.861436 
L 189.525438 92.89713 
L 190.175397 91.399715 
L 190.500377 86.222372 
L 190.825356 86.523062 
L 191.150336 87.575478 
L 191.475315 87.800996 
L 191.800295 87.800996 
L 192.125274 88.101686 
L 193.100213 88.327203 
L 193.425192 87.876168 
L 194.075152 87.876168 
L 194.400131 88.101686 
L 195.05009 88.101686 
L 195.37507 87.262489 
L 195.700049 86.862602 
L 196.350008 85.465967 
L 196.674988 85.288886 
L 196.999967 83.923917 
L 197.324947 83.639999 
L 197.649926 82.974558 
L 197.974906 82.77046 
L 198.624865 80.704214 
L 198.949844 80.629639 
L 199.274824 79.698609 
L 199.599803 79.197438 
L 199.924783 79.007708 
L 200.249762 77.702484 
L 200.574742 78.10729 
L 201.224701 78.262113 
L 201.549681 78.127724 
L 201.87466 79.333116 
L 202.19964 87.227812 
L 202.524619 88.430989 
L 203.174578 89.182847 
L 203.824537 89.182861 
L 204.149517 93.091833 
L 204.799476 93.091833 
L 205.124455 92.941488 
L 205.449435 91.137347 
L 205.774414 91.889072 
L 207.399312 91.889072 
L 208.049271 91.51321 
L 208.374251 92.340108 
L 208.69923 93.693214 
L 209.02421 92.264935 
L 209.349189 85.048369 
L 209.674169 81.289741 
L 209.999148 80.162153 
L 210.324128 79.936635 
L 211.299066 79.936635 
L 211.624046 82.642847 
L 212.274005 97.226322 
L 212.923964 94.971145 
L 213.573923 87.453888 
L 213.898903 85.424229 
L 215.198821 85.499402 
L 215.5238 89.934582 
L 215.84878 96.02356 
L 216.173759 95.186712 
L 216.498739 94.709305 
L 216.823718 97.123177 
L 217.148698 106.016832 
L 217.473677 108.404648 
L 217.798657 108.48222 
L 218.448616 107.740632 
L 218.773595 107.827951 
L 219.098575 106.31961 
L 219.423554 105.46364 
L 219.748534 103.796222 
L 220.073514 103.030482 
L 220.398493 102.829036 
L 220.723473 100.87908 
L 221.048452 100.366094 
L 221.373432 100.231141 
L 221.698411 99.28932 
L 222.023391 97.480353 
L 222.34837 96.485997 
L 222.67335 94.997819 
L 222.998329 94.77632 
L 223.648288 94.777654 
L 223.973268 94.401865 
L 224.298247 92.071534 
L 224.623227 87.260496 
L 224.948206 85.005321 
L 225.273186 84.629458 
L 225.923145 84.629458 
L 226.573104 84.253595 
L 226.898084 83.577042 
L 227.223063 83.577042 
L 227.548043 85.306011 
L 227.873022 86.283254 
L 228.847961 86.283254 
L 229.17294 86.057736 
L 229.49792 85.681873 
L 230.797838 85.456356 
L 231.122817 84.438045 
L 231.447797 84.170153 
L 231.772776 82.839933 
L 232.097756 82.312323 
L 232.422735 80.526863 
L 232.747715 80.167774 
L 233.072695 78.750606 
L 233.397674 79.070691 
L 233.722654 79.0658 
L 234.047633 81.367076 
L 234.372613 80.51122 
L 234.697592 80.632492 
L 235.022572 80.18828 
L 236.32249 75.498092 
L 236.647469 75.169016 
L 236.972449 80.100759 
L 237.622408 80.665462 
L 237.947387 80.906487 
L 238.272367 81.402519 
L 238.597346 81.478675 
L 238.922326 80.647132 
L 239.247305 80.922628 
L 239.572285 80.856788 
L 239.897265 81.214797 
L 240.222244 80.309948 
L 240.872203 80.360186 
L 241.197183 80.136548 
L 241.522162 80.212184 
L 241.847142 81.339846 
L 242.172121 85.624703 
L 242.82208 85.69988 
L 243.14706 86.226087 
L 243.472039 88.030229 
L 243.797019 88.030229 
L 244.121998 87.191032 
L 244.446978 86.791145 
L 244.771957 86.190106 
L 245.096937 86.885738 
L 245.746896 87.345157 
L 246.396855 87.420818 
L 248.021753 87.348843 
L 248.346732 87.724706 
L 248.671712 90.280573 
L 248.996691 90.50609 
L 249.321671 89.93426 
L 249.64665 89.78838 
L 249.97163 90.082382 
L 250.296609 88.934074 
L 250.946568 88.448749 
L 251.271548 90.393426 
L 251.596527 91.409277 
L 251.921507 90.291649 
L 252.246486 89.997628 
L 252.571466 88.047672 
L 252.896446 87.534686 
L 253.221425 85.942439 
L 253.546405 85.251871 
L 253.871384 85.651804 
L 254.196364 84.603918 
L 254.521343 87.473697 
L 255.171302 86.318471 
L 255.496282 86.167792 
L 255.821261 84.217836 
L 256.146241 83.70485 
L 256.47122 84.044669 
L 256.7962 84.134313 
L 257.121179 84.463746 
L 257.771138 84.569201 
L 258.746077 84.580973 
L 259.071057 85.558495 
L 259.396036 87.137178 
L 259.721016 90.74549 
L 260.045995 92.173775 
L 260.370975 91.647569 
L 261.345913 91.647569 
L 261.670893 92.549638 
L 261.995872 92.775156 
L 262.320852 94.579296 
L 265.570647 94.579296 
L 265.895627 93.740101 
L 266.545586 92.814349 
L 266.870565 92.045072 
L 267.195545 91.99304 
L 267.520524 93.183938 
L 267.845504 93.726919 
L 268.170483 92.384925 
L 268.495463 91.729792 
L 268.820442 91.600878 
L 269.145422 89.951611 
L 269.470401 89.490907 
L 269.795381 88.054659 
L 270.12036 87.333458 
L 270.44534 86.989797 
L 271.095299 84.861623 
L 271.420278 84.410575 
L 271.745258 82.622436 
L 272.395217 83.104069 
L 273.370156 83.180714 
L 273.695135 83.182014 
L 274.020115 84.310223 
L 274.345094 84.761421 
L 275.645012 93.331148 
L 275.969992 93.631837 
L 276.94493 84.986993 
L 277.26991 83.032506 
L 277.919869 80.77733 
L 278.244848 80.476639 
L 279.219787 80.476639 
L 279.544767 80.626984 
L 279.869746 81.153192 
L 283.119541 81.153192 
L 283.444521 84.009749 
L 284.09448 84.009749 
L 284.419459 83.248073 
L 284.744439 83.597565 
L 285.069419 86.48233 
L 285.719378 86.15834 
L 286.044357 84.793371 
L 286.369337 84.434281 
L 286.694316 83.017114 
L 287.019296 82.361981 
L 287.344275 82.189631 
L 287.669255 82.345175 
L 287.994234 82.667698 
L 288.969173 82.735445 
L 289.619132 83.78903 
L 290.269091 83.789111 
L 290.59407 82.7708 
L 290.91905 82.502907 
L 291.244029 81.525013 
L 291.569009 81.074077 
L 292.218968 79.450502 
L 292.543948 79.435457 
L 292.868927 78.218196 
L 293.193907 78.079998 
L 293.518886 77.022691 
L 293.843866 76.617755 
L 294.168845 76.858663 
L 295.793743 80.199627 
L 296.443702 80.200441 
L 297.093661 83.959093 
L 297.41864 84.034267 
L 297.74362 83.959094 
L 298.0686 82.745619 
L 298.393579 82.566151 
L 298.718559 81.417844 
L 299.043538 81.071124 
L 299.368518 79.775766 
L 299.693497 79.365378 
L 300.018477 78.538525 
L 300.343456 79.753433 
L 300.668436 78.202795 
L 300.993415 78.065672 
L 301.318395 78.365851 
L 301.643374 78.824567 
L 302.293333 78.937401 
L 302.618313 78.790987 
L 302.943292 79.768922 
L 303.268272 82.249726 
L 303.593251 82.249758 
L 303.918231 81.410566 
L 304.24321 80.96356 
L 304.56819 79.732443 
L 304.89317 79.481592 
L 305.218149 78.071995 
L 305.543129 78.046454 
L 305.868108 80.557908 
L 306.193088 81.297877 
L 306.518067 81.637388 
L 306.843047 81.647601 
L 307.493006 82.026997 
L 307.817985 83.756061 
L 308.142965 82.916871 
L 308.467944 82.469864 
L 308.792924 81.440334 
L 309.117903 81.469478 
L 309.442883 83.052055 
L 309.767862 83.825248 
L 310.092842 83.957198 
L 310.417821 84.869542 
L 311.067781 84.871328 
L 311.71774 83.782654 
L 312.042719 84.203662 
L 312.367699 84.997078 
L 313.017658 85.146395 
L 313.342637 91.555852 
L 314.317576 91.555852 
L 314.642555 89.676538 
L 315.292514 89.676538 
L 315.617494 89.977228 
L 315.942473 90.954471 
L 316.267453 92.833785 
L 316.592432 92.98413 
L 316.917412 92.98413 
L 317.242391 92.457923 
L 317.892351 92.457923 
L 318.21733 91.104818 
L 318.54231 90.277921 
L 319.517248 90.277921 
L 320.167207 89.139618 
L 320.492187 88.952141 
L 320.817166 88.09323 
L 321.792105 86.477038 
L 322.117084 86.418638 
L 322.442064 87.858027 
L 322.767043 87.125697 
L 323.092023 85.602332 
L 324.066962 82.65843 
L 324.716921 82.972052 
L 325.0419 83.426952 
L 325.691859 83.989558 
L 326.341818 84.829381 
L 326.666798 84.905261 
L 326.991777 86.709589 
L 327.316757 87.837225 
L 327.966716 87.912414 
L 329.266634 87.912414 
L 329.916593 88.814485 
L 330.241572 89.040003 
L 330.891532 89.040003 
L 332.19145 89.566211 
L 332.841409 89.566211 
L 333.166388 89.340693 
L 334.466306 86.832026 
L 334.791286 86.814475 
L 335.116265 88.030368 
L 335.766224 91.600519 
L 336.091204 90.769029 
L 336.416183 88.848457 
L 345.51561 88.848457 
L 345.84059 88.397421 
L 347.465487 88.397421 
L 347.790467 88.247076 
L 348.115446 86.442935 
L 348.440426 83.811895 
L 348.765405 83.210515 
L 349.415364 83.210515 
L 350.065324 86.442935 
L 350.390303 89.224319 
L 350.715283 90.201562 
L 351.040262 89.183252 
L 351.365242 88.915358 
L 351.690221 88.436613 
L 352.015201 88.64458 
L 352.34018 88.628144 
L 352.66516 90.77526 
L 352.990139 92.130567 
L 353.315119 90.713401 
L 354.290057 88.788918 
L 354.615037 88.445257 
L 354.940016 86.072545 
L 355.264996 85.871098 
L 355.589975 91.082658 
L 356.889894 91.007485 
L 357.214873 90.55645 
L 357.864832 90.105415 
L 358.839771 90.105415 
L 359.16475 91.082659 
L 359.48973 91.082659 
L 359.814709 91.308176 
L 360.464668 91.082659 
L 360.789648 90.932314 
L 362.739525 90.932314 
L 363.064505 91.082659 
L 364.364423 91.082659 
L 364.689402 92.210247 
L 365.014382 92.135074 
L 365.664341 91.684039 
L 365.98932 91.533694 
L 366.3143 91.533694 
L 366.639279 92.210247 
L 366.964259 91.909558 
L 367.289238 89.128174 
L 367.614218 87.399205 
L 367.939197 76.649529 
L 368.264177 74.168834 
L 368.589156 73.943317 
L 369.889075 73.943317 
L 370.214054 74.244006 
L 370.539034 76.424011 
L 370.864013 79.806776 
L 371.188993 79.731604 
L 371.513972 78.979878 
L 372.163931 80.859192 
L 372.488911 80.859192 
L 372.81389 88.226102 
L 373.13887 88.000584 
L 380.288419 88.000584 
L 380.613399 76.12332 
L 380.938378 69.733653 
L 381.588337 150.920013 
L 381.913317 156.933818 
L 382.563276 153.626219 
L 382.888256 153.47587 
L 383.213235 151.52138 
L 384.513153 122.95581 
L 384.838133 111.379239 
L 385.488092 82.813666 
L 386.138051 73.943305 
L 386.46303 72.289508 
L 386.78801 71.312265 
L 387.112989 70.86123 
L 387.437969 70.936403 
L 387.762948 75.972965 
L 388.087928 85.51988 
L 388.737887 88.677128 
L 389.062867 89.504026 
L 390.037805 89.428854 
L 390.362785 88.902646 
L 391.337723 88.827473 
L 391.662703 88.677128 
L 392.312662 87.699885 
L 392.637641 87.24885 
L 394.262539 86.797815 
L 395.887437 82.576973 
L 396.212416 82.948622 
L 396.537396 84.245951 
L 396.862375 93.686639 
L 397.187355 93.461122 
L 397.512334 93.385949 
L 398.162293 92.934914 
L 398.487273 92.333534 
L 398.487273 92.333534 
" style="fill:none;stroke:#008000;stroke-linecap:square;stroke-width:1.5;"/>
   </g>
   <g id="patch_3">
    <path d="M 57.6 162.432 
L 57.6 41.472 
" style="fill:none;stroke:#000000;stroke-linecap:square;stroke-linejoin:miter;stroke-width:0.8;"/>
   </g>
   <g id="patch_4">
    <path d="M 414.72 162.432 
L 414.72 41.472 
" style="fill:none;stroke:#000000;stroke-linecap:square;stroke-linejoin:miter;stroke-width:0.8;"/>
   </g>
   <g id="patch_5">
    <path d="M 57.6 162.432 
L 414.72 162.432 
" style="fill:none;stroke:#000000;stroke-linecap:square;stroke-linejoin:miter;stroke-width:0.8;"/>
   </g>
   <g id="patch_6">
    <path d="M 57.6 41.472 
L 414.72 41.472 
" style="fill:none;stroke:#000000;stroke-linecap:square;stroke-linejoin:miter;stroke-width:0.8;"/>
   </g>
   <g id="text_14">
    <!-- Pitch-Yaw Comparison -->
    <defs>
     <path d="M 4.890625 31.390625 
L 31.203125 31.390625 
L 31.203125 23.390625 
L 4.890625 23.390625 
z
" id="DejaVuSans-45"/>
     <path d="M -0.203125 72.90625 
L 10.40625 72.90625 
L 30.609375 42.921875 
L 50.6875 72.90625 
L 61.28125 72.90625 
L 35.5 34.71875 
L 35.5 0 
L 25.59375 0 
L 25.59375 34.71875 
z
" id="DejaVuSans-89"/>
     <path d="M 34.28125 27.484375 
Q 23.390625 27.484375 19.1875 25 
Q 14.984375 22.515625 14.984375 16.5 
Q 14.984375 11.71875 18.140625 8.90625 
Q 21.296875 6.109375 26.703125 6.109375 
Q 34.1875 6.109375 38.703125 11.40625 
Q 43.21875 16.703125 43.21875 25.484375 
L 43.21875 27.484375 
z
M 52.203125 31.203125 
L 52.203125 0 
L 43.21875 0 
L 43.21875 8.296875 
Q 40.140625 3.328125 35.546875 0.953125 
Q 30.953125 -1.421875 24.3125 -1.421875 
Q 15.921875 -1.421875 10.953125 3.296875 
Q 6 8.015625 6 15.921875 
Q 6 25.140625 12.171875 29.828125 
Q 18.359375 34.515625 30.609375 34.515625 
L 43.21875 34.515625 
L 43.21875 35.40625 
Q 43.21875 41.609375 39.140625 45 
Q 35.0625 48.390625 27.6875 48.390625 
Q 23 48.390625 18.546875 47.265625 
Q 14.109375 46.140625 10.015625 43.890625 
L 10.015625 52.203125 
Q 14.9375 54.109375 19.578125 55.046875 
Q 24.21875 56 28.609375 56 
Q 40.484375 56 46.34375 49.84375 
Q 52.203125 43.703125 52.203125 31.203125 
z
" id="DejaVuSans-97"/>
     <path d="M 4.203125 54.6875 
L 13.1875 54.6875 
L 24.421875 12.015625 
L 35.59375 54.6875 
L 46.1875 54.6875 
L 57.421875 12.015625 
L 68.609375 54.6875 
L 77.59375 54.6875 
L 63.28125 0 
L 52.6875 0 
L 40.921875 44.828125 
L 29.109375 0 
L 18.5 0 
z
" id="DejaVuSans-119"/>
     <path id="DejaVuSans-32"/>
     <path d="M 64.40625 67.28125 
L 64.40625 56.890625 
Q 59.421875 61.53125 53.78125 63.8125 
Q 48.140625 66.109375 41.796875 66.109375 
Q 29.296875 66.109375 22.65625 58.46875 
Q 16.015625 50.828125 16.015625 36.375 
Q 16.015625 21.96875 22.65625 14.328125 
Q 29.296875 6.6875 41.796875 6.6875 
Q 48.140625 6.6875 53.78125 8.984375 
Q 59.421875 11.28125 64.40625 15.921875 
L 64.40625 5.609375 
Q 59.234375 2.09375 53.4375 0.328125 
Q 47.65625 -1.421875 41.21875 -1.421875 
Q 24.65625 -1.421875 15.125 8.703125 
Q 5.609375 18.84375 5.609375 36.375 
Q 5.609375 53.953125 15.125 64.078125 
Q 24.65625 74.21875 41.21875 74.21875 
Q 47.75 74.21875 53.53125 72.484375 
Q 59.328125 70.75 64.40625 67.28125 
z
" id="DejaVuSans-67"/>
     <path d="M 30.609375 48.390625 
Q 23.390625 48.390625 19.1875 42.75 
Q 14.984375 37.109375 14.984375 27.296875 
Q 14.984375 17.484375 19.15625 11.84375 
Q 23.34375 6.203125 30.609375 6.203125 
Q 37.796875 6.203125 41.984375 11.859375 
Q 46.1875 17.53125 46.1875 27.296875 
Q 46.1875 37.015625 41.984375 42.703125 
Q 37.796875 48.390625 30.609375 48.390625 
z
M 30.609375 56 
Q 42.328125 56 49.015625 48.375 
Q 55.71875 40.765625 55.71875 27.296875 
Q 55.71875 13.875 49.015625 6.21875 
Q 42.328125 -1.421875 30.609375 -1.421875 
Q 18.84375 -1.421875 12.171875 6.21875 
Q 5.515625 13.875 5.515625 27.296875 
Q 5.515625 40.765625 12.171875 48.375 
Q 18.84375 56 30.609375 56 
z
" id="DejaVuSans-111"/>
     <path d="M 52 44.1875 
Q 55.375 50.25 60.0625 53.125 
Q 64.75 56 71.09375 56 
Q 79.640625 56 84.28125 50.015625 
Q 88.921875 44.046875 88.921875 33.015625 
L 88.921875 0 
L 79.890625 0 
L 79.890625 32.71875 
Q 79.890625 40.578125 77.09375 44.375 
Q 74.3125 48.1875 68.609375 48.1875 
Q 61.625 48.1875 57.5625 43.546875 
Q 53.515625 38.921875 53.515625 30.90625 
L 53.515625 0 
L 44.484375 0 
L 44.484375 32.71875 
Q 44.484375 40.625 41.703125 44.40625 
Q 38.921875 48.1875 33.109375 48.1875 
Q 26.21875 48.1875 22.15625 43.53125 
Q 18.109375 38.875 18.109375 30.90625 
L 18.109375 0 
L 9.078125 0 
L 9.078125 54.6875 
L 18.109375 54.6875 
L 18.109375 46.1875 
Q 21.1875 51.21875 25.484375 53.609375 
Q 29.78125 56 35.6875 56 
Q 41.65625 56 45.828125 52.96875 
Q 50 49.953125 52 44.1875 
z
" id="DejaVuSans-109"/>
     <path d="M 18.109375 8.203125 
L 18.109375 -20.796875 
L 9.078125 -20.796875 
L 9.078125 54.6875 
L 18.109375 54.6875 
L 18.109375 46.390625 
Q 20.953125 51.265625 25.265625 53.625 
Q 29.59375 56 35.59375 56 
Q 45.5625 56 51.78125 48.09375 
Q 58.015625 40.1875 58.015625 27.296875 
Q 58.015625 14.40625 51.78125 6.484375 
Q 45.5625 -1.421875 35.59375 -1.421875 
Q 29.59375 -1.421875 25.265625 0.953125 
Q 20.953125 3.328125 18.109375 8.203125 
z
M 48.6875 27.296875 
Q 48.6875 37.203125 44.609375 42.84375 
Q 40.53125 48.484375 33.40625 48.484375 
Q 26.265625 48.484375 22.1875 42.84375 
Q 18.109375 37.203125 18.109375 27.296875 
Q 18.109375 17.390625 22.1875 11.75 
Q 26.265625 6.109375 33.40625 6.109375 
Q 40.53125 6.109375 44.609375 11.75 
Q 48.6875 17.390625 48.6875 27.296875 
z
" id="DejaVuSans-112"/>
     <path d="M 41.109375 46.296875 
Q 39.59375 47.171875 37.8125 47.578125 
Q 36.03125 48 33.890625 48 
Q 26.265625 48 22.1875 43.046875 
Q 18.109375 38.09375 18.109375 28.8125 
L 18.109375 0 
L 9.078125 0 
L 9.078125 54.6875 
L 18.109375 54.6875 
L 18.109375 46.1875 
Q 20.953125 51.171875 25.484375 53.578125 
Q 30.03125 56 36.53125 56 
Q 37.453125 56 38.578125 55.875 
Q 39.703125 55.765625 41.0625 55.515625 
z
" id="DejaVuSans-114"/>
     <path d="M 44.28125 53.078125 
L 44.28125 44.578125 
Q 40.484375 46.53125 36.375 47.5 
Q 32.28125 48.484375 27.875 48.484375 
Q 21.1875 48.484375 17.84375 46.4375 
Q 14.5 44.390625 14.5 40.28125 
Q 14.5 37.15625 16.890625 35.375 
Q 19.28125 33.59375 26.515625 31.984375 
L 29.59375 31.296875 
Q 39.15625 29.25 43.1875 25.515625 
Q 47.21875 21.78125 47.21875 15.09375 
Q 47.21875 7.46875 41.1875 3.015625 
Q 35.15625 -1.421875 24.609375 -1.421875 
Q 20.21875 -1.421875 15.453125 -0.5625 
Q 10.6875 0.296875 5.421875 2 
L 5.421875 11.28125 
Q 10.40625 8.6875 15.234375 7.390625 
Q 20.0625 6.109375 24.8125 6.109375 
Q 31.15625 6.109375 34.5625 8.28125 
Q 37.984375 10.453125 37.984375 14.40625 
Q 37.984375 18.0625 35.515625 20.015625 
Q 33.0625 21.96875 24.703125 23.78125 
L 21.578125 24.515625 
Q 13.234375 26.265625 9.515625 29.90625 
Q 5.8125 33.546875 5.8125 39.890625 
Q 5.8125 47.609375 11.28125 51.796875 
Q 16.75 56 26.8125 56 
Q 31.78125 56 36.171875 55.265625 
Q 40.578125 54.546875 44.28125 53.078125 
z
" id="DejaVuSans-115"/>
     <path d="M 54.890625 33.015625 
L 54.890625 0 
L 45.90625 0 
L 45.90625 32.71875 
Q 45.90625 40.484375 42.875 44.328125 
Q 39.84375 48.1875 33.796875 48.1875 
Q 26.515625 48.1875 22.3125 43.546875 
Q 18.109375 38.921875 18.109375 30.90625 
L 18.109375 0 
L 9.078125 0 
L 9.078125 54.6875 
L 18.109375 54.6875 
L 18.109375 46.1875 
Q 21.34375 51.125 25.703125 53.5625 
Q 30.078125 56 35.796875 56 
Q 45.21875 56 50.046875 50.171875 
Q 54.890625 44.34375 54.890625 33.015625 
z
" id="DejaVuSans-110"/>
    </defs>
    <g transform="translate(169.201875 35.472)scale(0.12 -0.12)">
     <use xlink:href="#DejaVuSans-80"/>
     <use x="60.271484" xlink:href="#DejaVuSans-105"/>
     <use x="88.054688" xlink:href="#DejaVuSans-116"/>
     <use x="127.263672" xlink:href="#DejaVuSans-99"/>
     <use x="182.244141" xlink:href="#DejaVuSans-104"/>
     <use x="245.623047" xlink:href="#DejaVuSans-45"/>
     <use x="281.535156" xlink:href="#DejaVuSans-89"/>
     <use x="342.416016" xlink:href="#DejaVuSans-97"/>
     <use x="403.695312" xlink:href="#DejaVuSans-119"/>
     <use x="485.482422" xlink:href="#DejaVuSans-32"/>
     <use x="517.269531" xlink:href="#DejaVuSans-67"/>
     <use x="587.09375" xlink:href="#DejaVuSans-111"/>
     <use x="648.275391" xlink:href="#DejaVuSans-109"/>
     <use x="745.6875" xlink:href="#DejaVuSans-112"/>
     <use x="809.164062" xlink:href="#DejaVuSans-97"/>
     <use x="870.443359" xlink:href="#DejaVuSans-114"/>
     <use x="911.556641" xlink:href="#DejaVuSans-105"/>
     <use x="939.339844" xlink:href="#DejaVuSans-115"/>
     <use x="991.439453" xlink:href="#DejaVuSans-111"/>
     <use x="1052.621094" xlink:href="#DejaVuSans-110"/>
    </g>
   </g>
  </g>
  <g id="axes_2">
   <g id="patch_7">
    <path d="M 57.6 307.584 
L 414.72 307.584 
L 414.72 186.624 
L 57.6 186.624 
z
" style="fill:#ffffff;"/>
   </g>
   <g id="matplotlib.axis_3">
    <g id="xtick_7">
     <g id="line2d_15">
      <g>
       <use style="stroke:#000000;stroke-width:0.8;" x="73.832727" xlink:href="#m3c52e6deb4" y="307.584"/>
      </g>
     </g>
     <g id="text_15">
      <!-- 0 -->
      <g transform="translate(70.651477 322.182437)scale(0.1 -0.1)">
       <use xlink:href="#DejaVuSans-48"/>
      </g>
     </g>
    </g>
    <g id="xtick_8">
     <g id="line2d_16">
      <g>
       <use style="stroke:#000000;stroke-width:0.8;" x="138.828632" xlink:href="#m3c52e6deb4" y="307.584"/>
      </g>
     </g>
     <g id="text_16">
      <!-- 200 -->
      <g transform="translate(129.284882 322.182437)scale(0.1 -0.1)">
       <use xlink:href="#DejaVuSans-50"/>
       <use x="63.623047" xlink:href="#DejaVuSans-48"/>
       <use x="127.246094" xlink:href="#DejaVuSans-48"/>
      </g>
     </g>
    </g>
    <g id="xtick_9">
     <g id="line2d_17">
      <g>
       <use style="stroke:#000000;stroke-width:0.8;" x="203.824537" xlink:href="#m3c52e6deb4" y="307.584"/>
      </g>
     </g>
     <g id="text_17">
      <!-- 400 -->
      <g transform="translate(194.280787 322.182437)scale(0.1 -0.1)">
       <use xlink:href="#DejaVuSans-52"/>
       <use x="63.623047" xlink:href="#DejaVuSans-48"/>
       <use x="127.246094" xlink:href="#DejaVuSans-48"/>
      </g>
     </g>
    </g>
    <g id="xtick_10">
     <g id="line2d_18">
      <g>
       <use style="stroke:#000000;stroke-width:0.8;" x="268.820442" xlink:href="#m3c52e6deb4" y="307.584"/>
      </g>
     </g>
     <g id="text_18">
      <!-- 600 -->
      <g transform="translate(259.276692 322.182437)scale(0.1 -0.1)">
       <use xlink:href="#DejaVuSans-54"/>
       <use x="63.623047" xlink:href="#DejaVuSans-48"/>
       <use x="127.246094" xlink:href="#DejaVuSans-48"/>
      </g>
     </g>
    </g>
    <g id="xtick_11">
     <g id="line2d_19">
      <g>
       <use style="stroke:#000000;stroke-width:0.8;" x="333.816347" xlink:href="#m3c52e6deb4" y="307.584"/>
      </g>
     </g>
     <g id="text_19">
      <!-- 800 -->
      <g transform="translate(324.272597 322.182437)scale(0.1 -0.1)">
       <use xlink:href="#DejaVuSans-56"/>
       <use x="63.623047" xlink:href="#DejaVuSans-48"/>
       <use x="127.246094" xlink:href="#DejaVuSans-48"/>
      </g>
     </g>
    </g>
    <g id="xtick_12">
     <g id="line2d_20">
      <g>
       <use style="stroke:#000000;stroke-width:0.8;" x="398.812252" xlink:href="#m3c52e6deb4" y="307.584"/>
      </g>
     </g>
     <g id="text_20">
      <!-- 1000 -->
      <g transform="translate(386.087252 322.182437)scale(0.1 -0.1)">
       <use xlink:href="#DejaVuSans-49"/>
       <use x="63.623047" xlink:href="#DejaVuSans-48"/>
       <use x="127.246094" xlink:href="#DejaVuSans-48"/>
       <use x="190.869141" xlink:href="#DejaVuSans-48"/>
      </g>
     </g>
    </g>
    <g id="text_21">
     <!-- Time -->
     <defs>
      <path d="M -0.296875 72.90625 
L 61.375 72.90625 
L 61.375 64.59375 
L 35.5 64.59375 
L 35.5 0 
L 25.59375 0 
L 25.59375 64.59375 
L -0.296875 64.59375 
z
" id="DejaVuSans-84"/>
      <path d="M 56.203125 29.59375 
L 56.203125 25.203125 
L 14.890625 25.203125 
Q 15.484375 15.921875 20.484375 11.0625 
Q 25.484375 6.203125 34.421875 6.203125 
Q 39.59375 6.203125 44.453125 7.46875 
Q 49.3125 8.734375 54.109375 11.28125 
L 54.109375 2.78125 
Q 49.265625 0.734375 44.1875 -0.34375 
Q 39.109375 -1.421875 33.890625 -1.421875 
Q 20.796875 -1.421875 13.15625 6.1875 
Q 5.515625 13.8125 5.515625 26.8125 
Q 5.515625 40.234375 12.765625 48.109375 
Q 20.015625 56 32.328125 56 
Q 43.359375 56 49.78125 48.890625 
Q 56.203125 41.796875 56.203125 29.59375 
z
M 47.21875 32.234375 
Q 47.125 39.59375 43.09375 43.984375 
Q 39.0625 48.390625 32.421875 48.390625 
Q 24.90625 48.390625 20.390625 44.140625 
Q 15.875 39.890625 15.1875 32.171875 
z
" id="DejaVuSans-101"/>
     </defs>
     <g transform="translate(223.7725 335.860562)scale(0.1 -0.1)">
      <use xlink:href="#DejaVuSans-84"/>
      <use x="61.037109" xlink:href="#DejaVuSans-105"/>
      <use x="88.820312" xlink:href="#DejaVuSans-109"/>
      <use x="186.232422" xlink:href="#DejaVuSans-101"/>
     </g>
    </g>
   </g>
   <g id="matplotlib.axis_4">
    <g id="ytick_7">
     <g id="line2d_21">
      <g>
       <use style="stroke:#000000;stroke-width:0.8;" x="57.6" xlink:href="#m778323926e" y="289.891085"/>
      </g>
     </g>
     <g id="text_22">
      <!-- −200 -->
      <g transform="translate(23.132812 293.690304)scale(0.1 -0.1)">
       <use xlink:href="#DejaVuSans-8722"/>
       <use x="83.789062" xlink:href="#DejaVuSans-50"/>
       <use x="147.412109" xlink:href="#DejaVuSans-48"/>
       <use x="211.035156" xlink:href="#DejaVuSans-48"/>
      </g>
     </g>
    </g>
    <g id="ytick_8">
     <g id="line2d_22">
      <g>
       <use style="stroke:#000000;stroke-width:0.8;" x="57.6" xlink:href="#m778323926e" y="254.951001"/>
      </g>
     </g>
     <g id="text_23">
      <!-- 0 -->
      <g transform="translate(44.2375 258.75022)scale(0.1 -0.1)">
       <use xlink:href="#DejaVuSans-48"/>
      </g>
     </g>
    </g>
    <g id="ytick_9">
     <g id="line2d_23">
      <g>
       <use style="stroke:#000000;stroke-width:0.8;" x="57.6" xlink:href="#m778323926e" y="220.010917"/>
      </g>
     </g>
     <g id="text_24">
      <!-- 200 -->
      <g transform="translate(31.5125 223.810136)scale(0.1 -0.1)">
       <use xlink:href="#DejaVuSans-50"/>
       <use x="63.623047" xlink:href="#DejaVuSans-48"/>
       <use x="127.246094" xlink:href="#DejaVuSans-48"/>
      </g>
     </g>
    </g>
    <g id="text_25">
     <!-- Yaw -->
     <g transform="translate(17.053125 257.300875)rotate(-90)scale(0.1 -0.1)">
      <use xlink:href="#DejaVuSans-89"/>
      <use x="60.880859" xlink:href="#DejaVuSans-97"/>
      <use x="122.160156" xlink:href="#DejaVuSans-119"/>
     </g>
    </g>
   </g>
   <g id="line2d_24">
    <path clip-path="url(#pf9d9a28290)" d="M 73.832727 258.29301 
L 93.981458 258.289424 
L 94.306437 286.960144 
L 95.606355 286.84175 
L 102.755905 286.826514 
L 103.080885 284.581421 
L 105.355741 288.149826 
L 106.0057 287.782763 
L 106.33068 287.394802 
L 106.980639 285.5629 
L 107.630598 287.650452 
L 107.955577 288.121933 
L 108.930516 288.748405 
L 109.905455 290.517776 
L 110.230434 300.606125 
L 110.555414 301.516903 
L 110.880393 301.835164 
L 111.205373 239.250516 
L 111.855332 239.59481 
L 112.505291 239.781105 
L 114.130188 239.910905 
L 118.679902 239.923338 
L 119.004881 250.747328 
L 119.97982 250.860979 
L 121.604717 250.840195 
L 121.929697 251.193302 
L 122.579656 251.110975 
L 122.904636 251.159491 
L 123.229615 254.758846 
L 124.204554 254.959594 
L 125.829451 255.036812 
L 126.80439 255.152605 
L 127.129369 255.253454 
L 127.454349 249.859951 
L 128.429287 249.83118 
L 131.029124 250.0199 
L 131.354103 250.92323 
L 133.30398 250.842318 
L 137.853694 250.491749 
L 141.753448 250.105772 
L 145.328223 249.942185 
L 151.827813 249.922661 
L 154.752629 250.017948 
L 156.052547 250.269548 
L 156.702506 250.45645 
L 158.327404 251.475027 
L 159.302342 251.907888 
L 161.252219 252.328747 
L 162.877117 252.413004 
L 166.451892 252.426355 
L 166.776871 268.70646 
L 167.75181 268.809339 
L 169.376708 269.125676 
L 171.001605 269.135849 
L 173.276462 269.637252 
L 174.2514 269.869068 
L 175.226339 269.516415 
L 176.526257 269.220228 
L 178.801114 269.542389 
L 179.451073 269.464639 
L 179.776052 269.110239 
L 180.426011 268.977355 
L 180.750991 268.139065 
L 181.075971 268.147174 
L 181.72593 268.566892 
L 182.375889 269.494785 
L 182.700868 299.062539 
L 183.350827 299.166271 
L 183.675807 246.128934 
L 184.325766 246.929896 
L 184.650745 247.049514 
L 184.975725 246.85712 
L 185.625684 246.029212 
L 186.275643 244.662677 
L 186.600622 243.707397 
L 187.250581 240.629649 
L 187.575561 301.367227 
L 188.5505 297.422797 
L 189.200459 296.512933 
L 189.525438 296.787873 
L 189.850418 296.65557 
L 190.175397 296.235169 
L 190.500377 272.025721 
L 191.150336 272.210017 
L 192.775233 272.726018 
L 194.075152 272.763872 
L 195.700049 272.729516 
L 196.350008 272.945724 
L 196.999967 273.292196 
L 197.324947 274.07717 
L 197.649926 273.998229 
L 197.974906 273.095442 
L 199.274824 272.520501 
L 200.899722 272.576969 
L 201.549681 272.461067 
L 202.849599 272.031878 
L 203.824537 271.892905 
L 204.149517 240.843678 
L 205.449435 242.377066 
L 205.774414 242.224311 
L 208.049271 242.2305 
L 208.374251 241.605781 
L 209.02421 239.574432 
L 209.349189 301.332719 
L 209.674169 273.732998 
L 210.324128 273.690618 
L 210.974087 273.872508 
L 212.923964 273.980268 
L 213.248943 273.90458 
L 213.573923 272.483892 
L 213.898903 269.556432 
L 214.223882 239.892177 
L 216.498739 239.359507 
L 217.148698 239.260223 
L 217.473677 302.085818 
L 218.773595 301.908219 
L 219.098575 240.374902 
L 219.423554 240.494493 
L 219.748534 241.086115 
L 220.723473 241.403008 
L 222.023391 241.562744 
L 225.273186 241.608809 
L 226.248124 241.610299 
L 226.573104 255.426529 
L 226.898084 241.930987 
L 227.873022 239.923182 
L 228.198002 302.049926 
L 230.797838 295.927127 
L 231.122817 295.564736 
L 231.772776 295.31881 
L 232.747715 295.201181 
L 233.397674 295.186013 
L 233.722654 258.212093 
L 235.672531 258.142524 
L 241.847142 258.206879 
L 242.82208 258.172256 
L 243.797019 257.733497 
L 244.446978 257.456962 
L 245.746896 257.253387 
L 246.721835 257.551804 
L 247.371794 257.884378 
L 248.671712 258.102397 
L 250.946568 258.171069 
L 251.921507 258.182509 
L 252.246486 286.57059 
L 253.546405 286.670645 
L 255.171302 286.296303 
L 255.496282 297.361192 
L 256.146241 297.606511 
L 256.47122 286.067 
L 256.7962 297.810981 
L 257.446159 298.064369 
L 258.096118 298.053118 
L 259.721016 297.69344 
L 260.045995 297.678091 
L 260.370975 248.975555 
L 261.670893 252.268767 
L 262.320852 253.457305 
L 262.970811 254.021948 
L 263.945749 254.38966 
L 264.270729 254.452124 
L 264.595708 297.28121 
L 265.570647 297.781668 
L 266.545586 298.404402 
L 267.195545 298.810782 
L 267.845504 299.361601 
L 268.170483 299.594171 
L 268.495463 299.974942 
L 268.820442 284.042925 
L 270.44534 283.962658 
L 271.095299 284.16912 
L 272.395217 284.739931 
L 272.720197 284.805439 
L 273.045176 298.377958 
L 273.695135 298.6969 
L 274.020115 284.923568 
L 274.670074 284.801664 
L 275.320033 284.506555 
L 275.969992 284.123296 
L 276.619951 283.945664 
L 277.26991 283.856636 
L 279.219787 283.320749 
L 279.544767 250.030062 
L 281.494644 251.528487 
L 282.144603 251.99608 
L 282.469582 253.659136 
L 283.7695 254.620204 
L 284.419459 255.032008 
L 284.744439 269.038508 
L 287.344275 268.950532 
L 298.718559 268.832265 
L 299.043538 268.731176 
L 299.368518 266.719792 
L 300.668436 266.59236 
L 302.618313 266.558969 
L 302.943292 240.818426 
L 303.268272 240.820486 
L 303.593251 267.031948 
L 304.56819 267.218742 
L 305.543129 267.361095 
L 306.518067 267.604191 
L 307.817985 267.648829 
L 308.142965 267.634591 
L 308.467944 240.837151 
L 310.092842 241.064616 
L 313.017658 241.109765 
L 314.317576 241.110097 
L 314.642555 243.495575 
L 315.942473 242.978332 
L 316.267453 245.694415 
L 316.917412 245.699767 
L 317.242391 241.925424 
L 318.21733 241.120955 
L 319.517248 240.504604 
L 321.467125 240.313659 
L 323.092023 240.28334 
L 323.417002 246.739735 
L 324.391941 246.213447 
L 324.716921 245.888287 
L 325.36688 246.171994 
L 326.991777 247.614212 
L 327.316757 247.806517 
L 327.641736 247.713366 
L 328.291695 247.154521 
L 328.616675 246.828504 
L 328.941654 301.602791 
L 330.566552 301.414622 
L 330.891532 301.455776 
L 331.216511 244.147289 
L 331.86647 244.170472 
L 332.19145 301.198958 
L 333.166388 300.650574 
L 333.816347 300.285321 
L 334.466306 300.316954 
L 336.416183 300.903349 
L 336.741163 242.82424 
L 338.041081 240.200272 
L 338.366061 239.873085 
L 338.69104 299.579794 
L 339.990958 299.474947 
L 343.240753 299.358048 
L 344.215692 299.015913 
L 344.540672 276.034359 
L 345.51561 276.220318 
L 345.84059 239.543885 
L 346.165569 302.002775 
L 347.140508 300.867232 
L 347.790467 299.828737 
L 349.090385 296.297279 
L 349.740344 294.487347 
L 350.715283 293.096891 
L 351.365242 292.566629 
L 352.34018 292.236682 
L 352.990139 292.293919 
L 354.290057 292.562324 
L 355.589975 292.337942 
L 356.239934 292.221305 
L 356.889894 292.275625 
L 357.539853 292.393595 
L 357.864832 292.35608 
L 358.189812 274.970296 
L 359.814709 275.051464 
L 364.364423 275.062931 
L 364.689402 299.819821 
L 365.664341 299.75925 
L 366.639279 299.5978 
L 367.289238 299.345666 
L 367.939197 299.230375 
L 368.264177 298.965028 
L 368.589156 300.570083 
L 371.838952 300.6362 
L 375.738706 300.72259 
L 377.038624 300.949319 
L 377.363604 301.930966 
L 377.688583 302.050642 
L 378.013563 239.301438 
L 379.313481 239.52445 
L 380.938378 239.552771 
L 381.263358 239.53075 
L 381.588337 242.350943 
L 381.913317 242.168278 
L 382.238296 241.397794 
L 383.213235 240.750608 
L 383.538215 240.62018 
L 383.863194 249.648608 
L 384.188174 249.639193 
L 384.513153 240.233195 
L 385.813071 239.979985 
L 386.138051 249.332153 
L 386.46303 239.841869 
L 387.437969 239.6246 
L 388.087928 239.405032 
L 388.412907 239.283737 
L 388.737887 302.060546 
L 390.362785 301.543951 
L 391.662703 301.294186 
L 393.2876 301.126161 
L 395.887437 300.145984 
L 398.487273 300.055266 
L 398.487273 300.055266 
" style="fill:none;stroke:#ff0000;stroke-dasharray:5.55,2.4;stroke-dashoffset:0;stroke-width:1.5;"/>
   </g>
   <g id="line2d_25">
    <path clip-path="url(#pf9d9a28290)" d="M 73.832727 228.618679 
L 82.932154 228.618679 
L 83.257133 225.219962 
L 85.85697 225.219962 
L 86.181949 224.981735 
L 87.156888 224.934091 
L 87.806847 224.505278 
L 88.131826 224.457634 
L 88.456806 224.632334 
L 88.781785 226.569921 
L 89.106765 227.649886 
L 89.756724 228.110458 
L 90.081704 228.586912 
L 92.68154 228.555147 
L 93.006519 228.475738 
L 93.331499 206.574654 
L 95.606355 206.574654 
L 95.931335 206.431718 
L 96.581294 207.336979 
L 96.906274 207.734022 
L 97.556233 207.829316 
L 98.531171 208.210487 
L 99.831089 208.242252 
L 100.156069 208.226369 
L 100.481048 207.940498 
L 102.105946 207.924615 
L 102.755905 207.797557 
L 103.405864 207.734027 
L 106.655659 207.797557 
L 106.980639 208.432829 
L 107.305618 209.528673 
L 107.630598 209.830432 
L 108.280557 209.909844 
L 108.605536 209.909844 
L 108.930516 248.328048 
L 110.880393 248.232757 
L 111.530352 248.121584 
L 111.855332 247.91512 
L 112.180311 247.518073 
L 112.505291 246.422225 
L 112.83027 245.914006 
L 113.480229 243.865243 
L 114.130188 243.865243 
L 114.455168 244.071707 
L 114.780147 244.881682 
L 115.105127 246.962206 
L 115.430106 250.519741 
L 115.755086 192.836839 
L 116.080066 197.664922 
L 116.405045 198.427253 
L 117.055004 198.459017 
L 117.379984 198.903712 
L 118.354922 198.951359 
L 119.004881 198.983124 
L 119.329861 199.126065 
L 119.65484 199.554872 
L 119.97982 199.729573 
L 120.304799 200.063091 
L 120.629779 200.094856 
L 120.954758 200.253674 
L 121.279738 200.793652 
L 121.604717 200.984235 
L 121.929697 202.143608 
L 122.254676 202.381838 
L 122.579656 202.413603 
L 123.554595 202.937704 
L 123.879574 202.953587 
L 124.204554 203.366517 
L 124.854513 207.082867 
L 125.179492 207.813434 
L 126.80439 207.797551 
L 127.129369 207.956369 
L 127.454349 208.95693 
L 127.779328 209.465154 
L 129.729206 209.385743 
L 130.379165 209.290454 
L 131.354103 209.290454 
L 132.004062 208.782235 
L 132.329042 207.797557 
L 132.654021 207.54345 
L 133.62896 207.559332 
L 133.953939 207.416396 
L 134.278919 205.987028 
L 134.928878 205.971146 
L 135.253857 204.446489 
L 135.903817 204.557666 
L 136.228796 204.684724 
L 136.878755 204.700607 
L 137.203735 207.289354 
L 137.528714 210.910418 
L 137.853694 211.545693 
L 138.178673 211.926859 
L 138.828632 214.229729 
L 139.478591 214.15032 
L 139.803571 212.180971 
L 140.12855 203.731821 
L 140.45353 202.080111 
L 141.103489 202.318341 
L 141.428468 202.778918 
L 141.753448 202.7948 
L 142.078428 203.700062 
L 142.403407 204.144757 
L 142.728387 203.795361 
L 143.053366 203.795361 
L 143.378346 204.033591 
L 144.028305 204.065356 
L 144.353284 204.637104 
L 144.678264 204.875334 
L 145.328223 204.732393 
L 145.653202 204.494163 
L 146.303161 204.494163 
L 146.628141 204.097115 
L 146.95312 202.191293 
L 147.2781 201.413085 
L 147.603079 199.49138 
L 148.253038 199.427851 
L 149.227977 199.459615 
L 149.552957 198.999038 
L 150.202916 195.107987 
L 152.477772 195.187399 
L 153.452711 195.235046 
L 154.752629 195.06034 
L 155.727568 195.012693 
L 156.377527 192.630411 
L 156.702506 192.31277 
L 157.352465 192.138064 
L 158.652383 192.122182 
L 159.302342 192.249241 
L 159.952301 192.344529 
L 160.92724 192.646288 
L 161.252219 193.043331 
L 161.902179 193.138625 
L 163.202097 193.233919 
L 164.826994 193.281566 
L 172.626503 193.218037 
L 172.951482 192.96393 
L 173.926421 192.916283 
L 175.551319 192.948048 
L 175.876298 192.471593 
L 176.201278 252.695588 
L 176.526257 252.314424 
L 176.851237 252.123841 
L 178.476134 252.203251 
L 178.801114 252.489124 
L 179.126093 192.169834 
L 179.451073 196.632639 
L 179.776052 197.410852 
L 180.426011 197.410852 
L 180.750991 197.252034 
L 181.075971 196.791462 
L 183.675807 196.71205 
L 184.325766 196.616756 
L 184.975725 196.616756 
L 185.300704 195.679725 
L 185.625684 195.600313 
L 185.950663 194.13918 
L 186.600622 192.662165 
L 187.575561 192.69393 
L 187.900541 192.789224 
L 188.5505 193.837432 
L 189.200459 193.948603 
L 190.175397 193.948603 
L 190.500377 197.267906 
L 190.825356 196.553222 
L 191.475315 193.090978 
L 191.800295 254.871403 
L 192.125274 192.455706 
L 192.450254 193.281566 
L 193.425192 210.815135 
L 194.400131 211.418648 
L 197.324947 211.450412 
L 199.274824 211.529824 
L 199.924783 211.561589 
L 200.249762 211.196306 
L 201.549681 211.180423 
L 201.87466 211.05337 
L 202.19964 209.782823 
L 202.524619 209.560475 
L 203.174578 208.385219 
L 203.824537 208.274043 
L 204.149517 203.191864 
L 205.124455 203.207747 
L 205.774414 205.383563 
L 207.074333 205.399446 
L 207.724292 205.129451 
L 208.049271 204.113013 
L 208.374251 202.635998 
L 209.02421 192.963957 
L 209.349189 250.170404 
L 209.674169 248.312226 
L 209.999148 247.931062 
L 210.974087 247.883416 
L 211.299066 247.883416 
L 211.624046 247.311669 
L 211.949025 244.468816 
L 212.274005 238.417829 
L 212.598984 237.591973 
L 212.923964 237.290218 
L 213.573923 236.321426 
L 213.898903 235.972023 
L 215.198821 236.019669 
L 215.5238 237.242572 
L 215.84878 239.132513 
L 216.823718 239.148396 
L 217.148698 239.688378 
L 218.773595 239.736024 
L 221.373432 239.736024 
L 222.34837 240.339537 
L 223.323309 240.291891 
L 223.648288 240.323654 
L 223.973268 240.498355 
L 224.298247 242.499468 
L 224.948206 251.536244 
L 225.273186 252.647974 
L 226.248124 252.647974 
L 226.573104 252.536801 
L 226.898084 251.679181 
L 227.873022 250.885088 
L 229.17294 250.789797 
L 229.822899 250.615096 
L 230.147879 250.186286 
L 231.447797 250.186286 
L 231.772776 250.075113 
L 232.097756 248.772801 
L 232.422735 248.216936 
L 233.072695 248.216936 
L 233.722654 248.709274 
L 234.047633 249.090438 
L 234.372613 249.233374 
L 236.647469 249.265138 
L 236.972449 249.487484 
L 237.947387 249.487483 
L 238.922326 249.487483 
L 239.247305 249.153964 
L 239.897265 249.233373 
L 240.222244 249.360428 
L 241.847142 249.376309 
L 242.172121 249.201609 
L 243.14706 249.169845 
L 243.797019 249.090435 
L 244.771957 249.090435 
L 245.096937 245.898183 
L 245.746896 245.802892 
L 247.046814 245.802892 
L 247.371794 245.215263 
L 247.696773 243.73825 
L 248.346732 243.674722 
L 248.671712 243.230029 
L 249.64665 242.8171 
L 249.97163 242.245353 
L 250.621589 242.229471 
L 250.946568 241.435379 
L 251.596527 234.272661 
L 252.896446 234.256778 
L 253.871384 233.92326 
L 254.196364 233.446804 
L 254.521343 230.191023 
L 254.846323 228.523431 
L 255.171302 228.237556 
L 258.746077 228.285204 
L 259.071057 229.01577 
L 259.396036 228.809307 
L 259.721016 227.713458 
L 260.045995 227.348175 
L 260.370975 225.744109 
L 260.695954 225.744109 
L 261.345913 224.950016 
L 261.670893 221.805403 
L 261.995872 221.360711 
L 262.320852 219.550177 
L 266.220606 219.50253 
L 266.870565 219.407241 
L 267.520524 219.391356 
L 268.495463 219.439001 
L 271.095299 219.439001 
L 271.420278 220.090158 
L 271.745258 220.995425 
L 273.695135 220.995425 
L 274.020115 221.789518 
L 274.345094 221.932454 
L 274.995053 220.56661 
L 275.320033 216.786724 
L 275.969992 199.316685 
L 276.294971 193.789801 
L 276.619951 253.521461 
L 276.94493 250.805663 
L 277.26991 249.23336 
L 277.594889 248.312212 
L 277.919869 246.85108 
L 278.244848 246.406389 
L 278.894808 246.32698 
L 279.219787 246.32698 
L 279.544767 246.596971 
L 280.194726 250.503907 
L 280.519705 251.075654 
L 282.144603 251.1233 
L 284.419459 251.059773 
L 284.744439 251.012127 
L 285.069419 250.837426 
L 287.669255 250.821544 
L 288.969173 250.885072 
L 289.944111 251.1233 
L 294.493825 251.028009 
L 295.793743 250.948598 
L 296.768681 251.04389 
L 297.41864 251.155063 
L 300.343456 251.059772 
L 302.293333 251.075654 
L 302.943292 250.980362 
L 303.268272 250.78978 
L 307.493006 250.853308 
L 307.817985 251.028009 
L 309.117903 251.012127 
L 309.442883 250.853308 
L 311.067781 250.805662 
L 313.017658 250.726252 
L 313.342637 240.196578 
L 314.317576 240.196578 
L 314.642555 233.065627 
L 315.617494 232.986217 
L 315.942473 232.541524 
L 316.592432 226.633475 
L 316.917412 223.187111 
L 317.242391 222.726536 
L 317.892351 222.726536 
L 318.21733 223.536509 
L 318.54231 225.204109 
L 321.792105 225.1247 
L 322.117084 224.997644 
L 322.442064 224.203554 
L 324.391941 224.171789 
L 326.016839 223.504752 
L 326.341818 223.345934 
L 326.666798 223.330052 
L 327.316757 222.869477 
L 329.916593 222.853595 
L 332.841409 222.917124 
L 333.166388 223.298292 
L 333.491368 223.854156 
L 335.116265 223.981212 
L 336.091204 224.346492 
L 336.416183 202.540704 
L 337.066143 202.540704 
L 338.041081 202.874228 
L 344.865651 202.905993 
L 345.190631 203.1601 
L 345.84059 204.017719 
L 347.790467 204.049484 
L 348.115446 205.367681 
L 348.440426 208.62346 
L 348.765405 209.560491 
L 349.415364 209.624021 
L 350.390303 213.102147 
L 350.715283 213.276847 
L 351.690221 213.276847 
L 352.015201 213.133911 
L 352.34018 213.118029 
L 352.990139 212.387463 
L 353.965078 212.339818 
L 354.615037 212.244527 
L 355.264996 212.244527 
L 355.589975 202.937758 
L 356.889894 202.985405 
L 357.214873 203.334805 
L 358.514791 203.430099 
L 358.839771 203.430099 
L 359.16475 202.651886 
L 359.48973 202.683651 
L 359.814709 203.445982 
L 360.139689 203.620688 
L 360.789648 204.224201 
L 362.414545 204.224201 
L 362.739525 204.525954 
L 363.064505 205.875911 
L 363.714464 205.955322 
L 364.364423 205.955322 
L 364.689402 215.246207 
L 365.014382 215.309733 
L 365.664341 215.643252 
L 366.3143 215.690899 
L 366.639279 220.630158 
L 366.964259 207.877043 
L 367.289238 208.210561 
L 367.614218 207.638813 
L 367.939197 193.932769 
L 368.264177 253.013276 
L 368.589156 252.552702 
L 369.889075 252.552702 
L 370.214054 252.79093 
L 370.539034 193.83748 
L 370.864013 198.649685 
L 371.188993 198.649685 
L 371.513972 195.012741 
L 371.838952 254.077366 
L 372.163931 252.74329 
L 372.488911 252.74329 
L 372.81389 254.093247 
L 380.288419 254.093247 
L 380.613399 192.296946 
L 381.263358 204.716553 
L 381.588337 203.604821 
L 381.913317 201.683117 
L 382.563276 201.143133 
L 382.888256 201.127251 
L 383.213235 200.364925 
L 383.538215 198.141461 
L 384.188174 192.868684 
L 384.513153 253.902661 
L 384.838133 250.9804 
L 385.163112 245.977614 
L 385.488092 236.464383 
L 386.46303 224.664163 
L 387.112989 222.964806 
L 387.437969 222.742461 
L 387.762948 221.853077 
L 388.087928 220.26489 
L 388.737887 220.185481 
L 389.712826 220.614294 
L 390.362785 224.028891 
L 391.337723 224.09242 
L 391.662703 223.981249 
L 391.987682 223.488912 
L 392.312662 223.393621 
L 392.637641 222.853637 
L 393.61258 222.694817 
L 393.937559 222.408945 
L 394.912498 222.361301 
L 396.212416 222.440713 
L 396.537396 222.472477 
L 396.862375 238.799029 
L 398.162293 238.830794 
L 398.487273 238.799031 
L 398.487273 238.799031 
" style="fill:none;stroke:#008000;stroke-linecap:square;stroke-width:1.5;"/>
   </g>
   <g id="patch_8">
    <path d="M 57.6 307.584 
L 57.6 186.624 
" style="fill:none;stroke:#000000;stroke-linecap:square;stroke-linejoin:miter;stroke-width:0.8;"/>
   </g>
   <g id="patch_9">
    <path d="M 414.72 307.584 
L 414.72 186.624 
" style="fill:none;stroke:#000000;stroke-linecap:square;stroke-linejoin:miter;stroke-width:0.8;"/>
   </g>
   <g id="patch_10">
    <path d="M 57.6 307.584 
L 414.72 307.584 
" style="fill:none;stroke:#000000;stroke-linecap:square;stroke-linejoin:miter;stroke-width:0.8;"/>
   </g>
   <g id="patch_11">
    <path d="M 57.6 186.624 
L 414.72 186.624 
" style="fill:none;stroke:#000000;stroke-linecap:square;stroke-linejoin:miter;stroke-width:0.8;"/>
   </g>
   <g id="legend_1">
    <g id="patch_12">
     <path d="M 64.6 302.584 
L 141.415625 302.584 
Q 143.415625 302.584 143.415625 300.584 
L 143.415625 272.22775 
Q 143.415625 270.22775 141.415625 270.22775 
L 64.6 270.22775 
Q 62.6 270.22775 62.6 272.22775 
L 62.6 300.584 
Q 62.6 302.584 64.6 302.584 
z
" style="fill:#ffffff;opacity:0.8;stroke:#cccccc;stroke-linejoin:miter;"/>
    </g>
    <g id="line2d_26">
     <path d="M 66.6 278.326187 
L 86.6 278.326187 
" style="fill:none;stroke:#ff0000;stroke-dasharray:5.55,2.4;stroke-dashoffset:0;stroke-width:1.5;"/>
    </g>
    <g id="line2d_27"/>
    <g id="text_26">
     <!-- Cheat -->
     <g transform="translate(94.6 281.826187)scale(0.1 -0.1)">
      <use xlink:href="#DejaVuSans-67"/>
      <use x="69.824219" xlink:href="#DejaVuSans-104"/>
      <use x="133.203125" xlink:href="#DejaVuSans-101"/>
      <use x="194.726562" xlink:href="#DejaVuSans-97"/>
      <use x="256.005859" xlink:href="#DejaVuSans-116"/>
     </g>
    </g>
    <g id="line2d_28">
     <path d="M 66.6 293.004312 
L 86.6 293.004312 
" style="fill:none;stroke:#008000;stroke-linecap:square;stroke-width:1.5;"/>
    </g>
    <g id="line2d_29"/>
    <g id="text_27">
     <!-- No cheat -->
     <defs>
      <path d="M 9.8125 72.90625 
L 23.09375 72.90625 
L 55.421875 11.921875 
L 55.421875 72.90625 
L 64.984375 72.90625 
L 64.984375 0 
L 51.703125 0 
L 19.390625 60.984375 
L 19.390625 0 
L 9.8125 0 
z
" id="DejaVuSans-78"/>
     </defs>
     <g transform="translate(94.6 296.504312)scale(0.1 -0.1)">
      <use xlink:href="#DejaVuSans-78"/>
      <use x="74.804688" xlink:href="#DejaVuSans-111"/>
      <use x="135.986328" xlink:href="#DejaVuSans-32"/>
      <use x="167.773438" xlink:href="#DejaVuSans-99"/>
      <use x="222.753906" xlink:href="#DejaVuSans-104"/>
      <use x="286.132812" xlink:href="#DejaVuSans-101"/>
      <use x="347.65625" xlink:href="#DejaVuSans-97"/>
      <use x="408.935547" xlink:href="#DejaVuSans-116"/>
     </g>
    </g>
   </g>
  </g>
 </g>
 <defs>
  <clipPath id="pbead963101">
   <rect height="120.96" width="357.12" x="57.6" y="41.472"/>
  </clipPath>
  <clipPath id="pf9d9a28290">
   <rect height="120.96" width="357.12" x="57.6" y="186.624"/>
  </clipPath>
 </defs>
</svg>
